<?xml version="1.0" encoding="UTF-8" standalone="no"?>
<svg width="189px" height="48px" viewBox="0 0 189 48" version="1.1" xmlns="http://www.w3.org/2000/svg" xmlns:xlink="http://www.w3.org/1999/xlink">
    <!-- Generator: Sketch 3.8.3 (29802) - http://www.bohemiancoding.com/sketch -->
    <title>Joomla</title>
    <desc>Created with Sketch.</desc>
    <defs>
        <polygon id="path-1" points="0 47.5 188.1425 47.5 188.1425 0.481 0 0.481"></polygon>
        <polygon id="path-3" points="18.0511 0.481 0.0471 0.481 0.0471 26.94925 18.0511 26.94925 18.0511 0.481"></polygon>
        <polygon id="path-5" points="6.77626358e-21 0.28455 6.77626358e-21 18.37155 26.0794 18.37155 26.0794 0.28455 0 0.28455"></polygon>
    </defs>
    <g id="Page-1" stroke="none" stroke-width="1" fill="none" fill-rule="evenodd">
        <g id="Joomla" transform="translate(-35.000000, -35.000000)">
            <g transform="translate(35.000000, 35.000000)">
                <g id="Group-56" transform="translate(44.000000, 37.019200)" fill="#F0F0F0">
                    <path d="M0.4993,7.8228 C0.4993,7.6193 0.5608,7.4573 0.6833,7.3338 C0.8058,7.2118 0.9543,7.1503 1.1293,7.1503 C1.2973,7.1503 1.4428,7.2118 1.5653,7.3338 C1.6873,7.4573 1.7488,7.6193 1.7488,7.8228 C1.7488,8.0118 1.6873,8.1673 1.5653,8.2893 C1.4428,8.4123 1.2973,8.4733 1.1293,8.4733 C0.9543,8.4733 0.8058,8.4123 0.6833,8.2893 C0.5608,8.1673 0.4993,8.0118 0.4993,7.8228" id="Fill-1"></path>
                    <path d="M3.1137,7.8228 C3.1137,7.6193 3.1752,7.4573 3.2977,7.3338 C3.4202,7.2118 3.5687,7.1503 3.7437,7.1503 C3.9117,7.1503 4.0572,7.2118 4.1797,7.3338 C4.3017,7.4573 4.3632,7.6193 4.3632,7.8228 C4.3632,8.0118 4.3017,8.1673 4.1797,8.2893 C4.0572,8.4123 3.9117,8.4733 3.7437,8.4733 C3.5687,8.4733 3.4202,8.4123 3.2977,8.2893 C3.1752,8.1673 3.1137,8.0118 3.1137,7.8228" id="Fill-3"></path>
                    <path d="M5.72805,7.8228 C5.72805,7.6193 5.78955,7.4573 5.91205,7.3338 C6.03455,7.2118 6.18305,7.1503 6.35805,7.1503 C6.52605,7.1503 6.67155,7.2118 6.79405,7.3338 C6.91605,7.4573 6.97755,7.6193 6.97755,7.8228 C6.97755,8.0118 6.91605,8.1673 6.79405,8.2893 C6.67155,8.4123 6.52605,8.4733 6.35805,8.4733 C6.18305,8.4733 6.03455,8.4123 5.91205,8.2893 C5.78955,8.1673 5.72805,8.0118 5.72805,7.8228" id="Fill-5"></path>
                    <path d="M9.3824,7.21355 C9.6069,7.40905 9.8289,7.54755 10.0494,7.62805 C10.2699,7.70905 10.4644,7.74955 10.6319,7.74955 C10.8424,7.74955 11.0364,7.70155 11.2149,7.60755 C11.3934,7.51255 11.5474,7.38005 11.6769,7.20855 C11.8064,7.03655 11.9079,6.82455 11.9814,6.57255 C12.0549,6.32055 12.0914,6.03755 12.0914,5.72255 C12.0914,5.44205 12.0669,5.18655 12.0179,4.95605 C11.9689,4.72505 11.8904,4.52705 11.7819,4.36305 C11.6734,4.19805 11.5334,4.07055 11.3619,3.97905 C11.1899,3.88855 10.9854,3.84255 10.7474,3.84255 C10.3344,3.84255 9.8799,4.07405 9.3824,4.53555 L9.3824,7.21355 Z M8.5214,0.87155 L9.3824,0.87155 L9.3824,2.90855 L9.3614,3.83205 C9.5924,3.62955 9.8449,3.45955 10.1179,3.32305 C10.3909,3.18605 10.6704,3.11855 10.9579,3.11855 C11.2869,3.11855 11.5774,3.17955 11.8294,3.30255 C12.0809,3.42455 12.2929,3.60005 12.4644,3.82705 C12.6359,4.05455 12.7654,4.32805 12.8529,4.64555 C12.9404,4.96455 12.9844,5.32005 12.9844,5.71205 C12.9844,6.14605 12.9249,6.53405 12.8054,6.87755 C12.6864,7.22055 12.5259,7.51105 12.3229,7.74955 C12.1194,7.98705 11.8854,8.16705 11.6189,8.28955 C11.3529,8.41255 11.0729,8.47305 10.7789,8.47305 C10.5409,8.47305 10.2944,8.41905 10.0389,8.31055 C9.7834,8.20205 9.5434,8.04655 9.3194,7.84355 L9.2879,7.84355 L9.2144,8.34755 L8.5214,8.34755 L8.5214,0.87155 Z" id="Fill-7"></path>
                    <path d="M17.54085,5.4182 C17.54085,4.8927 17.43085,4.4917 17.21035,4.2157 C16.98985,3.9392 16.67985,3.8007 16.28085,3.8007 C16.09885,3.8007 15.92535,3.8372 15.76135,3.9107 C15.59685,3.9842 15.44785,4.0892 15.31485,4.2262 C15.18185,4.3627 15.07185,4.5302 14.98435,4.7302 C14.89635,4.9292 14.83885,5.1592 14.81135,5.4182 L17.54085,5.4182 Z M13.97085,5.8062 C13.97085,5.3867 14.03585,5.0107 14.16535,4.6772 C14.29435,4.3447 14.46585,4.0627 14.67935,3.8322 C14.89335,3.6017 15.13635,3.4247 15.40935,3.3022 C15.68235,3.1792 15.96585,3.1187 16.25985,3.1187 C16.58185,3.1187 16.87035,3.1742 17.12635,3.2862 C17.38135,3.3982 17.59535,3.5597 17.76685,3.7692 C17.93835,3.9792 18.06935,4.2312 18.16035,4.5252 C18.25135,4.8192 18.29685,5.1482 18.29685,5.5122 C18.29685,5.7012 18.28635,5.8592 18.26535,5.9847 L14.82135,5.9847 C14.85635,6.5377 15.02585,6.9752 15.33085,7.2972 C15.63535,7.6192 16.03235,7.7802 16.52235,7.7802 C16.76735,7.7802 16.99335,7.7432 17.19985,7.6697 C17.40635,7.5962 17.60385,7.5007 17.79285,7.3817 L18.09735,7.9482 C17.87335,8.0887 17.62485,8.2107 17.35185,8.3157 C17.07885,8.4212 16.76735,8.4732 16.41735,8.4732 C16.07435,8.4732 15.75385,8.4122 15.45685,8.2892 C15.15885,8.1672 14.89985,7.9922 14.67935,7.7647 C14.45885,7.5372 14.28585,7.2587 14.15985,6.9297 C14.03385,6.6007 13.97085,6.2267 13.97085,5.8062 L13.97085,5.8062 Z" id="Fill-9"></path>
                    <path d="M19.17895,5.80615 C19.17895,5.37965 19.24545,4.99965 19.37845,4.66715 C19.51145,4.33465 19.68995,4.05265 19.91445,3.82215 C20.13795,3.59115 20.39895,3.41615 20.69645,3.29665 C20.99395,3.17765 21.30695,3.11865 21.63595,3.11865 C21.97245,3.11865 22.26095,3.17915 22.50245,3.30265 C22.74395,3.42465 22.95195,3.56665 23.12745,3.72715 L22.69645,4.28415 C22.54295,4.15115 22.38345,4.04265 22.21895,3.95865 C22.05445,3.87415 21.87045,3.83215 21.66795,3.83215 C21.43645,3.83215 21.22295,3.87915 21.02745,3.97415 C20.83095,4.06915 20.66345,4.20315 20.52295,4.37815 C20.38295,4.55365 20.27295,4.76215 20.19245,5.00315 C20.11195,5.24465 20.07145,5.51215 20.07145,5.80615 C20.07145,6.10015 20.10995,6.36665 20.18745,6.60415 C20.26395,6.84265 20.37095,7.04715 20.50745,7.21865 C20.64395,7.39065 20.81045,7.52265 21.00645,7.61765 C21.20195,7.71265 21.41545,7.75965 21.64695,7.75965 C21.89145,7.75965 22.11395,7.70915 22.31345,7.60765 C22.51295,7.50565 22.68995,7.38515 22.84395,7.24515 L23.23245,7.81165 C23.00095,8.01515 22.74395,8.17565 22.46045,8.29515 C22.17695,8.41415 21.88145,8.47315 21.57345,8.47315 C21.23695,8.47315 20.92195,8.41415 20.62845,8.29515 C20.33445,8.17565 20.08045,8.00315 19.86695,7.77515 C19.65345,7.54765 19.48545,7.26715 19.36295,6.93515 C19.24045,6.60265 19.17895,6.22665 19.17895,5.80615" id="Fill-11"></path>
                    <path d="M24.8388,6.96145 C24.8388,7.25545 24.9248,7.46545 25.0958,7.59145 C25.2673,7.71745 25.4793,7.77995 25.7313,7.77995 C25.9763,7.77995 26.2088,7.72295 26.4293,7.60745 C26.6498,7.49195 26.8828,7.32195 27.1278,7.09795 L27.1278,5.68045 C26.7008,5.73695 26.3403,5.80295 26.0463,5.87945 C25.7523,5.95745 25.5158,6.04795 25.3373,6.15295 C25.1593,6.25795 25.0313,6.37845 24.9543,6.51545 C24.8773,6.65145 24.8388,6.80095 24.8388,6.96145 M23.9883,7.02445 C23.9883,6.46395 24.2383,6.03595 24.7393,5.73795 C25.2398,5.44045 26.0358,5.23295 27.1278,5.11295 C27.1278,4.95245 27.1123,4.79545 27.0808,4.64045 C27.0488,4.48695 26.9928,4.34995 26.9128,4.23145 C26.8318,4.11245 26.7253,4.01595 26.5923,3.94245 C26.4593,3.86895 26.2878,3.83245 26.0778,3.83245 C25.7768,3.83245 25.4983,3.88845 25.2428,4.00045 C24.9873,4.11245 24.7583,4.23795 24.5553,4.37845 L24.2088,3.77995 C24.4468,3.62645 24.7373,3.47695 25.0803,3.33295 C25.4233,3.19045 25.8013,3.11895 26.2148,3.11895 C26.8373,3.11895 27.2888,3.30945 27.5688,3.69045 C27.8488,4.07245 27.9888,4.58145 27.9888,5.21845 L27.9888,8.34745 L27.2748,8.34745 L27.2013,7.73795 L27.1808,7.73795 C26.9353,7.94145 26.6713,8.11495 26.3878,8.25845 C26.1038,8.40145 25.8048,8.47295 25.4898,8.47295 C25.0558,8.47295 24.6968,8.34745 24.4138,8.09545 C24.1298,7.84345 23.9883,7.48595 23.9883,7.02445" id="Fill-13"></path>
                    <path d="M29.5425,3.24435 L30.414,3.24435 L30.414,6.36335 C30.414,6.84635 30.4895,7.19385 30.6395,7.40735 C30.7905,7.62135 31.0335,7.72785 31.3695,7.72785 C31.6355,7.72785 31.87,7.65985 32.073,7.52285 C32.276,7.38685 32.5,7.16835 32.745,6.86685 L32.745,3.24435 L33.606,3.24435 L33.606,8.34735 L32.892,8.34735 L32.8185,7.54935 L32.787,7.54935 C32.549,7.82985 32.2985,8.05335 32.0365,8.22185 C31.774,8.38935 31.4645,8.47335 31.107,8.47335 C30.561,8.47335 30.1635,8.30585 29.9155,7.96985 C29.667,7.63335 29.5425,7.13685 29.5425,6.47885 L29.5425,3.24435 Z" id="Fill-15"></path>
                    <path d="M35.19165,7.1922 C35.41565,7.3742 35.64465,7.5212 35.87915,7.6332 C36.11365,7.7457 36.38515,7.8017 36.69315,7.8017 C37.02915,7.8017 37.28115,7.7247 37.44915,7.5707 C37.61715,7.4167 37.70115,7.2272 37.70115,7.0032 C37.70115,6.8707 37.66565,6.7547 37.59615,6.6572 C37.52615,6.5592 37.43665,6.4737 37.32815,6.4002 C37.21965,6.3267 37.09565,6.2617 36.95565,6.2052 C36.81565,6.1497 36.67565,6.0932 36.53515,6.0377 C36.35315,5.9747 36.17115,5.9027 35.98965,5.8222 C35.80715,5.7422 35.64465,5.6437 35.50165,5.5287 C35.35765,5.4132 35.24015,5.2782 35.14915,5.1242 C35.05815,4.9697 35.01315,4.7842 35.01315,4.5672 C35.01315,4.3647 35.05315,4.1742 35.13415,3.9957 C35.21415,3.8167 35.32965,3.6632 35.48065,3.5332 C35.63065,3.4032 35.81465,3.3027 36.03165,3.2292 C36.24815,3.1557 36.49365,3.1187 36.76665,3.1187 C37.08865,3.1187 37.38415,3.1742 37.65415,3.2862 C37.92315,3.3982 38.15615,3.5347 38.35215,3.6957 L37.94265,4.2417 C37.76765,4.1092 37.58565,4.0007 37.39665,3.9162 C37.20765,3.8322 37.00115,3.7902 36.77715,3.7902 C36.45515,3.7902 36.21865,3.8637 36.06815,4.0107 C35.91765,4.1577 35.84215,4.3297 35.84215,4.5252 C35.84215,4.6447 35.87415,4.7472 35.93715,4.8352 C36.00015,4.9227 36.08415,4.9997 36.18865,5.0662 C36.29415,5.1327 36.41465,5.1917 36.55115,5.2447 C36.68815,5.2967 36.82965,5.3517 36.97665,5.4072 C37.15865,5.4772 37.34265,5.5507 37.52765,5.6277 C37.71315,5.7052 37.87965,5.8012 38.02665,5.9162 C38.17365,6.0317 38.29415,6.1737 38.38865,6.3422 C38.48315,6.5102 38.53065,6.7127 38.53065,6.9512 C38.53065,7.1607 38.49015,7.3572 38.40965,7.5392 C38.32965,7.7212 38.21015,7.8817 38.05315,8.0217 C37.89515,8.1622 37.69915,8.2722 37.46465,8.3527 C37.23015,8.4332 36.96265,8.4732 36.66165,8.4732 C36.29715,8.4732 35.95065,8.4072 35.62165,8.2742 C35.29315,8.1407 35.00565,7.9732 34.76115,7.7697 L35.19165,7.1922 Z" id="Fill-17"></path>
                    <path d="M42.91945,5.4182 C42.91945,4.8927 42.80945,4.4917 42.58895,4.2157 C42.36845,3.9392 42.05845,3.8007 41.65945,3.8007 C41.47745,3.8007 41.30395,3.8372 41.13995,3.9107 C40.97545,3.9842 40.82645,4.0892 40.69345,4.2262 C40.56045,4.3627 40.45045,4.5302 40.36295,4.7302 C40.27495,4.9292 40.21745,5.1592 40.18995,5.4182 L42.91945,5.4182 Z M39.34945,5.8062 C39.34945,5.3867 39.41445,5.0107 39.54395,4.6772 C39.67295,4.3447 39.84445,4.0627 40.05795,3.8322 C40.27195,3.6017 40.51495,3.4247 40.78795,3.3022 C41.06095,3.1792 41.34445,3.1187 41.63845,3.1187 C41.96045,3.1187 42.24895,3.1742 42.50495,3.2862 C42.75995,3.3982 42.97395,3.5597 43.14545,3.7692 C43.31695,3.9792 43.44795,4.2312 43.53895,4.5252 C43.62995,4.8192 43.67545,5.1482 43.67545,5.5122 C43.67545,5.7012 43.66495,5.8592 43.64395,5.9847 L40.19995,5.9847 C40.23495,6.5377 40.40445,6.9752 40.70945,7.2972 C41.01395,7.6192 41.41095,7.7802 41.90095,7.7802 C42.14595,7.7802 42.37195,7.7432 42.57845,7.6697 C42.78495,7.5962 42.98245,7.5007 43.17145,7.3817 L43.47595,7.9482 C43.25195,8.0887 43.00345,8.2107 42.73045,8.3157 C42.45745,8.4212 42.14595,8.4732 41.79595,8.4732 C41.45295,8.4732 41.13245,8.4122 40.83545,8.2892 C40.53745,8.1672 40.27845,7.9922 40.05795,7.7647 C39.83745,7.5372 39.66445,7.2587 39.53845,6.9297 C39.41245,6.6007 39.34945,6.2267 39.34945,5.8062 L39.34945,5.8062 Z" id="Fill-19"></path>
                    <path d="M47.571,5.80615 C47.571,6.10015 47.606,6.36665 47.676,6.60415 C47.746,6.84265 47.8455,7.04715 47.9755,7.21865 C48.105,7.39065 48.2605,7.52265 48.4425,7.61765 C48.6245,7.71265 48.824,7.75965 49.041,7.75965 C49.258,7.75965 49.458,7.71265 49.64,7.61765 C49.822,7.52265 49.9775,7.39065 50.107,7.21865 C50.2365,7.04715 50.336,6.84265 50.4065,6.60415 C50.4765,6.36665 50.5115,6.10015 50.5115,5.80615 C50.5115,5.51215 50.4765,5.24465 50.4065,5.00315 C50.336,4.76215 50.2365,4.55365 50.107,4.37815 C49.9775,4.20315 49.822,4.06915 49.64,3.97415 C49.458,3.87915 49.258,3.83215 49.041,3.83215 C48.824,3.83215 48.6245,3.87915 48.4425,3.97415 C48.2605,4.06915 48.105,4.20315 47.9755,4.37815 C47.8455,4.55365 47.746,4.76215 47.676,5.00315 C47.606,5.24465 47.571,5.51215 47.571,5.80615 M46.6785,5.80615 C46.6785,5.37965 46.7435,4.99965 46.873,4.66715 C47.0025,4.33465 47.176,4.05265 47.393,3.82215 C47.6095,3.59115 47.86,3.41615 48.1435,3.29665 C48.427,3.17765 48.7265,3.11865 49.041,3.11865 C49.356,3.11865 49.6555,3.17765 49.939,3.29665 C50.2225,3.41615 50.4725,3.59115 50.69,3.82215 C50.9065,4.05265 51.08,4.33465 51.2095,4.66715 C51.339,4.99965 51.404,5.37965 51.404,5.80615 C51.404,6.22665 51.339,6.60265 51.2095,6.93515 C51.08,7.26715 50.9065,7.54765 50.69,7.77515 C50.4725,8.00315 50.2225,8.17565 49.939,8.29515 C49.6555,8.41415 49.356,8.47315 49.041,8.47315 C48.7265,8.47315 48.427,8.41415 48.1435,8.29515 C47.86,8.17565 47.6095,8.00315 47.393,7.77515 C47.176,7.54765 47.0025,7.26715 46.873,6.93515 C46.7435,6.60265 46.6785,6.22665 46.6785,5.80615" id="Fill-21"></path>
                    <path d="M53.60855,7.21355 C53.83955,7.40905 54.06355,7.54755 54.28055,7.62805 C54.49755,7.70905 54.69055,7.74955 54.85805,7.74955 C55.06855,7.74955 55.26255,7.70155 55.44105,7.60755 C55.61955,7.51255 55.77355,7.38005 55.90305,7.20855 C56.03255,7.03655 56.13405,6.82455 56.20755,6.57255 C56.28105,6.32055 56.31755,6.03755 56.31755,5.72255 C56.31755,5.44205 56.29305,5.18655 56.24405,4.95605 C56.19505,4.72505 56.11655,4.52705 56.00805,4.36305 C55.89955,4.19805 55.75955,4.07055 55.58805,3.97905 C55.41605,3.88855 55.21155,3.84255 54.97355,3.84255 C54.75655,3.84255 54.53805,3.90255 54.31755,4.02105 C54.09705,4.14055 53.86055,4.31155 53.60855,4.53555 L53.60855,7.21355 Z M53.60855,8.77805 L53.60855,10.50005 L52.74755,10.50005 L52.74755,3.24455 L53.46155,3.24455 L53.53505,3.83205 L53.56655,3.83205 C53.79805,3.63655 54.05105,3.46805 54.32805,3.32805 C54.60455,3.18855 54.89355,3.11855 55.19405,3.11855 C55.52305,3.11855 55.81355,3.17955 56.06555,3.30255 C56.31755,3.42455 56.52805,3.60005 56.69605,3.82705 C56.86405,4.05455 56.99155,4.32805 57.07905,4.64555 C57.16655,4.96455 57.21055,5.32355 57.21055,5.72255 C57.21055,6.15655 57.15105,6.54355 57.03155,6.88305 C56.91255,7.22205 56.75205,7.51105 56.54905,7.74955 C56.34555,7.98705 56.11155,8.16705 55.84505,8.28955 C55.57905,8.41255 55.29905,8.47305 55.00505,8.47305 C54.76705,8.47305 54.53105,8.42105 54.29655,8.31605 C54.06205,8.21055 53.82555,8.06705 53.58755,7.88505 L53.60855,8.77805 Z" id="Fill-23"></path>
                    <path d="M61.76745,5.4182 C61.76745,4.8927 61.65745,4.4917 61.43695,4.2157 C61.21645,3.9392 60.90645,3.8007 60.50745,3.8007 C60.32545,3.8007 60.15195,3.8372 59.98795,3.9107 C59.82345,3.9842 59.67445,4.0892 59.54145,4.2262 C59.40845,4.3627 59.29845,4.5302 59.21095,4.7302 C59.12295,4.9292 59.06545,5.1592 59.03795,5.4182 L61.76745,5.4182 Z M58.19745,5.8062 C58.19745,5.3867 58.26245,5.0107 58.39145,4.6772 C58.52095,4.3447 58.69245,4.0627 58.90595,3.8322 C59.11995,3.6017 59.36295,3.4247 59.63595,3.3022 C59.90895,3.1792 60.19245,3.1187 60.48645,3.1187 C60.80845,3.1187 61.09695,3.1742 61.35295,3.2862 C61.60795,3.3982 61.82195,3.5597 61.99345,3.7692 C62.16495,3.9792 62.29595,4.2312 62.38695,4.5252 C62.47795,4.8192 62.52345,5.1482 62.52345,5.5122 C62.52345,5.7012 62.51295,5.8592 62.49195,5.9847 L59.04795,5.9847 C59.08295,6.5377 59.25245,6.9752 59.55745,7.2972 C59.86195,7.6192 60.25895,7.7802 60.74895,7.7802 C60.99395,7.7802 61.21995,7.7432 61.42645,7.6697 C61.63295,7.5962 61.83045,7.5007 62.01945,7.3817 L62.32395,7.9482 C62.09995,8.0887 61.85145,8.2107 61.57845,8.3157 C61.30545,8.4212 60.99395,8.4732 60.64395,8.4732 C60.30095,8.4732 59.98045,8.4122 59.68345,8.2892 C59.38545,8.1672 59.12645,7.9922 58.90595,7.7647 C58.68545,7.5372 58.51245,7.2587 58.38645,6.9297 C58.26045,6.6007 58.19745,6.2267 58.19745,5.8062 L58.19745,5.8062 Z" id="Fill-26"></path>
                    <path d="M63.78325,3.24435 L64.49725,3.24435 L64.57075,3.97935 L64.60225,3.97935 C64.84725,3.73485 65.10475,3.52985 65.37375,3.36485 C65.64375,3.20085 65.95675,3.11885 66.31375,3.11885 C66.85275,3.11885 67.24675,3.28635 67.49525,3.62185 C67.74325,3.95885 67.86775,4.45535 67.86775,5.11335 L67.86775,8.34735 L67.00675,8.34735 L67.00675,5.22835 C67.00675,4.74585 66.92975,4.39785 66.77575,4.18435 C66.62175,3.97085 66.37725,3.86385 66.04075,3.86385 C65.77475,3.86385 65.54025,3.93035 65.33725,4.06285 C65.13425,4.19635 64.90325,4.39285 64.64425,4.65185 L64.64425,8.34735 L63.78325,8.34735 L63.78325,3.24435 Z" id="Fill-28"></path>
                    <path d="M71.51145,7.1922 C71.73545,7.3742 71.96445,7.5212 72.19895,7.6332 C72.43345,7.7457 72.70495,7.8017 73.01295,7.8017 C73.34895,7.8017 73.60095,7.7247 73.76895,7.5707 C73.93695,7.4167 74.02095,7.2272 74.02095,7.0032 C74.02095,6.8707 73.98545,6.7547 73.91595,6.6572 C73.84595,6.5592 73.75645,6.4737 73.64795,6.4002 C73.53945,6.3267 73.41545,6.2617 73.27545,6.2052 C73.13545,6.1497 72.99545,6.0932 72.85495,6.0377 C72.67295,5.9747 72.49095,5.9027 72.30945,5.8222 C72.12695,5.7422 71.96445,5.6437 71.82145,5.5287 C71.67745,5.4132 71.55995,5.2782 71.46895,5.1242 C71.37795,4.9697 71.33295,4.7842 71.33295,4.5672 C71.33295,4.3647 71.37295,4.1742 71.45395,3.9957 C71.53395,3.8167 71.64945,3.6632 71.80045,3.5332 C71.95045,3.4032 72.13445,3.3027 72.35145,3.2292 C72.56795,3.1557 72.81345,3.1187 73.08645,3.1187 C73.40845,3.1187 73.70395,3.1742 73.97395,3.2862 C74.24295,3.3982 74.47595,3.5347 74.67195,3.6957 L74.26245,4.2417 C74.08745,4.1092 73.90545,4.0007 73.71645,3.9162 C73.52745,3.8322 73.32095,3.7902 73.09695,3.7902 C72.77495,3.7902 72.53845,3.8637 72.38795,4.0107 C72.23745,4.1577 72.16195,4.3297 72.16195,4.5252 C72.16195,4.6447 72.19395,4.7472 72.25695,4.8352 C72.31995,4.9227 72.40395,4.9997 72.50845,5.0662 C72.61395,5.1327 72.73445,5.1917 72.87095,5.2447 C73.00795,5.2967 73.14945,5.3517 73.29645,5.4072 C73.47845,5.4772 73.66245,5.5507 73.84745,5.6277 C74.03295,5.7052 74.19945,5.8012 74.34645,5.9162 C74.49345,6.0317 74.61395,6.1737 74.70845,6.3422 C74.80295,6.5102 74.84995,6.7127 74.84995,6.9512 C74.84995,7.1607 74.80995,7.3572 74.72945,7.5392 C74.64945,7.7212 74.52995,7.8817 74.37295,8.0217 C74.21495,8.1622 74.01895,8.2722 73.78445,8.3527 C73.54995,8.4332 73.28245,8.4732 72.98145,8.4732 C72.61695,8.4732 72.27045,8.4072 71.94195,8.2742 C71.61295,8.1407 71.32545,7.9732 71.08095,7.7697 L71.51145,7.1922 Z" id="Fill-30"></path>
                    <path d="M76.56245,5.80615 C76.56245,6.10015 76.59745,6.36665 76.66745,6.60415 C76.73695,6.84265 76.83695,7.04715 76.96645,7.21865 C77.09545,7.39065 77.25195,7.52265 77.43395,7.61765 C77.61595,7.71265 77.81495,7.75965 78.03245,7.75965 C78.24945,7.75965 78.44845,7.71265 78.63045,7.61765 C78.81245,7.52265 78.96895,7.39065 79.09795,7.21865 C79.22745,7.04715 79.32745,6.84265 79.39695,6.60415 C79.46695,6.36665 79.50195,6.10015 79.50195,5.80615 C79.50195,5.51215 79.46695,5.24465 79.39695,5.00315 C79.32745,4.76215 79.22745,4.55365 79.09795,4.37815 C78.96895,4.20315 78.81245,4.06915 78.63045,3.97415 C78.44845,3.87915 78.24945,3.83215 78.03245,3.83215 C77.81495,3.83215 77.61595,3.87915 77.43395,3.97415 C77.25195,4.06915 77.09545,4.20315 76.96645,4.37815 C76.83695,4.55365 76.73695,4.76215 76.66745,5.00315 C76.59745,5.24465 76.56245,5.51215 76.56245,5.80615 M75.66945,5.80615 C75.66945,5.37965 75.73445,4.99965 75.86445,4.66715 C75.99345,4.33465 76.16695,4.05265 76.38395,3.82215 C76.60095,3.59115 76.85145,3.41615 77.13395,3.29665 C77.41795,3.17765 77.71695,3.11865 78.03245,3.11865 C78.34745,3.11865 78.64645,3.17765 78.93045,3.29665 C79.21295,3.41615 79.46345,3.59115 79.68045,3.82215 C79.89745,4.05265 80.07095,4.33465 80.20095,4.66715 C80.32995,4.99965 80.39495,5.37965 80.39495,5.80615 C80.39495,6.22665 80.32995,6.60265 80.20095,6.93515 C80.07095,7.26715 79.89745,7.54765 79.68045,7.77515 C79.46345,8.00315 79.21295,8.17565 78.93045,8.29515 C78.64645,8.41415 78.34745,8.47315 78.03245,8.47315 C77.71695,8.47315 77.41795,8.41415 77.13395,8.29515 C76.85145,8.17565 76.60095,8.00315 76.38395,7.77515 C76.16695,7.54765 75.99345,7.26715 75.86445,6.93515 C75.73445,6.60265 75.66945,6.22665 75.66945,5.80615" id="Fill-32"></path>
                    <path d="M81.6656,3.24435 L82.5371,3.24435 L82.5371,6.36335 C82.5371,6.84635 82.6116,7.19385 82.7626,7.40735 C82.9131,7.62135 83.1561,7.72785 83.4926,7.72785 C83.7581,7.72785 83.9926,7.65985 84.1956,7.52285 C84.3991,7.38685 84.6231,7.16835 84.8676,6.86685 L84.8676,3.24435 L85.7286,3.24435 L85.7286,8.34735 L85.0146,8.34735 L84.9411,7.54935 L84.9101,7.54935 C84.6716,7.82985 84.4216,8.05335 84.1591,8.22185 C83.8966,8.38935 83.5866,8.47335 83.2301,8.47335 C82.6841,8.47335 82.2866,8.30585 82.0381,7.96985 C81.7896,7.63335 81.6656,7.13685 81.6656,6.47885 L81.6656,3.24435 Z" id="Fill-34"></path>
                    <path d="M87.45065,3.24435 L88.16415,3.24435 L88.23765,4.16785 L88.26915,4.16785 C88.44465,3.84685 88.65615,3.59135 88.90515,3.40135 C89.15265,3.21285 89.42465,3.11885 89.71865,3.11885 C89.92115,3.11885 90.10315,3.15385 90.26465,3.22285 L90.09615,3.97935 C90.01265,3.95185 89.93565,3.93035 89.86565,3.91585 C89.79565,3.90235 89.70815,3.89535 89.60315,3.89535 C89.38615,3.89535 89.15965,3.98285 88.92565,4.15785 C88.69165,4.33285 88.48615,4.63735 88.31115,5.07135 L88.31115,8.34735 L87.45065,8.34735 L87.45065,3.24435 Z" id="Fill-36"></path>
                    <path d="M90.61065,5.80615 C90.61065,5.37965 90.67715,4.99965 90.81065,4.66715 C90.94315,4.33465 91.12165,4.05265 91.34565,3.82215 C91.56965,3.59115 91.83065,3.41615 92.12815,3.29665 C92.42565,3.17765 92.73815,3.11865 93.06815,3.11865 C93.40415,3.11865 93.69265,3.17915 93.93365,3.30265 C94.17565,3.42465 94.38415,3.56665 94.55915,3.72715 L94.12865,4.28415 C93.97415,4.15115 93.81515,4.04265 93.65115,3.95865 C93.48615,3.87415 93.30215,3.83215 93.09965,3.83215 C92.86815,3.83215 92.65465,3.87915 92.45915,3.97415 C92.26265,4.06915 92.09515,4.20315 91.95465,4.37815 C91.81465,4.55365 91.70465,4.76215 91.62415,5.00315 C91.54365,5.24465 91.50365,5.51215 91.50365,5.80615 C91.50365,6.10015 91.54215,6.36665 91.61915,6.60415 C91.69565,6.84265 91.80265,7.04715 91.93965,7.21865 C92.07515,7.39065 92.24215,7.52265 92.43765,7.61765 C92.63415,7.71265 92.84765,7.75965 93.07865,7.75965 C93.32365,7.75965 93.54615,7.70915 93.74515,7.60765 C93.94515,7.50565 94.12115,7.38515 94.27565,7.24515 L94.66365,7.81165 C94.43265,8.01515 94.17565,8.17565 93.89215,8.29515 C93.60815,8.41415 93.31265,8.47315 93.00515,8.47315 C92.66915,8.47315 92.35365,8.41415 92.06015,8.29515 C91.76615,8.17565 91.51215,8.00315 91.29865,7.77515 C91.08515,7.54765 90.91765,7.26715 90.79415,6.93515 C90.67215,6.60265 90.61065,6.22665 90.61065,5.80615" id="Fill-38"></path>
                    <path d="M98.74815,5.4182 C98.74815,4.8927 98.63815,4.4917 98.41765,4.2157 C98.19715,3.9392 97.88765,3.8007 97.48865,3.8007 C97.30565,3.8007 97.13315,3.8372 96.96815,3.9107 C96.80415,3.9842 96.65565,4.0892 96.52215,4.2262 C96.38865,4.3627 96.27865,4.5302 96.19165,4.7302 C96.10415,4.9292 96.04615,5.1592 96.01815,5.4182 L98.74815,5.4182 Z M95.17815,5.8062 C95.17815,5.3867 95.24315,5.0107 95.37265,4.6772 C95.50165,4.3447 95.67365,4.0627 95.88715,3.8322 C96.10015,3.6017 96.34365,3.4247 96.61715,3.3022 C96.88965,3.1792 97.17315,3.1187 97.46715,3.1187 C97.78915,3.1187 98.07815,3.1742 98.33365,3.2862 C98.58915,3.3982 98.80265,3.5597 98.97365,3.7692 C99.14565,3.9792 99.27715,4.2312 99.36765,4.5252 C99.45915,4.8192 99.50415,5.1482 99.50415,5.5122 C99.50415,5.7012 99.49415,5.8592 99.47265,5.9847 L96.02915,5.9847 C96.06315,6.5377 96.23315,6.9752 96.53815,7.2972 C96.84265,7.6192 97.24015,7.7802 97.72965,7.7802 C97.97465,7.7802 98.20065,7.7432 98.40715,7.6697 C98.61315,7.5962 98.81115,7.5007 99.00015,7.3817 L99.30465,7.9482 C99.08065,8.0887 98.83165,8.2107 98.55915,8.3157 C98.28565,8.4212 97.97465,8.4732 97.62465,8.4732 C97.28165,8.4732 96.96115,8.4122 96.66415,8.2892 C96.36665,8.1672 96.10765,7.9922 95.88715,7.7647 C95.66665,7.5372 95.49315,7.2587 95.36665,6.9297 C95.24115,6.6007 95.17815,6.2267 95.17815,5.8062 L95.17815,5.8062 Z" id="Fill-40"></path>
                    <path d="M102.88575,3.24435 L103.59925,3.24435 L103.67275,3.97935 L103.70425,3.97935 C103.92825,3.73485 104.17175,3.52985 104.43425,3.36485 C104.69625,3.20085 104.98175,3.11885 105.29025,3.11885 C105.68175,3.11885 105.98825,3.20435 106.20875,3.37585 C106.42925,3.54685 106.59175,3.78685 106.69675,4.09435 C106.96275,3.80085 107.23075,3.56485 107.50025,3.38635 C107.76925,3.20785 108.06225,3.11885 108.37675,3.11885 C108.90225,3.11885 109.29225,3.28635 109.54775,3.62185 C109.80325,3.95885 109.93125,4.45535 109.93125,5.11335 L109.93125,8.34735 L109.06975,8.34735 L109.06975,5.22835 C109.06975,4.74585 108.99275,4.39785 108.83925,4.18435 C108.68525,3.97085 108.44675,3.86385 108.12475,3.86385 C107.74025,3.86385 107.31275,4.12635 106.84375,4.65185 L106.84375,8.34735 L105.98325,8.34735 L105.98325,5.22835 C105.98325,4.74585 105.90575,4.39785 105.75175,4.18435 C105.59775,3.97085 105.35625,3.86385 105.02725,3.86385 C104.64275,3.86385 104.21525,4.12635 103.74625,4.65185 L103.74625,8.34735 L102.88575,8.34735 L102.88575,3.24435 Z" id="Fill-42"></path>
                    <path d="M112.1888,6.96145 C112.1888,7.25545 112.2743,7.46545 112.4458,7.59145 C112.6178,7.71745 112.8298,7.77995 113.0818,7.77995 C113.3263,7.77995 113.5593,7.72295 113.7798,7.60745 C114.0003,7.49195 114.2328,7.32195 114.4778,7.09795 L114.4778,5.68045 C114.0508,5.73695 113.6903,5.80295 113.3963,5.87945 C113.1023,5.95745 112.8663,6.04795 112.6878,6.15295 C112.5093,6.25795 112.3813,6.37845 112.3043,6.51545 C112.2273,6.65145 112.1888,6.80095 112.1888,6.96145 M111.3388,7.02445 C111.3388,6.46395 111.5888,6.03595 112.0888,5.73795 C112.5898,5.44045 113.3858,5.23295 114.4778,5.11295 C114.4778,4.95245 114.4618,4.79545 114.4308,4.64045 C114.3993,4.48695 114.3428,4.34995 114.2628,4.23145 C114.1823,4.11245 114.0758,4.01595 113.9423,3.94245 C113.8088,3.86895 113.6378,3.83245 113.4278,3.83245 C113.1273,3.83245 112.8483,3.88845 112.5928,4.00045 C112.3373,4.11245 112.1083,4.23795 111.9053,4.37845 L111.5588,3.77995 C111.7968,3.62645 112.0873,3.47695 112.4308,3.33295 C112.7733,3.19045 113.1508,3.11895 113.5648,3.11895 C114.1873,3.11895 114.6388,3.30945 114.9188,3.69045 C115.1983,4.07245 115.3383,4.58145 115.3383,5.21845 L115.3383,8.34745 L114.6248,8.34745 L114.5513,7.73795 L114.5303,7.73795 C114.2848,7.94145 114.0208,8.11495 113.7378,8.25845 C113.4543,8.40145 113.1553,8.47295 112.8398,8.47295 C112.4058,8.47295 112.0468,8.34745 111.7633,8.09545 C111.4803,7.84345 111.3388,7.48595 111.3388,7.02445" id="Fill-44"></path>
                    <path d="M117.11335,3.9476 L116.35735,3.9476 L116.35735,3.2966 L117.15535,3.2441 L117.26035,1.8166 L117.98485,1.8166 L117.98485,3.2441 L119.35985,3.2441 L119.35985,3.9476 L117.98485,3.9476 L117.98485,6.7831 C117.98485,7.0981 118.04235,7.3411 118.15735,7.5126 C118.27285,7.6846 118.47785,7.7696 118.77185,7.7696 C118.86335,7.7696 118.96085,7.7561 119.06585,7.7281 C119.17085,7.6996 119.26585,7.6691 119.34985,7.6331 L119.51785,8.2841 C119.37785,8.3336 119.22485,8.3776 119.06085,8.4156 C118.89585,8.4541 118.73335,8.4731 118.57285,8.4731 C118.29935,8.4731 118.07035,8.4311 117.88485,8.3476 C117.69935,8.2636 117.54935,8.1486 117.43285,8.0006 C117.31735,7.8536 117.23535,7.6756 117.18685,7.4656 C117.13735,7.2556 117.11335,7.0246 117.11335,6.7726 L117.11335,3.9476 Z" id="Fill-46"></path>
                    <path d="M120.663,3.9476 L119.907,3.9476 L119.907,3.2966 L120.705,3.2441 L120.81,1.8166 L121.5345,1.8166 L121.5345,3.2441 L122.9095,3.2441 L122.9095,3.9476 L121.5345,3.9476 L121.5345,6.7831 C121.5345,7.0981 121.592,7.3411 121.707,7.5126 C121.8225,7.6846 122.0275,7.7696 122.3215,7.7696 C122.413,7.7696 122.5105,7.7561 122.6155,7.7281 C122.7205,7.6996 122.8155,7.6691 122.8995,7.6331 L123.0675,8.2841 C122.9275,8.3336 122.7745,8.3776 122.6105,8.4156 C122.4455,8.4541 122.283,8.4731 122.1225,8.4731 C121.849,8.4731 121.62,8.4311 121.4345,8.3476 C121.249,8.2636 121.099,8.1486 120.9825,8.0006 C120.867,7.8536 120.785,7.6756 120.7365,7.4656 C120.687,7.2556 120.663,7.0246 120.663,6.7726 L120.663,3.9476 Z" id="Fill-48"></path>
                    <path d="M127.1513,5.4182 C127.1513,4.8927 127.0413,4.4917 126.8208,4.2157 C126.6003,3.9392 126.2908,3.8007 125.8918,3.8007 C125.7088,3.8007 125.5363,3.8372 125.3713,3.9107 C125.2073,3.9842 125.0588,4.0892 124.9253,4.2262 C124.7918,4.3627 124.6818,4.5302 124.5948,4.7302 C124.5073,4.9292 124.4493,5.1592 124.4213,5.4182 L127.1513,5.4182 Z M123.5813,5.8062 C123.5813,5.3867 123.6463,5.0107 123.7758,4.6772 C123.9048,4.3447 124.0768,4.0627 124.2903,3.8322 C124.5033,3.6017 124.7468,3.4247 125.0203,3.3022 C125.2928,3.1792 125.5763,3.1187 125.8703,3.1187 C126.1923,3.1187 126.4813,3.1742 126.7368,3.2862 C126.9923,3.3982 127.2058,3.5597 127.3768,3.7692 C127.5488,3.9792 127.6803,4.2312 127.7708,4.5252 C127.8623,4.8192 127.9078,5.1482 127.9078,5.5122 C127.9078,5.7012 127.8973,5.8592 127.8758,5.9847 L124.4323,5.9847 C124.4663,6.5377 124.6363,6.9752 124.9413,7.2972 C125.2458,7.6192 125.6433,7.7802 126.1328,7.7802 C126.3778,7.7802 126.6038,7.7432 126.8103,7.6697 C127.0163,7.5962 127.2143,7.5007 127.4033,7.3817 L127.7078,7.9482 C127.4838,8.0887 127.2353,8.2107 126.9623,8.3157 C126.6888,8.4212 126.3778,8.4732 126.0278,8.4732 C125.6848,8.4732 125.3643,8.4122 125.0673,8.2892 C124.7698,8.1672 124.5108,7.9922 124.2903,7.7647 C124.0698,7.5372 123.8963,7.2587 123.7698,6.9297 C123.6443,6.6007 123.5813,6.2267 123.5813,5.8062 L123.5813,5.8062 Z" id="Fill-50"></path>
                    <path d="M129.16795,3.24435 L129.88145,3.24435 L129.95495,4.16785 L129.98645,4.16785 C130.16195,3.84685 130.37345,3.59135 130.62245,3.40135 C130.86995,3.21285 131.14195,3.11885 131.43595,3.11885 C131.63845,3.11885 131.82045,3.15385 131.98195,3.22285 L131.81345,3.97935 C131.72995,3.95185 131.65295,3.93035 131.58295,3.91585 C131.51295,3.90235 131.42545,3.89535 131.32045,3.89535 C131.10345,3.89535 130.87695,3.98285 130.64295,4.15785 C130.40845,4.33285 130.20345,4.63735 130.02845,5.07135 L130.02845,8.34735 L129.16795,8.34735 L129.16795,3.24435 Z" id="Fill-52"></path>
                    <path d="M132.5698,7.1922 C132.7938,7.3742 133.0228,7.5212 133.2578,7.6332 C133.4918,7.7457 133.7628,7.8017 134.0713,7.8017 C134.4068,7.8017 134.6593,7.7247 134.8273,7.5707 C134.9948,7.4167 135.0793,7.2272 135.0793,7.0032 C135.0793,6.8707 135.0443,6.7547 134.9743,6.6572 C134.9043,6.5592 134.8148,6.4737 134.7063,6.4002 C134.5978,6.3267 134.4738,6.2617 134.3333,6.2052 C134.1933,6.1497 134.0543,6.0932 133.9138,6.0377 C133.7318,5.9747 133.5498,5.9027 133.3678,5.8222 C133.1858,5.7422 133.0228,5.6437 132.8793,5.5287 C132.7358,5.4132 132.6183,5.2782 132.5278,5.1242 C132.4363,4.9697 132.3913,4.7842 132.3913,4.5672 C132.3913,4.3647 132.4313,4.1742 132.5118,3.9957 C132.5918,3.8167 132.7083,3.6632 132.8588,3.5332 C133.0088,3.4032 133.1928,3.3027 133.4098,3.2292 C133.6268,3.1557 133.8723,3.1187 134.1448,3.1187 C134.4668,3.1187 134.7623,3.1742 135.0318,3.2862 C135.3018,3.3982 135.5343,3.5347 135.7308,3.6957 L135.3203,4.2417 C135.1453,4.1092 134.9643,4.0007 134.7743,3.9162 C134.5858,3.8322 134.3788,3.7902 134.1548,3.7902 C133.8328,3.7902 133.5968,3.8637 133.4463,4.0107 C133.2963,4.1577 133.2208,4.3297 133.2208,4.5252 C133.2208,4.6447 133.2528,4.7472 133.3148,4.8352 C133.3783,4.9227 133.4618,4.9997 133.5668,5.0662 C133.6723,5.1327 133.7928,5.1917 133.9293,5.2447 C134.0658,5.2967 134.2078,5.3517 134.3548,5.4072 C134.5368,5.4772 134.7208,5.5507 134.9058,5.6277 C135.0913,5.7052 135.2583,5.8012 135.4053,5.9162 C135.5518,6.0317 135.6723,6.1737 135.7673,6.3422 C135.8613,6.5102 135.9083,6.7127 135.9083,6.9512 C135.9083,7.1607 135.8683,7.3572 135.7878,7.5392 C135.7078,7.7212 135.5888,7.8817 135.4308,8.0217 C135.2733,8.1622 135.0778,8.2722 134.8428,8.3527 C134.6088,8.4332 134.3403,8.4732 134.0398,8.4732 C133.6753,8.4732 133.3293,8.4072 133.0003,8.2742 C132.6713,8.1407 132.3843,7.9732 132.1393,7.7697 L132.5698,7.1922 Z" id="Fill-54"></path>
                </g>
                <g id="Group-71" transform="translate(0.000000, 0.019200)">
                    <path d="M58.2125,7.862 L58.2125,23.536 C58.2125,24.921 58.2925,26.214 57.06,27.1905 C55.888,28.1195 53.937,28.4315 51.848,28.4435 C48.6435,28.461 45.26,27.711 45.2595,27.711 L44.4995,29.7275 C44.4995,29.7275 49.2455,30.7205 52.6985,30.796 C55.622,30.8605 58.125,30.193 59.555,28.5745 C60.706,27.2525 61.0365,25.775 60.994,23.2195 L60.994,7.862 L58.2125,7.862 L58.2125,7.862 Z" id="Fill-57" fill="#FFFFFF"></path>
                    <path d="M79.9216,27.50975 C78.2861,28.44075 76.3006,28.91025 74.0216,28.91025 C71.6901,28.91025 69.6886,28.44975 68.0731,27.54025 L68.0726,27.54025 C66.1106,26.44025 65.1571,24.89225 65.1571,22.80675 C65.1571,20.75175 66.1381,19.15825 68.0726,18.07525 C69.6886,17.16375 71.6906,16.70325 74.0216,16.70325 C76.3311,16.70325 78.3276,17.16375 79.9536,18.07525 C81.8686,19.16875 82.8391,20.75925 82.8391,22.80675 C82.8391,24.83275 81.8581,26.41625 79.9216,27.50975 M81.5571,16.51675 C79.4351,15.35875 76.9001,14.77425 74.0216,14.77425 C71.1616,14.77425 68.6276,15.35875 66.4881,16.51525 L66.4871,16.51525 C63.7876,17.98475 62.4181,20.10325 62.4181,22.81425 C62.4181,25.52525 63.7876,27.63975 66.4881,29.09825 C68.6271,30.25475 71.1601,30.84025 74.0216,30.84025 C76.8916,30.84025 79.4201,30.25975 81.5391,29.11325 C84.2181,27.65375 85.5776,25.53675 85.5776,22.81425 C85.5776,20.09575 84.2246,17.97525 81.5571,16.51675" id="Fill-59" fill="#FFFFFF"></path>
                    <path d="M104.5281,27.50975 C102.8921,28.44075 100.9071,28.91025 98.6266,28.91025 C96.2946,28.91025 94.2951,28.44975 92.6786,27.54025 C90.7161,26.44025 89.7626,24.89225 89.7626,22.80675 C89.7626,20.75175 90.7431,19.15825 92.6786,18.07525 C94.2951,17.16375 96.2961,16.70325 98.6266,16.70325 C100.9371,16.70325 102.9316,17.16375 104.5596,18.07525 C106.4741,19.16875 107.4461,20.75925 107.4461,22.80675 C107.4461,24.83275 106.4631,26.41625 104.5281,27.50975 M106.1631,16.51675 C104.0411,15.35875 101.5061,14.77425 98.6266,14.77425 C95.7681,14.77425 93.2336,15.35875 91.0941,16.51525 L91.0926,16.51525 C88.3936,17.98475 87.0246,20.10325 87.0246,22.81425 C87.0246,25.52525 88.3941,27.63975 91.0941,29.09825 C93.2336,30.25475 95.7666,30.84025 98.6266,30.84025 C101.4961,30.84025 104.0246,30.25975 106.1441,29.11325 C108.8256,27.65375 110.1821,25.53675 110.1821,22.81425 C110.1821,20.09425 108.8301,17.97525 106.1631,16.51675" id="Fill-61" fill="#FFFFFF"></path>
                    <path d="M140.10905,16.1251 C138.59705,15.2286 136.66055,14.7741 134.35405,14.7741 C131.42105,14.7741 129.04155,15.6966 127.26405,17.4876 C125.54705,15.6966 123.17905,14.7741 120.19705,14.7741 C117.79305,14.7741 115.83205,15.2791 114.32455,16.2441 L114.32455,14.9981 L111.67555,14.9981 L111.67555,30.5701 L114.32455,30.5701 L114.32455,19.9136 C114.50205,19.1471 115.01005,18.4406 115.82905,17.8571 C116.91455,17.0921 118.35055,16.7036 120.09605,16.7036 C121.64005,16.7036 122.96655,17.0221 124.04005,17.6466 C125.32405,18.3796 125.94655,19.4056 125.94655,20.7846 L125.94655,30.5701 L128.55155,30.5701 L128.55155,20.7846 C128.55155,19.4041 129.17105,18.3716 130.44805,17.6311 C131.53505,17.0161 132.87705,16.7036 134.43805,16.7036 C135.99505,16.7036 137.33305,17.0221 138.41305,17.6481 C139.68905,18.3796 140.30905,19.4056 140.30905,20.7846 L140.30905,30.5701 L142.95705,30.5701 L142.95705,21.1491 C142.95705,18.9316 141.99905,17.2396 140.10905,16.1251" id="Fill-63" fill="#FFFFFF"></path>
                    <mask id="mask-2" fill="white">
                        <use xlink:href="#path-1"></use>
                    </mask>
                    <g id="Clip-66"></g>
                    <polygon id="Fill-65" fill="#FFFFFF" mask="url(#mask-2)" points="145.0895 30.57 147.7375 30.57 147.7375 7.862 145.0895 7.862"></polygon>
                    <polygon id="Fill-67" fill="#FFFFFF" mask="url(#mask-2)" points="177.265 25.4485 179.913 25.4485 179.913 7.862 177.265 7.862"></polygon>
                    <path d="M152.61465,22.8068 C152.61465,20.7428 153.59365,19.1458 155.52415,18.0593 C157.14215,17.1603 159.15465,16.7033 161.50165,16.7033 C164.40365,16.7033 166.67165,17.4118 168.24865,18.8093 C169.63715,20.0428 170.34215,21.6498 170.34215,23.5853 L170.34215,25.4293 C169.23065,26.6568 167.60715,27.6273 165.51365,28.3033 C164.28315,28.7068 162.93315,28.9103 161.50165,28.9103 C159.11365,28.9103 157.09615,28.4648 155.50815,27.5853 C153.56265,26.4953 152.61465,24.9323 152.61465,22.8068 M170.34215,14.9978 L170.34215,17.6633 C168.07265,15.7638 165.08315,14.7743 161.41465,14.7743 C158.44665,14.7743 155.89515,15.3403 153.83165,16.4548 C151.20665,17.8813 149.87765,20.0238 149.87765,22.8143 C149.87765,25.5683 151.23815,27.6928 153.92665,29.1298 C156.03765,30.2638 158.58915,30.8403 161.50715,30.8403 C162.97115,30.8403 164.39015,30.6663 165.71815,30.3243 C167.59115,29.8398 169.13615,29.1118 170.34215,28.1723 L170.34215,30.5703 L172.99165,30.5703 L172.99165,14.9978 L170.34215,14.9978" id="Fill-68" fill="#FFFFFF" mask="url(#mask-2)"></path>
                    <path d="M178.60535,27.6536 C176.76285,27.6536 176.48735,28.6101 176.48735,29.1786 C176.48735,29.7666 176.76285,30.7496 178.60535,30.7496 C180.43385,30.7496 180.70785,29.7666 180.70785,29.1786 C180.70785,28.6101 180.43385,27.6536 178.60535,27.6536" id="Fill-69" fill="#FFFFFF" mask="url(#mask-2)"></path>
                    <path d="M185.61065,9.68465 C186.26915,9.68465 186.26165,10.62115 185.59565,10.62115 L184.81215,10.62115 L184.81215,9.68465 L185.61065,9.68465 Z M185.88165,11.01615 C186.98865,10.82965 186.87265,9.18115 185.61065,9.18115 L184.27965,9.18115 L184.27965,12.08465 L184.81215,12.08465 L184.81215,11.07715 L185.31665,11.07715 L186.12265,12.08465 L186.71015,12.08465 L186.71015,11.97665 L185.88165,11.00865 L185.88165,11.01615 Z M183.14065,10.66015 C183.14065,11.94515 183.93915,12.96765 185.34715,12.96765 C186.75665,12.96765 187.56215,11.94515 187.56215,10.66815 C187.56215,9.38215 186.75665,8.36015 185.34715,8.36015 C183.93915,8.36015 183.14065,9.38215 183.14065,10.67565 L183.14065,10.66015 Z M188.14265,10.67565 C188.14265,12.20915 187.14415,13.50165 185.34715,13.50165 C183.55865,13.50165 182.55165,12.20915 182.55165,10.67565 C182.55165,9.13415 183.55865,7.84865 185.34715,7.84865 C187.14415,7.84865 188.14265,9.13415 188.14265,10.67565 L188.14265,10.67565 Z" id="Fill-70" fill="#FFFFFF" mask="url(#mask-2)"></path>
                </g>
                <g id="Group-82" transform="translate(0.000000, 0.019200)">
                    <g id="Group-74">
                        <mask id="mask-4" fill="white">
                            <use xlink:href="#path-3"></use>
                        </mask>
                        <g id="Clip-73"></g>
                        <path d="M6.7451,19.34575 L6.0246,18.62675 C3.7921,16.39375 3.1006,13.20325 3.9466,10.37475 C1.7146,9.87025 0.0471,7.87475 0.0471,5.48925 C0.0481,2.72375 2.2896,0.48075 5.0551,0.48075 C7.5451,0.48225 9.6086,2.29875 9.9971,4.67775 C12.6996,4.04475 15.6566,4.78125 17.7631,6.88825 L18.0511,7.17575 L14.3546,10.86975 L14.0681,10.58175 C12.8686,9.38325 10.9246,9.38325 9.7246,10.58325 C8.5211,11.78675 8.5241,13.73675 9.7186,14.93175 L10.4416,15.65325 L14.1376,19.34575 L18.0471,23.25375 L14.3546,26.94925 L10.4416,23.04075 L6.7451,19.34575 Z" id="Fill-72" fill="#7AC142" mask="url(#mask-4)"></path>
                    </g>
                    <path d="M10.8791,15.2155 L14.7911,11.306 L18.4876,7.6135 L19.2091,6.8945 C21.4331,4.6705 24.6036,3.97 27.4201,4.798 C27.7571,2.359 29.8501,0.481 32.3821,0.481 C35.1471,0.481 37.3901,2.7225 37.3901,5.489 C37.3901,8.031 35.4956,10.1315 33.0416,10.4545 C33.8481,13.2615 33.1451,16.409 30.9351,18.6205 L30.6471,18.909 L26.9546,15.213 L27.2401,14.9265 C28.4396,13.727 28.4396,11.7815 27.2411,10.583 C26.0451,9.3885 24.1061,9.386 22.9016,10.5895 L22.1811,11.31 L18.4851,15.0035 L14.5756,18.909 L10.8791,15.2155 Z" id="Fill-75" fill="#F9A541"></path>
                    <path d="M27.52,33.8622 C24.678,34.7362 21.4585,34.0487 19.209,31.7997 L18.925,31.5172 L22.6175,27.8207 L22.9015,28.1047 C24.1025,29.3042 26.048,29.3042 27.2465,28.1057 C28.441,26.9097 28.4435,24.9707 27.24,23.7662 L26.517,23.0432 L22.8245,19.3457 L18.9215,15.4402 L22.6175,11.7477 L26.517,15.6507 L30.2095,19.3457 L30.935,20.0737 C33.0595,22.1982 33.7935,25.1867 33.1325,27.9052 C35.566,28.2472 37.437,30.3377 37.437,32.8642 C37.437,35.6307 35.194,37.8712 32.4285,37.8712 C30.004,37.8712 27.983,36.1507 27.52,33.8622" id="Fill-77" fill="#F44321"></path>
                    <g id="Group-81" transform="translate(0.000000, 19.500000)">
                        <mask id="mask-6" fill="white">
                            <use xlink:href="#path-5"></use>
                        </mask>
                        <g id="Clip-80"></g>
                        <path d="M26.0794,3.98105 L22.1814,7.88405 L18.4874,11.58055 L17.7634,12.30455 C15.6299,14.43905 12.6214,15.16455 9.8899,14.48705 C9.3804,16.71255 7.3874,18.37005 5.0084,18.37155 C2.2419,18.37155 -0.0006,16.12955 -0.0001,13.36455 C-0.0001,10.99655 1.6439,9.01105 3.8519,8.48955 C3.1534,5.74605 3.8774,2.71455 6.0249,0.56755 L6.3074,0.28455 L10.0039,3.97855 L9.7184,4.26255 C8.5189,5.46205 8.5199,7.40505 9.7199,8.60605 C10.9234,9.80955 12.8724,9.80705 14.0684,8.61105 L14.7914,7.88655 L18.4849,4.19155 L22.3869,0.28455 L26.0794,3.98105 Z" id="Fill-79" fill="#5091CD" mask="url(#mask-6)"></path>
                    </g>
                </g>
            </g>
        </g>
    </g>
</svg>