<?xml version="1.0" encoding="UTF-8" standalone="no"?>
<svg width="45px" height="45px" viewBox="0 0 45 45" version="1.1" xmlns="http://www.w3.org/2000/svg" xmlns:xlink="http://www.w3.org/1999/xlink">
    <!-- Generator: Sketch 3.8.3 (29802) - http://www.bohemiancoding.com/sketch -->
    <title>Group 2</title>
    <desc>Created with Sketch.</desc>
    <defs>
        <polygon id="path-1" points="13.4765716 0.359104484 0.0351638695 0.359104484 0.0351638695 20.1197433 13.4765716 20.1197433 13.4765716 0.359104484"></polygon>
        <polygon id="path-3" points="5.05901588e-21 0.212439046 5.05901588e-21 13.7158129 19.4703316 13.7158129 19.4703316 0.212439046 0 0.212439046"></polygon>
    </defs>
    <g id="Page-1" stroke="none" stroke-width="1" fill="none" fill-rule="evenodd">
        <g id="Wordpress" transform="translate(-1290.000000, -35.000000)">
            <g id="nav" transform="translate(1220.000000, 35.000000)">
                <g id="Group-2" transform="translate(70.000000, 0.000000)">
                    <circle id="Oval-2" fill="#FFFFFF" cx="22.5" cy="22.5" r="22.5"></circle>
                    <g id="Group-82" transform="translate(9.000000, 8.000000)">
                        <g id="Group-74">
                            <mask id="mask-2" fill="white">
                                <use xlink:href="#path-1"></use>
                            </mask>
                            <g id="Clip-73"></g>
                            <path d="M5.03574981,14.4431301 L4.49783966,13.9063398 C2.83110211,12.239229 2.31484275,9.85726878 2.94644856,7.74557016 C1.2800843,7.36892107 0.0351638695,5.87912274 0.0351638695,4.09815861 C0.0359104484,2.03349447 1.70936721,0.35891784 3.77403135,0.35891784 C5.63301298,0.360037708 7.17357869,1.71619841 7.46362462,3.49230977 C9.48125428,3.01972529 11.6888883,3.5695807 13.2615569,5.14262259 L13.4765716,5.35726404 L10.7168425,8.11512675 L10.5029476,7.90011201 C9.60742613,7.00533712 8.15607661,7.00533712 7.26018185,7.90123188 C6.36167406,8.79973967 6.36391379,10.2555687 7.25570237,11.1477305 L7.79547897,11.6863873 L10.5548348,14.4431301 L13.4735853,17.3607607 L10.7168425,20.1197433 L7.79547897,17.2017394 L5.03574981,14.4431301 Z" id="Fill-72" fill="#7AC142" mask="url(#mask-2)"></path>
                        </g>
                        <path d="M8.12210727,11.3595723 L11.0427242,8.44082183 L13.8024534,5.68407898 L14.3411101,5.1472887 C16.0015017,3.48689708 18.3685303,2.96391851 20.47127,3.5820859 C20.7228671,1.76117979 22.2854569,0.359104484 24.1757948,0.359104484 C26.2400857,0.359104484 27.9146623,2.03256124 27.9146623,4.09797196 C27.9146623,5.9957757 26.5002685,7.56396483 24.6681637,7.80510984 C25.2702796,9.900757 24.7454346,12.2506143 23.0954951,13.9016737 L22.8804803,14.1170617 L20.1237375,11.3577059 L20.3368858,11.143811 C21.2324073,10.2482895 21.2324073,8.79582013 20.3376324,7.90104523 C19.4447239,7.00925665 17.9971073,7.00739021 17.0978529,7.905898 L16.5599428,8.44380814 L13.8005869,11.2012976 L10.8818364,14.1170617 L8.12210727,11.3595723 Z" id="Fill-75" fill="#F9A541"></path>
                        <path d="M20.5458532,25.2808064 C18.4240758,25.9333164 16.0204648,25.4200434 14.3410354,23.7409873 L14.129007,23.5300787 L16.8857498,20.7703495 L17.0977783,20.982378 C17.9944196,21.8778994 19.446889,21.8778994 20.3416639,20.9831245 C21.2334525,20.0902161 21.2353189,18.6425995 20.3368111,17.7433451 L19.7970345,17.2035685 L17.0402917,14.4430928 L14.126394,11.5273286 L16.8857498,8.77058576 L19.7970345,11.6844835 L22.5537774,14.4430928 L23.0954204,14.9866023 C24.6815274,16.5727093 25.2295164,18.8038605 24.7360277,20.8334355 C26.5528276,21.0887655 27.9496769,22.6494888 27.9496769,24.5357206 C27.9496769,26.6011313 26.2751003,28.2738415 24.2104361,28.2738415 C22.4003554,28.2738415 20.8915193,26.9893524 20.5458532,25.2808064" id="Fill-77" fill="#F44321"></path>
                        <g id="Group-81" transform="translate(0.000000, 14.558290)">
                            <mask id="mask-4" fill="white">
                                <use xlink:href="#path-3"></use>
                            </mask>
                            <g id="Clip-80"></g>
                            <path d="M19.4703316,2.97216821 L16.5601668,5.88606592 L13.802304,8.64579508 L13.2617809,9.18631826 C11.6689546,10.7798911 9.42287181,11.3215341 7.38359135,10.8157269 C7.00320937,12.4772384 5.51527748,13.714693 3.73916611,13.7158129 C1.67375539,13.7158129 -0.000447947382,12.0419828 -7.46578969e-05,9.97769197 C-7.46578969e-05,8.20979297 1.22730117,6.72746042 2.87574753,6.33811949 C2.35426212,4.28988009 2.8947853,2.02662594 4.49806363,0.423720894 L4.70897219,0.212439046 L7.46870135,2.97030176 L7.25555306,3.18233019 C6.36003158,4.07785166 6.36077816,5.5284546 7.25667293,6.42509594 C8.15518071,7.32360373 9.61026313,7.32173728 10.5031716,6.42882883 L11.0429482,5.88793237 L13.8004376,3.12932308 L16.7135887,0.212439046 L19.4703316,2.97216821 Z" id="Fill-79" fill="#5091CD" mask="url(#mask-4)"></path>
                        </g>
                    </g>
                </g>
            </g>
        </g>
    </g>
</svg>