<?xml version="1.0" encoding="UTF-8" standalone="no"?>
<svg width="195px" height="45px" viewBox="0 0 195 45" version="1.1" xmlns="http://www.w3.org/2000/svg" xmlns:xlink="http://www.w3.org/1999/xlink">
    <!-- Generator: Sketch 3.8.3 (29802) - http://www.bohemiancoding.com/sketch -->
    <title>Group 4</title>
    <desc>Created with Sketch.</desc>
    <defs></defs>
    <g id="Page-1" stroke="none" stroke-width="1" fill="none" fill-rule="evenodd">
        <g id="Prestashop" transform="translate(-35.000000, -36.000000)">
            <g id="Group-4" transform="translate(35.000000, 36.000000)">
                <g id="prestashop">
                    <g id="Group">
                        <path d="M14.5861523,34.52625 C14.9454492,34.3662891 15.3094922,34.2191602 15.676875,34.0811719 C16.0917187,33.9252539 16.5099023,33.7786523 16.9337109,33.6510352 C17.4612305,33.4921289 17.9931445,33.3483398 18.5322656,33.2339063 C19.2591211,33.0795703 19.9945898,32.9653125 20.7355078,32.893418 C20.3199609,34.2 19.8606445,35.4991992 19.3630078,36.7901367 C19.3842773,37.0400977 19.3957031,37.2916406 19.4023828,37.5438867 C20.4046875,37.3461328 21.4396875,37.2403125 22.5,37.2403125 C23.5601367,37.2403125 24.5953125,37.3461328 25.5976172,37.5438867 C25.6042969,37.2916406 25.6157227,37.0400977 25.6369922,36.7901367 C25.1391797,35.4991992 24.6800391,34.2 24.2644922,32.893418 C25.0054102,32.9653125 25.7408789,33.0795703 26.4677344,33.2339063 C27.0066797,33.3483398 27.5385937,33.4921289 28.0661133,33.6510352 C28.4900977,33.7786523 28.9082812,33.9252539 29.323125,34.0811719 C29.6906836,34.2193359 30.0549023,34.3664648 30.4141992,34.5264258 C32.9637305,35.6617969 35.2879102,37.3457813 37.194082,39.5310938 C41.9718164,35.405332 45,29.3081836 45,22.5 C45,10.0736719 34.9263281,0 22.5,0 C10.0736719,0 0,10.0736719 0,22.5 C0,29.3081836 3.02818359,35.4051563 7.80591797,39.5310938 C9.71208984,37.3457813 12.0366211,35.6616211 14.5861523,34.52625" id="Shape" fill="#A5DBE8"></path>
                        <path d="M30.4141992,34.5264258 L31.810957,39.3292969 L32.207168,39.3479297 C32.4643359,39.3479297 32.6452148,39.4156055 32.6452148,39.6727734 C32.6452148,40.1002734 32.6673633,40.5806836 32.7083203,41.0000977 C33.0563672,41.2955859 33.4801758,41.6288672 33.8015039,41.9526563 C35.0085938,41.2498828 36.1432617,40.4384766 37.194082,39.5310938 C35.2879102,37.3457813 32.9637305,35.6617969 30.4141992,34.5264258" id="Shape" fill="#525353"></path>
                        <path d="M27.6830859,34.4784375 L29.323125,34.0811719 C28.9082812,33.9252539 28.4900977,33.7786523 28.0661133,33.6510352 C27.5385937,33.4921289 27.0066797,33.3483398 26.4677344,33.2339062 C25.7408789,33.0795703 25.0054102,32.9653125 24.2644922,32.893418 C24.6800391,34.2 25.1391797,35.4991992 25.6369922,36.7901367 C25.6157227,37.0400977 25.6042969,37.2916406 25.5976172,37.5438867 C26.759707,37.7731055 27.9022852,38.1714258 28.9587305,38.6386523 L27.6830859,34.4784375" id="Shape" fill="#525353"></path>
                        <path d="M11.1984961,41.9526563 C11.459707,42.1048828 11.7235547,42.253418 11.9917969,42.3952734 C12.0856641,41.9443945 12.2357813,41.319668 12.2811328,40.8557813 C11.9330859,41.1512695 11.5198242,41.6288672 11.1984961,41.9526563" id="Shape" fill="#000000"></path>
                        <path d="M28.9313086,38.597168 C27.8750391,38.1299414 26.759707,37.7731055 25.5976172,37.5438867 C24.5953125,37.3461328 23.5601367,37.2403125 22.5,37.2403125 C21.4396875,37.2403125 20.4046875,37.3461328 19.4023828,37.5438867 C18.2404688,37.7729297 17.0281055,38.1204492 15.9720117,38.5875 L15.8596875,39.2872852 L29.1406641,39.2872852 L28.9313086,38.597168" id="Shape" fill="#000000"></path>
                        <path d="M12.24,40.9890234 C12.2811328,40.5696094 12.3108398,40.1957227 12.3108398,39.7680469 C12.3108398,39.5110547 12.4871484,39.3463477 12.7443164,39.3463477 L13.1660156,39.331582 L14.5861523,34.52625 C12.0366211,35.6616211 9.71208984,37.3457812 7.80591797,39.5310937 C8.85673828,40.4384766 9.99140625,41.2498828 11.1984961,41.9526562 C11.5198242,41.6288672 11.8545117,41.3182617 12.2025586,41.0227734" id="Shape" fill="#525353"></path>
                        <path d="M32.8800586,41.8438477 C32.9711133,42.3008789 32.9916797,42.3919336 33.0082031,42.3952734 C33.2764453,42.253418 33.5401172,42.1048828 33.8015039,41.9526562 C33.4801758,41.6288672 33.1351172,41.3078906 32.7868945,41.0124023 L32.8800586,41.8438477" id="Shape" fill="#000000"></path>
                        <path d="M28.9313086,38.597168 L29.1406641,39.2872852 L31.8571875,39.2872852 L30.4141992,34.5264258 C30.0549023,34.3664648 29.6906836,34.2193359 29.323125,34.0811719 L27.6830859,34.4784375 L28.9313086,38.597168" id="Shape" fill="#AA9678"></path>
                        <path id="Shape" fill="#C4B6A1"></path>
                        <path id="Shape" fill="#AA9678"></path>
                        <path d="M31.7608594,40.1491406 L22.4806641,40.1596875 L22.5,45 C25.95375,45 29.2246875,44.219707 32.1491602,42.8289258 C31.9582617,41.9900977 31.9391016,41.086582 31.9079883,40.2073242 C31.8939258,40.1971289 31.7608594,40.1491406 31.7608594,40.1491406" id="Shape" fill="#AA9678"></path>
                        <path d="M22.4850586,40.1797266 C22.4850586,40.1797266 13.1537109,40.1679492 13.1394727,40.1779687 C13.1085352,41.0574023 12.9271289,42.1008398 12.8508398,42.8289258 C15.7753125,44.219707 19.04625,45 22.5,45 L22.5052734,40.1953711 L22.4850586,40.1797266" id="Shape" fill="#C4B6A1"></path>
                        <polygon id="Shape" fill="#786453" points="22.5 39.7529297 22.501 39.7529297 22.501 40.2529297 22.5 40.2529297"></polygon>
                        <path id="Shape" fill="#525353"></path>
                        <path d="M29.4598828,36.590625 C29.4598828,36.590625 29.4614648,36.5957227 29.4646289,36.6052148 C29.4614648,36.5957227 29.4598828,36.590625 29.4598828,36.590625 C29.4598828,36.590625 29.2317188,36.4097461 28.942207,36.0766406 C29.2317188,36.4097461 29.4598828,36.590625 29.4598828,36.590625" id="Shape" fill="#AA9678"></path>
                        <polyline id="Shape" fill="#FFFFFF" points="36.3174609 16.2330469 36.3174609 16.2390469 36.3174609 16.2330469"></polyline>
                        <path id="Shape" fill="#FFFFFF"></path>
                        <path id="Shape" fill="#BBBCBD"></path>
                        <path d="M37.2153516,22.3539258 C37.2160547,22.3599023 37.2178125,22.3651758 37.2185156,22.3711523 C37.219043,22.3748438 37.2200977,22.3781836 37.220625,22.3816992 L37.220625,22.3831055 C37.2313477,22.4690625 37.2353906,22.5588867 37.2373242,22.6494141 C37.2376758,22.6661133 37.2404883,22.6817578 37.2404883,22.6982812 C37.2404883,22.7005664 37.2406641,22.7023242 37.2406641,22.7044336 C37.2406641,22.7067187 37.2404883,22.7088281 37.2404883,22.7111133 C37.2403125,22.729043 37.2373242,22.7457422 37.2371484,22.7634961 C37.2350391,22.8522656 37.2311719,22.940332 37.2208008,23.024707 L37.2208008,23.0259375 C37.2200977,23.030332 37.219043,23.034375 37.2183398,23.0387695 C37.2176367,23.045625 37.2155273,23.0517773 37.2146484,23.058457 C37.2019922,23.1505664 37.1858203,23.2398633 37.1641992,23.3247656 C37.1640234,23.325293 37.1640234,23.3256445 37.1638477,23.3259961 L37.1638477,23.3261719 L37.1670117,23.3226563 C37.1673633,23.32125 37.1678906,23.3200195 37.1682422,23.3186133 L37.1682422,23.3187891 L37.7571094,22.7023242 L37.1634961,22.0809375 C37.1634961,22.0812891 37.1634961,22.0818164 37.1636719,22.082168 C37.1858203,22.1688281 37.2026953,22.2598828 37.2153516,22.3539258" id="Shape" fill="#676A6A"></path>
                        <path d="M37.2146484,23.058457 C37.2162305,23.0468555 37.2192188,23.0364844 37.2208008,23.024707 C37.2311719,22.940332 37.2350391,22.8522656 37.2371484,22.7634961 C37.2373242,22.743457 37.2404883,22.7246484 37.2404883,22.7044336 C37.2404883,22.685625 37.2376758,22.6680469 37.2373242,22.6494141 C37.2353906,22.5588867 37.2313477,22.4690625 37.220625,22.3831055 C37.2192188,22.3729102 37.216582,22.3639453 37.2153516,22.3539258 C37.2026953,22.2598828 37.1858203,22.1688281 37.1636719,22.082168 C37.1559375,22.0519336 37.1452148,22.0250391 37.13625,21.9958594 C37.0829883,21.8197266 37.0103906,21.6641602 36.9242578,21.5349609 C36.9126563,21.5177344 36.9008789,21.5010352 36.8889258,21.4848633 C36.8651953,21.4530469 36.8414648,21.4221094 36.8163281,21.3943359 C36.7790625,21.354082 36.7405664,21.3169922 36.6999609,21.2862305 C36.6844922,21.2744531 36.6681445,21.2661914 36.6523242,21.2559961 C36.617168,21.2333203 36.5813086,21.213457 36.5442188,21.1983398 C36.5283984,21.1920117 36.5124023,21.1856836 36.4962305,21.1805859 C36.4438477,21.1644141 36.3902344,21.1528125 36.3350391,21.1528125 C36.2798438,21.1528125 36.2264063,21.1644141 36.1738477,21.1805859 C36.1576758,21.1856836 36.1416797,21.1920117 36.1258594,21.1985156 C36.0887695,21.213457 36.0529102,21.2333203 36.0175781,21.2559961 C36.0021094,21.2661914 35.9855859,21.2742773 35.970293,21.2860547 C35.9296875,21.3169922 35.8910156,21.354082 35.85375,21.3943359 C35.8286133,21.4221094 35.8048828,21.4530469 35.7815039,21.4845117 C35.7691992,21.5010352 35.7574219,21.5177344 35.7458203,21.5351367 C35.6596875,21.6643359 35.5869141,21.8199023 35.5338281,21.9960352 C35.5317188,22.0030664 35.5292578,22.0099219 35.5271484,22.0171289 C35.5035938,22.0979883 35.4853125,22.1830664 35.4700195,22.2704297 C35.4654492,22.2971484 35.4592969,22.3228125 35.4556055,22.3502344 C35.441543,22.4479688 35.4343359,22.5499219 35.4325781,22.6543359 C35.4324023,22.66875 35.4301172,22.6824609 35.4301172,22.696875 L35.4336328,22.696875 C35.4336328,23.5539844 35.8391602,24.2486719 36.3392578,24.2486719 C36.4253906,24.2486719 36.5081836,24.2261719 36.5871094,24.1876758 C36.5997656,24.1813477 36.6122461,24.1748437 36.6247266,24.1676367 C36.6574219,24.1488281 36.6895898,24.1282617 36.7203516,24.1034766 C36.7374023,24.0897656 36.7533984,24.0732422 36.7697461,24.0577734 C36.8096484,24.0205078 36.8476172,23.9783203 36.8836523,23.9313867 C36.9086133,23.8985156 36.9332227,23.8656445 36.9560742,23.8289062 C36.9706641,23.8055273 36.9840234,23.7802148 36.9975586,23.7552539 C37.0228711,23.7084961 37.0467773,23.6598047 37.0683984,23.608125 C37.0764844,23.5894922 37.0847461,23.5713867 37.0921289,23.5522266 C37.1197266,23.480332 37.1438086,23.4043945 37.1641992,23.3247656 C37.1858203,23.2398633 37.2019922,23.1505664 37.2146484,23.058457 L37.2146484,23.058457 L37.2146484,23.058457 Z M36.3675586,22.4978906 C36.18,22.4978906 36.0279492,22.237207 36.0279492,21.9158789 C36.0279492,21.5947266 36.18,21.334043 36.3675586,21.334043 C36.5551172,21.334043 36.7069922,21.5947266 36.7069922,21.9158789 C36.7069922,22.237207 36.5551172,22.4978906 36.3675586,22.4978906 L36.3675586,22.4978906 L36.3675586,22.4978906 Z" id="Shape" fill="#000000"></path>
                        <path d="M36.3675586,21.334043 C36.18,21.334043 36.0279492,21.5947266 36.0279492,21.9158789 C36.0279492,22.237207 36.18,22.4978906 36.3675586,22.4978906 C36.5551172,22.4978906 36.7069922,22.237207 36.7069922,21.9158789 C36.7069922,21.5947266 36.5551172,21.334043 36.3675586,21.334043" id="Shape" fill="#FFFFFF"></path>
                        <path d="M35.5338281,21.9960352 L35.5338281,21.9960352 C35.5869141,21.8199023 35.6596875,21.6643359 35.7458203,21.5351367 C35.7574219,21.5175586 35.7691992,21.5012109 35.7815039,21.4845117 C35.8048828,21.4530469 35.8286133,21.4221094 35.85375,21.3943359 C35.8910156,21.3537305 35.9296875,21.317168 35.970293,21.2860547 C35.9855859,21.2742773 36.0021094,21.2661914 36.0175781,21.2559961 C36.0527344,21.2329688 36.0887695,21.2138086 36.1258594,21.1985156 C36.1416797,21.1920117 36.1576758,21.1856836 36.1738477,21.1805859 C36.2262305,21.1640625 36.2798438,21.1528125 36.3350391,21.1528125 C36.3902344,21.1528125 36.4438477,21.1640625 36.4962305,21.1805859 C36.5124023,21.1856836 36.5283984,21.1920117 36.5442188,21.1983398 C36.5813086,21.2138086 36.617168,21.2329688 36.6523242,21.2559961 C36.6681445,21.2661914 36.6844922,21.2744531 36.6999609,21.2862305 C36.7403906,21.317168 36.7790625,21.3537305 36.8163281,21.3943359 C36.8414648,21.4221094 36.8651953,21.4530469 36.8889258,21.4848633 C36.9008789,21.5012109 36.9126563,21.5175586 36.9242578,21.5349609 C37.0103906,21.6641602 37.0829883,21.8197266 37.13625,21.9958594 L37.13625,21.9962109 L36.3350391,18.3264258 L35.5336523,21.9960352 L35.5338281,21.9960352" id="Shape" fill="#909393"></path>
                        <path d="M25.7166211,22.6701562 C25.7155664,22.5963281 25.7108203,22.5233789 25.7025586,22.4516602 C25.7023828,22.4507812 25.7020313,22.4497266 25.7020313,22.4486719 C25.6935938,22.3780078 25.6818164,22.3082227 25.6666992,22.2398437 C25.6661719,22.2380859 25.6656445,22.2365039 25.665293,22.2345703 C25.6501758,22.1668945 25.6317188,22.1004492 25.6102734,22.0352344 C25.6097461,22.0338281 25.609043,22.0324219 25.6085156,22.0308398 C25.5868945,21.965625 25.5622852,21.9018164 25.5343359,21.8395898 C25.5339844,21.8383594 25.5331055,21.8371289 25.5325781,21.8357227 C25.5046289,21.7733203 25.4736914,21.7123242 25.4399414,21.6532617 C25.3369336,21.4727344 25.2084375,21.309082 25.0590234,21.1666992 C24.8693555,20.9861719 24.6462891,20.8400977 24.4003711,20.7388477 C24.3984375,20.7381445 24.3961523,20.7374414 24.3942188,20.7365625 C24.2729297,20.687168 24.1461914,20.6484961 24.0148828,20.6221289 C24.011543,20.6216016 24.0083789,20.6214258 24.0050391,20.6207227 C23.8733789,20.5948828 23.7376758,20.5808203 23.598457,20.5808203 C23.4615234,20.5808203 23.328457,20.5948828 23.1989063,20.619668 C23.1943359,20.6205469 23.1897656,20.6208984 23.1851953,20.6217773 C23.0563477,20.6474414 22.9320703,20.6850586 22.8127148,20.7328711 C22.8097266,20.7341016 22.8063867,20.7351562 22.8032227,20.7365625 C22.6822852,20.7857812 22.5667969,20.8457227 22.4583398,20.9155078 C22.4578125,20.9158594 22.4574609,20.9160352 22.4571094,20.9160352 C22.3475977,20.9866992 22.2447656,21.0670312 22.1501953,21.1558008 L22.1479102,21.1630078 L22.14,21.1647656 C21.9890039,21.3083789 21.8591016,21.4739648 21.7552148,21.6558984 C21.7541602,21.6580078 21.7527539,21.6601172 21.7513477,21.6624023 C21.719707,21.718125 21.6910547,21.7761328 21.6646875,21.8351953 C21.661875,21.8415234 21.6583594,21.8475 21.6557227,21.8538281 C21.6316406,21.9084961 21.6108984,21.9650977 21.5915625,22.0220508 C21.5878711,22.0333008 21.5829492,22.0438477 21.5794336,22.0549219 C21.5625586,22.1081836 21.5488477,22.1628516 21.5358398,22.2175195 C21.5325,22.2333398 21.5274023,22.248457 21.5240625,22.2641016 C21.5128125,22.3182422 21.5050781,22.3736133 21.4978711,22.4291602 C21.4957617,22.4462109 21.4920703,22.4625586 21.4903125,22.4796094 C21.4827539,22.552207 21.4785352,22.6258594 21.4785352,22.7007422 C21.4785352,22.8410156 21.4929492,22.9777734 21.5191406,23.1103125 C21.5194922,23.1129492 21.519668,23.1159375 21.5203711,23.11875 C21.5469141,23.2511133 21.5859375,23.3787305 21.6360352,23.5008984 C21.6367383,23.5026563 21.6370898,23.5044141 21.6379688,23.5059961 C21.7399219,23.7531445 21.8874023,23.9769141 22.0696875,24.1669336 C22.2138281,24.3172266 22.3797656,24.4460742 22.5622266,24.549082 C22.5631055,24.5496094 22.5639844,24.5501367 22.5648633,24.5506641 C22.6218164,24.5826563 22.6807031,24.6114844 22.7406445,24.6382031 C22.7455664,24.6403125 22.7503125,24.643125 22.7554102,24.6452344 C22.810957,24.6694922 22.8684375,24.6904102 22.9262695,24.7099219 C22.9361133,24.7132617 22.9456055,24.7174805 22.9554492,24.7206445 C23.0088867,24.7376953 23.064082,24.7514062 23.1192773,24.7640625 C23.1342188,24.7675781 23.1486328,24.7725 23.16375,24.7756641 C23.2173633,24.7867383 23.2725586,24.7942969 23.3281055,24.8015039 C23.3448047,24.8034375 23.3613281,24.8073047 23.3783789,24.8090625 C23.450625,24.8166211 23.5241016,24.8206641 23.598457,24.8206641 C23.8911328,24.8206641 24.1699219,24.76125 24.4235742,24.6538477 C24.5503125,24.6004102 24.6708984,24.5348438 24.7835742,24.4585547 C25.0092773,24.3061523 25.2038672,24.1113867 25.3562695,23.8860352 C25.4323828,23.7731836 25.498125,23.6527734 25.5517383,23.5258594 C25.6589648,23.272207 25.7183789,22.993418 25.7183789,22.7007422 C25.7183789,22.6956445 25.7176758,22.6908984 25.7176758,22.6861523 C25.7175,22.6807031 25.7167969,22.6756055 25.7166211,22.6701562 L25.7166211,22.6701562 L25.7166211,22.6701562 Z M23.598457,22.4217773 C23.1586523,22.4217773 22.802168,22.0651172 22.802168,21.6253125 C22.802168,21.1855078 23.1586523,20.8290234 23.598457,20.8290234 C24.0382617,20.8290234 24.3947461,21.1855078 24.3947461,21.6253125 C24.3947461,22.0651172 24.0382617,22.4217773 23.598457,22.4217773 L23.598457,22.4217773 L23.598457,22.4217773 Z" id="Shape" fill="#000000"></path>
                        <path d="M23.598457,20.8290234 C23.1586523,20.8290234 22.802168,21.1855078 22.802168,21.6253125 C22.802168,22.0651172 23.1586523,22.4217773 23.598457,22.4217773 C24.0382617,22.4217773 24.3947461,22.0651172 24.3947461,21.6253125 C24.3947461,21.1855078 24.0382617,20.8290234 23.598457,20.8290234" id="Shape" fill="#FFFFFF"></path>
                        <path d="M22.14,21.1647656 L22.14,21.1647656 L22.1479102,21.1630078 L22.1501953,21.1558008 L23.6102344,16.6906055 L23.6102344,15.6455859 C23.6102344,15.6378516 23.6100586,15.6338086 23.6100586,15.6338086 C22.7968945,15.4669922 21.9608789,15.3754102 21.1051758,15.3754102 C20.8195312,15.3754102 20.5361719,15.3875391 20.2545703,15.4066992 C20.2136133,15.4095117 20.1724805,15.4119727 20.1313477,15.4151367 C18.6658594,15.5264062 17.2226953,15.9083789 15.8864063,16.5183398 C14.7404883,17.0416406 13.6757812,17.7308789 12.7186523,18.5480859 L12.7186523,18.5482617 C12.7183008,18.5487891 12.7175977,18.5491406 12.7170703,18.549668 C12.4600781,18.7679883 12.2138086,18.9984375 11.9733398,19.2346875 C11.9283398,19.2786328 11.8826367,19.3222266 11.8381641,19.366875 C11.6117578,19.5950391 11.3929102,19.8307617 11.1812695,20.0733398 C11.1353906,20.12625 11.0902148,20.1802148 11.0448633,20.2336523 C10.8323438,20.4844922 10.625625,20.7400781 10.4292773,21.0041016 C10.4129297,21.02625 10.3976367,21.0494531 10.3814648,21.0716016 C10.1942578,21.3263086 10.0160156,21.5876953 9.84427734,21.8534766 C9.81070312,21.905332 9.77625,21.9564844 9.74337891,22.0088672 C9.60451172,22.2291211 9.4753125,22.4553516 9.34699219,22.6821094 L15.9980273,22.6821094 L22.14,21.1647656" id="Shape" fill="#BBBCBD"></path>
                        <path d="M27.7549805,20.6623828 C27.7685156,20.4881836 27.7795898,20.3141602 27.7885547,20.1397852 C27.8006836,19.9038867 27.8089453,19.6676367 27.8135156,19.4315625 C27.8170312,19.2482227 27.8165039,19.064707 27.815625,18.8813672 C27.815625,18.828457 27.8168555,18.7755469 27.8163281,18.7224609 C27.8114063,18.2499609 27.7929492,17.7769336 27.7641211,17.3033789 C27.7627148,17.3025 27.7614844,17.3016211 27.7600781,17.3007422 C27.7595508,17.2995117 27.7588477,17.298457 27.7583203,17.2974023 C27.7565625,17.2961719 27.749707,17.2923047 27.7433789,17.2887891 C27.7377539,17.2854492 27.732832,17.2826367 27.7222852,17.2766602 C27.6354492,17.2267383 27.4220508,17.1045703 27.2304492,16.9957617 C27.2262305,16.9934766 27.2221875,16.9910156 27.2181445,16.9887305 C27.1696289,16.9613086 27.1228711,16.9347656 27.0805078,16.9108594 C27.0796289,16.910332 27.07875,16.9099805 27.0780469,16.9094531 C27.0414844,16.8888867 27.0108984,16.8718359 26.9825977,16.8560156 C26.9769727,16.8528516 26.9690625,16.848457 26.9637891,16.8454688 C26.9326758,16.8282422 26.9085938,16.8152344 26.8943555,16.8076758 C26.5886719,16.6491211 26.2766602,16.5023438 25.959375,16.3683984 C25.2029883,16.0490039 24.1841602,15.7689844 23.6102344,15.6338086 L23.6102344,16.6906055 L25.0574414,21.1630078 L25.0590234,21.1666992 C25.2084375,21.309082 25.3369336,21.4727344 25.4399414,21.6530859 L25.4399414,21.6532617 C25.4736914,21.7123242 25.5046289,21.7733203 25.5325781,21.8357227 C25.5332812,21.8371289 25.5339844,21.8383594 25.5343359,21.8395898 C25.5622852,21.9018164 25.5868945,21.965625 25.6085156,22.0308398 C25.609043,22.0324219 25.6097461,22.0338281 25.6102734,22.0352344 C25.6317187,22.1004492 25.6501758,22.1668945 25.665293,22.2345703 C25.6656445,22.2365039 25.6661719,22.2380859 25.6666992,22.2398438 C25.6818164,22.3082227 25.6935937,22.3780078 25.7020312,22.4486719 C25.7020312,22.4497266 25.7023828,22.4507813 25.7025586,22.4516602 C25.7108203,22.5233789 25.7155664,22.5963281 25.7166211,22.6701563 L25.7220703,22.6821094 L27.4941211,22.6821094 C27.6138281,22.0336523 27.6973242,21.376582 27.7502344,20.7166992 C27.7514648,20.6985938 27.7535742,20.6804883 27.7549805,20.6623828" id="Shape" fill="#E3DDDB"></path>
                        <path id="Shape" fill="#FCB03F"></path>
                        <path d="M22.1501953,21.1558008 L22.1501953,21.1558008 C22.2447656,21.0670312 22.3475977,20.9866992 22.4571094,20.9160352 C22.4574609,20.9160352 22.4578125,20.9158594 22.4583398,20.9155078 C22.5667969,20.8457227 22.6822852,20.7857812 22.8032227,20.7365625 C22.8063867,20.7351562 22.8097266,20.7342773 22.8127148,20.7328711 C22.9320703,20.6850586 23.0563477,20.6474414 23.1851953,20.6217773 C23.1897656,20.6208984 23.1941602,20.6205469 23.1989063,20.619668 C23.328457,20.5948828 23.4615234,20.5808203 23.598457,20.5808203 C23.7376758,20.5808203 23.8733789,20.5948828 24.0050391,20.6207227 C24.0083789,20.6214258 24.011543,20.6216016 24.0148828,20.6221289 C24.1461914,20.6484961 24.2729297,20.687168 24.3942188,20.7365625 C24.3961523,20.7374414 24.3982617,20.7381445 24.4003711,20.7388477 C24.6462891,20.8400977 24.8693555,20.9861719 25.0590234,21.1666992 L25.0574414,21.1630078 L23.6102344,16.6906055 L22.1501953,21.1558008" id="Shape" fill="#909393"></path>
                        <path d="M21.6360352,23.5008984 C21.5859375,23.3787305 21.5469141,23.2511133 21.5203711,23.11875 C21.519668,23.1159375 21.5194922,23.1129492 21.5191406,23.1103125 C21.4929492,22.9777734 21.4785352,22.8410156 21.4785352,22.7007422 C21.4785352,22.6258594 21.4827539,22.552207 21.4903125,22.4796094 C21.4920703,22.4625586 21.4957617,22.4462109 21.4978711,22.4291602 C21.5050781,22.3736133 21.5128125,22.3182422 21.5240625,22.2641016 C21.5274023,22.248457 21.5325,22.2333398 21.5358398,22.2175195 C21.5488477,22.1628516 21.5625586,22.1081836 21.5794336,22.0549219 C21.583125,22.0438477 21.5876953,22.0333008 21.5915625,22.0220508 C21.6108984,21.9650977 21.6316406,21.9084961 21.6557227,21.8538281 C21.6583594,21.8475 21.661875,21.8415234 21.6646875,21.8351953 C21.6910547,21.7761328 21.719707,21.718125 21.7513477,21.6624023 C21.7527539,21.6601172 21.7541602,21.6580078 21.7552148,21.6558984 C21.8591016,21.4739648 21.9890039,21.3083789 22.14,21.1647656 L15.9980273,22.6821094 L15.98625,22.6821094 L22.0696875,24.1669336 C21.8874023,23.9769141 21.7399219,23.7531445 21.6379688,23.5059961 C21.6370898,23.5044141 21.6367383,23.5026563 21.6360352,23.5008984" id="Shape" fill="#676A6A"></path>
                        <path d="M35.4556055,22.3502344 C35.4594727,22.3228125 35.4652734,22.2971484 35.4700195,22.2704297 C35.4853125,22.1830664 35.5035938,22.0979883 35.5271484,22.0171289 C35.5297852,22.0079883 35.5308398,21.9976172 35.5336523,21.9886523 L36.3350391,18.319043 L36.3348633,16.2267187 C35.6800781,15.6858398 34.9788867,15.3901758 34.2488672,15.3901758 C33.3263672,15.3901758 32.4662695,15.8995898 31.8230859,16.5287109 C31.1192578,17.2172461 30.5753906,18.0834961 30.1355859,18.9576562 C30.1153711,18.9979102 30.0946289,19.036582 30.0745898,19.0770117 C30.2101172,19.1944336 30.3442383,19.3134375 30.4766016,19.4345508 C30.7761328,19.7085937 31.0691602,19.9898437 31.3583203,20.2749609 C31.4929688,20.4078516 31.6251563,20.5435547 31.7576953,20.6787305 C31.8983203,20.8219922 32.0391211,20.9649023 32.1776367,21.1104492 C32.3557031,21.2976562 32.5321875,21.4864453 32.7069141,21.677168 C32.7805664,21.7573242 32.854043,21.837832 32.9268164,21.9186914 C33.1375781,22.1519531 33.3472852,22.3862695 33.5534766,22.62375 L33.5538281,22.6241016 C33.588457,22.6603125 33.6127148,22.6863281 33.6220312,22.696875 L35.4294141,22.696875 C35.4294141,22.6822852 35.4324023,22.6689258 35.4325781,22.6543359 C35.4343359,22.5499219 35.441543,22.4479687 35.4556055,22.3502344" id="Shape" fill="#E3DDDB"></path>
                        <path id="Shape" fill="#E3DDDB"></path>
                        <path d="M8.25732422,24.9913477 C8.26259766,24.9778125 8.26822266,24.9644531 8.27349609,24.950918 C8.38986328,24.6466406 8.51730469,24.3464063 8.65107422,24.0489844 C8.68851562,23.9661914 8.72701172,23.8841016 8.76568359,23.8018359 C8.87537109,23.5683984 8.99138672,23.338125 9.11162109,23.1099609 C9.16048828,23.0171484 9.20830078,22.9239844 9.25892578,22.8320508 C9.286875,22.78125 9.31851562,22.7327344 9.34699219,22.6821094 C9.4753125,22.4553516 9.60451172,22.2291211 9.74337891,22.0088672 C9.77625,21.9563086 9.81070312,21.905332 9.84427734,21.8534766 C10.0160156,21.5876953 10.1942578,21.3263086 10.3814648,21.0716016 C10.3976367,21.0494531 10.4129297,21.02625 10.4292773,21.0041016 C10.625625,20.7400781 10.8323437,20.4844922 11.0448633,20.2336523 C11.0902148,20.1802148 11.1352148,20.1264258 11.1812695,20.0733398 C11.3929102,19.8307617 11.6117578,19.5950391 11.8381641,19.366875 C11.8828125,19.3222266 11.9283398,19.2786328 11.9733398,19.2346875 C12.2138086,18.9984375 12.4600781,18.7679883 12.7170703,18.549668 C12.7175977,18.5491406 12.7183008,18.5486133 12.7186523,18.5480859 C13.7295703,15.1618359 16.9938281,13.0809375 20.6537695,13.0809375 C22.1268164,13.0809375 23.5917773,13.5054492 24.847207,14.2734375 C26.1349805,15.0611133 27.0130078,15.8306836 27.6946875,17.1759375 C27.6980273,17.182793 27.701543,17.1894727 27.7048828,17.1961523 C27.7221094,17.2302539 27.7414453,17.2629492 27.7583203,17.2974023 C27.7588477,17.298457 27.7595508,17.2995117 27.7600781,17.3007422 C27.7614844,17.3016211 27.7627148,17.3025 27.7641211,17.3033789 C28.3343555,17.6545898 28.8783984,18.0527344 29.3955469,18.4890234 C29.5679883,18.6345703 29.7374414,18.7841602 29.9039063,18.9379688 C29.95875,18.9882422 30.0151758,19.0360547 30.0693164,19.087207 C30.0703711,19.0850977 30.07125,19.0829883 30.0724805,19.0810547 C30.0730078,19.0796484 30.0737109,19.0780664 30.0744141,19.0768359 C30.0930469,19.0386914 30.1113281,18.9998438 30.1301367,18.9622266 C30.6458789,15.7072852 32.2845117,13.9324219 33.9779883,13.9324219 C35.2545117,13.9324219 36.1824609,14.6935547 36.8833008,16.7424609 L36.8905078,16.7644336 C36.8910352,16.7651367 36.8917383,16.7660156 36.8922656,16.7668945 C37.0901953,16.981875 37.2830273,17.2188281 37.4700586,17.478457 L37.469707,17.4782813 C37.4733984,17.4832031 37.4772656,17.4877734 37.480957,17.4928711 L37.4807812,17.4926953 L37.480957,17.4928711 C37.4909766,17.5225781 37.4995898,17.5531641 37.5092578,17.5828711 L37.5092578,17.5826953 L37.4828906,17.4759961 C35.3761523,11.2389258 29.4769336,6.74841797 22.5286523,6.74841797 C13.813418,6.74841797 6.74841797,13.813418 6.74841797,22.5286523 C6.74841797,24.2467383 7.02298828,25.9008398 7.53275391,27.4399805 C7.53328125,27.437168 7.53416016,27.4341797 7.53486328,27.4310156 C7.63505859,26.9667773 7.75511719,26.5053516 7.89486328,26.0488477 C8.00384766,25.6930664 8.12496094,25.3400977 8.25732422,24.9913477" id="Shape" fill="#525353"></path>
                        <path d="M37.7186133,22.7030273 L37.1682422,23.3187891 L37.1682422,23.3186133 C37.1678906,23.3200195 37.1673633,23.32125 37.1670117,23.3226563 C37.1460938,23.4036914 37.1204297,23.4792773 37.0921289,23.5522266 C37.0847461,23.5713867 37.0764844,23.5894922 37.0683984,23.608125 C37.0466016,23.6598047 37.0230469,23.7086719 36.9975586,23.7552539 C36.9840234,23.7802148 36.9706641,23.8055273 36.9560742,23.8289063 C36.9332227,23.8654688 36.9086133,23.8986914 36.8836523,23.9313867 C36.8476172,23.9783203 36.8096484,24.0205078 36.7697461,24.0577734 C36.7533984,24.0730664 36.7375781,24.0897656 36.7203516,24.1034766 C36.6895898,24.1282617 36.6574219,24.1488281 36.6247266,24.1676367 C36.6120703,24.174668 36.5997656,24.1813477 36.5871094,24.1876758 C36.5081836,24.2261719 36.4253906,24.2486719 36.3392578,24.2486719 C35.8391602,24.2486719 35.4336328,23.5539844 35.4336328,22.696875 L33.616582,22.696875 C33.6171094,22.6974023 33.6172852,22.6979297 33.6176367,22.6982813 C33.9551367,23.0878125 34.2866602,23.4826172 34.6137891,23.8812891 C34.6176563,23.8862109 34.6215234,23.890957 34.6255664,23.8957031 C34.9435547,24.2838281 35.2567969,24.6754688 35.5666992,25.0697461 C35.5819922,25.089082 35.5971094,25.1082422 35.6124023,25.1275781 C35.9063086,25.5023438 36.196875,25.8795703 36.4849805,26.2578516 C36.5129297,26.2942383 36.5410547,26.3308008 36.5690039,26.3675391 C36.8736328,26.7683203 37.1754492,27.1701563 37.4751563,27.5725195 C37.4772656,27.5755078 37.4791992,27.5781445 37.4814844,27.580957 C38.0005664,26.0449805 38.290957,24.4040625 38.3090625,22.696875 L37.7982422,22.6775391 L37.7186133,22.7030273" id="Shape" fill="#FFFFFF"></path>
                        <path d="M20.1313477,15.4151367 C20.1724805,15.4119727 20.2136133,15.4095117 20.2545703,15.4066992 C20.5361719,15.3875391 20.8195313,15.3754102 21.1051758,15.3754102 C21.9608789,15.3754102 22.7968945,15.4669922 23.6100586,15.6338086 L23.6102344,15.6338086 C24.1841602,15.7689844 25.2029883,16.0490039 25.959375,16.3683984 C26.2766602,16.5023437 26.5886719,16.6491211 26.8943555,16.8076758 C26.9085938,16.8152344 26.9326758,16.828418 26.9637891,16.8454687 C26.9690625,16.848457 26.9769727,16.8528516 26.9825977,16.8560156 C27.0108984,16.8718359 27.0418359,16.8888867 27.0780469,16.9094531 C27.07875,16.9099805 27.0796289,16.910332 27.0805078,16.9108594 C27.1230469,16.9349414 27.1694531,16.9613086 27.2181445,16.9887305 C27.2221875,16.9910156 27.2262305,16.9934766 27.2304492,16.9957617 C27.4248633,17.1059766 27.6400195,17.2295508 27.7222852,17.2766602 C27.732832,17.2826367 27.7377539,17.2854492 27.7433789,17.2887891 C27.7475977,17.29125 27.7567383,17.2963477 27.7583203,17.2974023 C27.7414453,17.2629492 27.7221094,17.2302539 27.7048828,17.1961523 C27.701543,17.1894727 27.6980273,17.182793 27.6946875,17.1759375 C27.0130078,15.8306836 25.9635938,14.6768555 24.6758203,13.8891797 C23.4203906,13.1211914 21.9554297,12.6966797 20.482207,12.6966797 C16.8224414,12.6966797 13.7295703,15.1618359 12.7186523,18.5480859 C13.6757813,17.7308789 14.7404883,17.0416406 15.8864063,16.5183398 C17.2226953,15.9083789 18.6658594,15.5264062 20.1313477,15.4151367" id="Shape" fill="#000000"></path>
                        <path d="M37.480957,17.4928711 L37.4807812,17.4926953 L37.480957,17.4928711 C37.4772656,17.4877734 37.4733984,17.4832031 37.469707,17.4782812 L37.4700586,17.478457 C37.2830273,17.2188281 37.0901953,16.981875 36.8922656,16.7668945 C36.8919141,16.7661914 36.8912109,16.7653125 36.8906836,16.7647852 C36.8912109,16.7653125 36.8919141,16.7661914 36.8922656,16.7668945 C36.8906836,16.7649609 36.8889258,16.7626758 36.887168,16.7607422 C36.797168,16.6633594 36.7066406,16.5703711 36.6145312,16.4821289 C36.5799023,16.4489062 36.544043,16.4199023 36.5090625,16.3880859 C36.4512305,16.3355273 36.39375,16.2812109 36.3350391,16.2330469 L36.3350391,18.3264258 L37.1364258,21.9963867 L37.1364258,21.9962109 C37.1452148,22.0246875 37.1557617,22.0514062 37.1634961,22.0809375 L37.7186133,22.7030273 L37.7240625,22.696875 L38.3050195,22.696875 C38.3057227,22.6430859 38.3090625,22.59 38.3090625,22.5360352 L38.3090625,22.5351562 C38.3088867,20.8042383 38.0244727,19.1409961 37.5092578,17.5826953 L37.5092578,17.5828711 C37.4995898,17.5531641 37.4909766,17.5225781 37.480957,17.4928711" id="Shape" fill="#BBBCBD"></path>
                        <path d="M31.8230859,16.5287109 C32.4662695,15.8995898 33.3263672,15.3901758 34.2488672,15.3901758 C34.9788867,15.3901758 35.6800781,15.6858398 36.3348633,16.2267187 C36.3348633,16.2267187 36.3350391,16.2314648 36.3350391,16.2330469 L36.3350391,16.2341016 L36.3350391,16.2330469 C36.39375,16.2812109 36.4512305,16.3355273 36.5090625,16.3880859 C36.544043,16.4199023 36.5799023,16.4489063 36.6145312,16.4821289 C36.7066406,16.5703711 36.797168,16.6633594 36.887168,16.7607422 C36.8889258,16.7626758 36.8906836,16.7649609 36.8922656,16.7668945 C36.8919141,16.7661914 36.8912109,16.7653125 36.8906836,16.7647852 L36.8905078,16.7646094 L36.8833008,16.7424609 C36.1824609,14.6935547 35.0516602,13.3623633 33.7754883,13.3623633 C32.0818359,13.3623633 30.6458789,15.7072852 30.1301367,18.9622266 L30.1355859,18.9576562 C30.5753906,18.0834961 31.1192578,17.2172461 31.8230859,16.5287109" id="Shape" fill="#000000"></path>
                        <path d="M29.5345898,36.5336719 C29.5345898,36.5336719 29.3066016,36.3529688 29.0170898,36.0198633 C28.9492383,35.9418164 28.8792773,35.8583203 28.8065039,35.7632227 C28.7518359,35.6920312 28.6964648,35.615918 28.6410938,35.5352344 C28.6041797,35.4814453 28.5676172,35.4255469 28.5312305,35.3678906 C28.4217188,35.1947461 28.3343555,34.9839844 28.2380273,34.7756836 C28.126582,34.5345117 28.1262305,34.3740234 28.0622461,34.149375 C28.016543,33.9887109 27.9785742,33.8208398 27.9502734,33.6461133 C27.9079102,33.3841992 27.8876953,33.1068164 27.8970117,32.8150195 C27.9019336,32.6545313 27.918457,32.488418 27.9425391,32.3193164 C27.9657422,32.1567188 27.9977344,31.9902539 28.0404492,31.8202734 C28.1680664,31.3099805 28.3886719,30.7664648 28.7328516,30.1927148 C28.7337305,30.1911328 28.8195117,29.9977734 28.8203906,29.9961914 C28.9328906,29.8088086 28.9578516,29.8170703 29.0647266,29.636543 C30.5701172,27.0959766 31.3822266,25.1748633 30.9849609,22.2168164 C30.9564844,22.0057031 30.8789648,21.5326758 30.8366016,21.3104883 C30.8141016,21.4641211 30.7291992,21.9536719 30.7267383,21.9642188 C30.7117969,22.0317187 30.6708398,22.1050195 30.6553711,22.1508984 C30.0014648,24.08625 28.9720898,25.5099023 27.490957,27.1174219 C27.2902148,27.3352148 27.0799805,27.5561719 26.8648242,27.7792383 C26.5027148,28.1545313 26.1230273,28.5379102 25.7213672,28.9376367 C25.5610547,29.0970703 25.3975781,29.2587891 25.2312891,29.4236719 C25.0785352,29.5748437 24.8885156,29.8981055 24.6617578,30.1362891 C24.5218359,30.5281055 24.3627539,30.9700195 24.2282813,31.4347852 C24.1676367,31.4117578 24.1098047,31.3911914 24.0481055,31.3672852 C21.170918,30.2544141 19.2445313,28.7674805 19.2445313,28.7674805 C19.2445313,28.7674805 20.7267188,30.6973828 23.2238672,32.5089844 C23.4655664,32.6844141 23.7039258,32.8362891 23.9373633,32.9709375 C23.8343555,34.6014844 24.5536523,36.1668164 27.8005078,36.6336914 C28.3494727,36.7126172 28.9116211,36.7089258 29.4778125,36.6451172 C29.4721875,36.6282422 29.5094531,36.6285938 29.5064648,36.6192773 C29.5033008,36.6097852 29.5366992,36.5848242 29.5366992,36.5848242" id="Shape" fill="#000000"></path>
                        <path d="M27.7978711,32.336543 C30.680332,32.8016602 34.9463672,32.7253711 39.375,30.6518555 C39.4816992,30.6019336 39.5992969,30.733418 39.7059961,30.6810352 C39.7059961,30.6810352 36.6792188,33.7725 33.0644531,35.520293 C32.9588086,35.5712695 32.8545703,35.6255859 32.7478711,35.6741016 C32.3985938,35.8337109 32.0433398,35.9727539 31.6866797,36.1010742 C30.9872461,36.3524414 30.2784961,36.5431641 29.5748438,36.6312305 C29.5425,36.6354492 29.5101563,36.6416016 29.4778125,36.6451172 C29.4721875,36.6282422 29.4676172,36.6145312 29.4646289,36.6052148 C29.4614648,36.5957227 29.4598828,36.590625 29.4598828,36.590625 C29.4598828,36.590625 29.2317188,36.4097461 28.942207,36.0766406 C28.8743555,35.9985937 28.8043945,35.9150977 28.7317969,35.82 C28.6771289,35.7488086 28.6217578,35.6726953 28.5663867,35.5920117 C28.5294727,35.5382227 28.4927344,35.4823242 28.4563477,35.424668 C28.3470117,35.2515234 28.2406641,35.0600977 28.1443359,34.8519727 C28.0481836,34.6438477 27.9620508,34.4186719 27.8934961,34.1775 C27.8476172,34.0168359 27.8096484,33.8489648 27.7813477,33.6742383 C27.7389844,33.4121484 27.7189453,33.1349414 27.7280859,32.8431445 C27.7330078,32.6824805 27.7495313,32.516543 27.7736133,32.3474414 L27.7978711,32.336543" id="Shape" fill="#9F2254"></path>
                        <path d="M25.7319141,29.0548828 C26.13375,28.6551563 26.5134375,28.2717773 26.8755469,27.8964844 C27.0905273,27.673418 27.3009375,27.4524609 27.5016797,27.234668 C28.9826367,25.6271484 30.0698438,24.1228125 30.7239258,22.1874609 C30.7392188,22.141582 30.7546875,22.0811133 30.7696289,22.0130859 C30.7720898,22.0025391 30.774375,21.9925195 30.7766602,21.9816211 C30.7919531,21.909375 30.8068945,21.829043 30.8218359,21.7385156 C30.8278125,21.6761133 31.023457,21.5502539 31.0289063,21.4917188 C30.8649023,20.6490234 30.4869727,19.7630859 30.0744141,19.0866797 C30.0754688,19.0894922 30.0763477,19.0921289 30.0772266,19.0949414 C30.0756445,19.0935352 30.0703711,19.0882617 30.0693164,19.087207 C30.0151758,19.0360547 29.95875,18.9882422 29.9039063,18.9379687 C29.7374414,18.7841602 29.5679883,18.6345703 29.3955469,18.4890234 C28.8782227,18.0527344 28.3343555,17.6545898 27.7641211,17.3033789 C27.7929492,17.7769336 27.8114063,18.2499609 27.8163281,18.7224609 C27.8170312,18.7755469 27.815625,18.828457 27.815625,18.8813672 C27.8165039,19.064707 27.8170312,19.2482227 27.8135156,19.4315625 C27.8089453,19.6676367 27.8006836,19.9038867 27.7885547,20.1397852 C27.7795898,20.3141602 27.7685156,20.4881836 27.7549805,20.6623828 C27.7535742,20.6804883 27.7514648,20.6985938 27.7502344,20.7166992 C27.6973242,21.376582 27.6138281,22.0336523 27.4941211,22.6821094 L27.2859961,23.6663086 C26.8512891,25.4286914 25.9683398,27.0272461 25.2423633,28.677832 C25.0498828,29.1155273 24.8672461,29.5581445 24.7071094,30.0090234 C24.6925195,30.050332 24.676875,30.09375 24.6617578,30.1362891 C24.8885156,29.8981055 25.0892578,29.6920898 25.2418359,29.540918 C25.4083008,29.3762109 25.5717773,29.2143164 25.7319141,29.0548828" id="Shape" fill="#FCB03F"></path>
                        <path d="M16.2066797,38.5335352 C17.2629492,38.0663086 18.2404688,37.7729297 19.4023828,37.5438867 C19.3957031,37.2916406 19.3842773,37.0400977 19.3630078,36.7901367 C19.8606445,35.4991992 20.3199609,34.2 20.7355078,32.893418 C19.9945898,32.9653125 19.2591211,33.0795703 18.5322656,33.2339062 C17.9931445,33.3483398 17.4612305,33.4921289 16.9337109,33.6510352 C16.5099023,33.7786523 16.0917187,33.9252539 15.676875,34.0811719 L17.3170898,34.4784375 L15.9973242,38.6208984 L16.2066797,38.5335352" id="Shape" fill="#525353"></path>
                        <path d="M36.4849805,26.2578516 C36.196875,25.8795703 35.9063086,25.5023438 35.6124023,25.1275781 C35.5972852,25.1082422 35.5818164,25.089082 35.5666992,25.0697461 C35.2567969,24.6754688 34.9435547,24.2838281 34.6255664,23.8957031 C34.6215234,23.890957 34.6176563,23.8862109 34.6137891,23.8812891 C34.2866602,23.4826172 33.9551367,23.0878125 33.6176367,22.6982813 C33.5963672,22.6734961 33.5750977,22.6483594 33.5534766,22.62375 C33.3472852,22.3862695 33.1375781,22.1519531 32.9268164,21.9186914 C32.8538672,21.8380078 32.7805664,21.7573242 32.7069141,21.677168 C32.5321875,21.4864453 32.3557031,21.2976563 32.1776367,21.1104492 C32.0389453,20.9650781 31.8984961,20.8218164 31.7576953,20.6787305 C31.6251562,20.5435547 31.4929687,20.4078516 31.3583203,20.2749609 C31.0689844,19.9900195 30.7761328,19.7085938 30.4766016,19.4345508 C30.3440625,19.3134375 30.2099414,19.1942578 30.0744141,19.0768359 C30.0737109,19.0780664 30.0730078,19.0796484 30.0724805,19.0810547 C30.3575977,19.9005469 30.6829688,20.7302344 30.845918,21.5848828 C30.8882812,21.8072461 30.9232617,22.023457 30.9517383,22.2347461 C31.3490039,25.1926172 30.4011914,27.1239258 28.8959766,29.6644922 C28.7878711,29.8466016 28.6773047,30.031875 28.5639258,30.2206641 C28.2197461,30.7947656 27.9993164,31.3381055 27.8715234,31.8483984 C27.8289844,32.0183789 27.7968164,32.1848437 27.7736133,32.3474414 C30.7255078,32.8238086 35.1643359,32.9125781 39.7059961,30.6810352 C39.7059961,30.6810352 38.8153125,29.3719922 37.4751563,27.5725195 C37.1754492,27.1701563 36.8736328,26.7683203 36.5690039,26.3675391 C36.5412305,26.3308008 36.5129297,26.2942383 36.4849805,26.2578516" id="Shape" fill="#DF0067"></path>
                        <path d="M15.8405273,39.3612891 L17.3170898,34.4784375 L15.676875,34.0811719 C15.3094922,34.2191602 14.9454492,34.3662891 14.5861523,34.52625 L13.1238281,39.3612891 L14.7563086,39.3867773 L15.8405273,39.3612891" id="Shape" fill="#AA9678"></path>
                        <path d="M16.8785156,37.24875 C17.0226563,37.3041211 17.1692578,37.354043 17.3155078,37.4051953 C18.9476367,37.9773633 20.7008789,38.2923633 22.5288281,38.2923633 C24.6130664,38.2923633 26.6009766,37.8841992 28.4224219,37.1501367 C28.51875,37.1114648 28.6131445,37.0689258 28.708418,37.0283203 C28.8631055,36.9624023 29.0167383,36.8947266 29.1687891,36.8242383 C29.3048437,36.760957 29.4408984,36.6982031 29.5748437,36.6312305 C29.5425,36.6354492 29.5101562,36.6416016 29.4778125,36.6451172 C28.9116211,36.7089258 28.3494727,36.7126172 27.8005078,36.6336914 C24.5536523,36.1668164 23.8343555,34.6014844 23.9373633,32.9709375 C23.7039258,32.8362891 23.4655664,32.6844141 23.2238672,32.5089844 C20.7267187,30.6973828 19.2445313,28.7674805 19.2445313,28.7674805 C19.2445313,28.7674805 21.170918,30.2544141 24.0481055,31.3672852 C24.1098047,31.3911914 24.1676367,31.4117578 24.2282812,31.4347852 C24.3627539,30.9700195 24.5218359,30.5281055 24.6617578,30.1362891 C24.676875,30.09375 24.6925195,30.050332 24.7071094,30.0090234 C24.8672461,29.5581445 25.0498828,29.1155273 25.2423633,28.677832 C25.9683398,27.0272461 26.8512891,25.4286914 27.2859961,23.6663086 L27.4941211,22.6821094 L25.7183789,22.6821094 L25.7182031,22.6822852 C25.7182031,22.6833398 25.7183789,22.6845703 25.7183789,22.6858008 L25.7176758,22.6861523 C25.7176758,22.6908984 25.7183789,22.6956445 25.7183789,22.7007422 C25.7183789,22.993418 25.6589648,23.272207 25.5517383,23.5258594 C25.498125,23.6527734 25.4323828,23.7731836 25.3562695,23.8860352 C25.2038672,24.1113867 25.0092773,24.3061523 24.7835742,24.4585547 C24.6708984,24.5348438 24.5503125,24.6004102 24.4235742,24.6538477 C24.1699219,24.76125 23.8911328,24.8206641 23.598457,24.8206641 C23.5241016,24.8206641 23.450625,24.8166211 23.3783789,24.8090625 C23.3613281,24.8073047 23.3449805,24.8036133 23.3281055,24.8015039 C23.2725586,24.7942969 23.2173633,24.7867383 23.16375,24.7756641 C23.1486328,24.7723242 23.1342187,24.7675781 23.1192773,24.7640625 C23.064082,24.7514063 23.0088867,24.7376953 22.9554492,24.7206445 C22.9456055,24.7173047 22.9361133,24.7132617 22.9262695,24.7099219 C22.8684375,24.6904102 22.810957,24.6694922 22.7554102,24.6452344 C22.7503125,24.643125 22.7455664,24.6404883 22.7406445,24.6382031 C22.6807031,24.6114844 22.6218164,24.5826563 22.5648633,24.5506641 L22.5622266,24.549082 C22.3797656,24.4460742 22.2138281,24.3172266 22.0696875,24.1669336 L15.98625,22.6821094 L9.34699219,22.6821094 C9.31851563,22.7327344 9.286875,22.78125 9.25892578,22.8320508 C9.20830078,22.9239844 9.16048828,23.0173242 9.11162109,23.1099609 C8.99138672,23.338125 8.87537109,23.5683984 8.76568359,23.8018359 C8.72701172,23.8839258 8.68851563,23.9661914 8.65107422,24.0489844 C8.51730469,24.3464063 8.38986328,24.6466406 8.27349609,24.950918 C8.26822266,24.9644531 8.26259766,24.9778125 8.25732422,24.9913477 C8.12496094,25.3400977 8.00384766,25.6930664 7.89486328,26.0488477 C7.75511719,26.5053516 7.63505859,26.9667773 7.53486328,27.4310156 C8.58005859,30.6189844 10.6136719,33.3583594 13.2720117,35.2891406 C13.3493555,35.3452148 13.430918,35.3951367 13.5093164,35.4499805 C13.9589648,35.7642773 14.4235547,36.0583594 14.9055469,36.3251953 C15.5383594,36.6758789 16.1961328,36.9868359 16.8785156,37.24875" id="Shape" fill="#FFFFFF"></path>
                        <path d="M32.7972656,41.0227734 C32.7564844,40.6033594 32.7311719,40.1804297 32.7311719,39.7529297 C32.7311719,39.4959375 32.5228711,39.2872852 32.2657031,39.2872852 L12.7342969,39.2872852 C12.4771289,39.2872852 12.2686523,39.4959375 12.2686523,39.7529297 C12.2686523,40.1804297 12.2435156,40.6033594 12.2025586,41.0227734 C12.157207,41.4866602 12.0856641,41.9443945 11.9917969,42.3952734 C12.2749805,42.5450391 12.5604492,42.6907617 12.8508398,42.8289258 C13.0417383,41.9900977 13.1595117,41.1282422 13.1904492,40.2488086 C13.1909766,40.2387891 13.1920313,40.2285937 13.1923828,40.2185742 L31.8076172,40.2185742 C31.8079688,40.2285937 31.8090234,40.2387891 31.809375,40.2488086 C31.8404883,41.1282422 31.9582617,41.9900977 32.1491602,42.8289258 C32.4395508,42.6907617 32.7250195,42.5450391 33.0082031,42.3952734 C32.9143359,41.9443945 32.842793,41.4866602 32.7972656,41.0227734" id="Shape" fill="#8B7460"></path>
                    </g>
                </g>
                <g id="Page-1" transform="translate(58.000000, 10.000000)">
                    <path d="M2.68710714,12.44925 C3.00532143,12.4846071 3.32353571,12.5199643 3.78317857,12.5199643 C6.43496429,12.5199643 8.23817857,10.7874643 8.23817857,7.39317857 C8.23817857,4.95353571 7.24817857,2.76175 4.20746429,2.76175 C3.57103571,2.76175 3.04067857,2.83210714 2.68710714,2.93817857 L2.68710714,12.44925 Z M-3.57142858e-05,0.993535714 C1.09603571,0.710678571 2.36889286,0.533892857 3.92460714,0.533892857 C6.11675,0.533892857 7.99067857,1.06460714 9.22782143,2.26639286 C10.35925,3.39782143 10.9606786,5.13032143 10.9606786,7.21639286 C10.9606786,9.40853571 10.4303214,10.8935357 9.51103571,12.0956786 C8.23817857,13.8635357 6.01067857,14.7474643 3.88925,14.7474643 C3.42960714,14.7474643 3.07603571,14.7474643 2.68710714,14.7121071 L2.68710714,24.4706786 L-3.57142858e-05,24.4706786 L-3.57142858e-05,0.993535714 Z" id="Fill-1" fill="#FFFFFF"></path>
                    <path d="M16.7940714,11.9895714 L17.9608571,11.9895714 C20.5419286,11.9895714 22.2744286,10.0802857 22.2744286,7.21635714 C22.2744286,4.45885714 21.143,2.76171429 18.2437143,2.72635714 C17.678,2.72635714 17.1476429,2.76171429 16.7940714,2.86742857 L16.7940714,11.9895714 Z M14.1069286,0.9935 C15.2383571,0.675285714 16.6526429,0.533857143 17.9962143,0.533857143 C20.3651429,0.533857143 22.133,1.02921429 23.3705,2.231 C24.5372857,3.43314286 25.0322857,5.02457143 25.0322857,6.89814286 C25.0322857,9.93885714 23.618,11.9188571 21.2137143,13.0502857 L21.2137143,13.121 C22.9815714,13.6513571 23.9008571,15.3485 24.3958571,18.4599286 C24.9615714,21.7127857 25.4212143,23.7281429 25.7747857,24.4706429 L23.0169286,24.4706429 C22.6633571,23.7635 22.2037143,21.5006429 21.7440714,18.6013571 C21.2137143,15.3131429 20.1883571,14.111 17.8547857,14.111 L16.7940714,14.111 L16.7940714,24.4706429 L14.1069286,24.4706429 L14.1069286,0.9935 Z" id="Fill-4" fill="#FFFFFF"></path>
                    <polygon id="Fill-6" fill="#FFFFFF" points="37.2302143 13.1563929 31.2552143 13.1563929 31.2552143 22.10175 38.0434286 22.10175 38.0434286 24.4706786 28.5323571 24.4706786 28.5323571 0.639964286 37.6191429 0.639964286 37.6191429 3.00889286 31.2552143 3.00889286 31.2552143 10.8581786 37.2302143 10.8581786"></polygon>
                    <path d="M40.5182857,21.3237857 C41.2961429,21.8541429 42.7457857,22.2784286 43.9125714,22.2784286 C46.4229286,22.2784286 47.9079286,20.652 47.9079286,18.2477143 C47.9079286,16.0555714 46.6347143,14.712 44.7611429,13.2977143 C42.8518571,11.9895 40.2707857,9.762 40.2707857,6.68628571 C40.2707857,3.07985714 42.7811429,0.428071429 46.5643571,0.428071429 C48.049,0.428071429 49.3222143,0.887714286 49.8879286,1.312 L49.2515,3.64557143 C48.6500714,3.22092857 47.6600714,2.83235714 46.4229286,2.83235714 C44.054,2.83235714 42.9575714,4.59985714 42.9575714,6.22628571 C42.9575714,8.59521429 44.1954286,9.5145 46.4582857,11.1409286 C49.3222143,13.1562857 50.5947143,15.3484286 50.5947143,18.0002143 C50.5947143,22.1016429 47.7311429,24.6827143 43.9125714,24.6827143 C42.2861429,24.6827143 40.589,24.1523571 39.9172143,23.6573571 L40.5182857,21.3237857 Z" id="Fill-8" fill="#FFFFFF"></path>
                    <polygon id="Fill-10" fill="#FFFFFF" points="56.6053929 3.07967857 52.2564643 3.07967857 52.2564643 0.640035714 63.6768214 0.640035714 63.6768214 3.07967857 59.3278929 3.07967857 59.3278929 24.4703929 56.6053929 24.4703929"></polygon>
                    <path d="M72.5158571,15.1363929 L71.2783571,9.09032143 C70.9247857,7.39317857 70.6065714,5.41317857 70.3237143,3.64532143 L70.2176429,3.64532143 C69.9347857,5.44853571 69.5812143,7.49925 69.2276429,9.09032143 L67.9901429,15.1363929 L72.5158571,15.1363929 Z M67.6012143,17.3285357 L66.0455,24.4706786 L63.3937143,24.4706786 L68.8387143,0.639964286 L71.8440714,0.639964286 L77.1476429,24.4706786 L74.4605,24.4706786 L72.9047857,17.3285357 L67.6012143,17.3285357 Z" id="Fill-12" fill="#FFFFFF"></path>
                    <path d="M79.5872143,21.3237857 C80.3650714,21.8541429 81.8147143,22.2784286 82.9815,22.2784286 C85.4918571,22.2784286 86.9768571,20.652 86.9768571,18.2477143 C86.9768571,16.0555714 85.704,14.712 83.8300714,13.2977143 C81.9207857,11.9895 79.3397143,9.762 79.3397143,6.68628571 C79.3397143,3.07985714 81.8500714,0.428071429 85.6332857,0.428071429 C87.1182857,0.428071429 88.3907857,0.887714286 88.9565,1.312 L88.3204286,3.64557143 C87.7193571,3.22092857 86.7293571,2.83235714 85.4918571,2.83235714 C83.1229286,2.83235714 82.0268571,4.59985714 82.0268571,6.22628571 C82.0268571,8.59521429 83.2643571,9.5145 85.5272143,11.1409286 C88.3907857,13.1562857 89.664,15.3484286 89.664,18.0002143 C89.664,22.1016429 86.8000714,24.6827143 82.9815,24.6827143 C81.3550714,24.6827143 79.6579286,24.1523571 78.9861429,23.6573571 L79.5872143,21.3237857 Z" id="Fill-14" fill="#A5DBE8"></path>
                    <polygon id="Fill-16" fill="#A5DBE8" points="95.6037143 0.64 95.6037143 10.8582143 102.285857 10.8582143 102.285857 0.64 105.008357 0.64 105.008357 24.4707143 102.285857 24.4707143 102.285857 13.3332143 95.6037143 13.3332143 95.6037143 24.4707143 92.8812143 24.4707143 92.8812143 0.64"></polygon>
                    <path d="M111.090107,12.5552857 C111.090107,17.4699286 112.04475,22.3492143 115.085464,22.3492143 C118.126179,22.3492143 118.939393,17.1517143 118.939393,12.4845714 C118.939393,8.02957143 118.126179,2.76171429 115.050107,2.76171429 C112.04475,2.76171429 111.090107,7.71135714 111.090107,12.5552857 M121.767607,12.3785 C121.767607,21.3238571 118.72725,24.7535 114.873321,24.7535 C110.913321,24.7535 108.261536,20.546 108.261536,12.5199286 C108.261536,4.63528571 111.125464,0.357071429 115.26225,0.357071429 C119.328321,0.357071429 121.767607,4.77671429 121.767607,12.3785" id="Fill-18" fill="#A5DBE8"></path>
                    <path d="M127.743286,12.44925 C128.0615,12.4846071 128.379714,12.5199643 128.839357,12.5199643 C131.491143,12.5199643 133.294357,10.7874643 133.294357,7.39317857 C133.294357,4.95353571 132.304357,2.76175 129.263643,2.76175 C128.627214,2.76175 128.096857,2.83210714 127.743286,2.93817857 L127.743286,12.44925 Z M125.056143,0.993535714 C126.152214,0.710678571 127.425071,0.533892857 128.980786,0.533892857 C131.172929,0.533892857 133.046857,1.06460714 134.284,2.26639286 C135.415429,3.39782143 136.0165,5.13032143 136.0165,7.21639286 C136.0165,9.40853571 135.4865,10.8935357 134.566857,12.0956786 C133.294357,13.8635357 131.066857,14.7474643 128.945429,14.7474643 C128.485786,14.7474643 128.132214,14.7474643 127.743286,14.7121071 L127.743286,24.4706786 L125.056143,24.4706786 L125.056143,0.993535714 Z" id="Fill-21" fill="#A5DBE8"></path>
                </g>
            </g>
        </g>
    </g>
</svg>