<?xml version="1.0" encoding="UTF-8" standalone="no"?>
<svg width="45px" height="44px" viewBox="0 0 45 44" version="1.1" xmlns="http://www.w3.org/2000/svg" xmlns:xlink="http://www.w3.org/1999/xlink">
    <!-- Generator: Sketch 3.8.3 (29802) - http://www.bohemiancoding.com/sketch -->
    <title>prestashop</title>
    <desc>Created with Sketch.</desc>
    <defs></defs>
    <g id="Page-1" stroke="none" stroke-width="1" fill="none" fill-rule="evenodd">
        <g id="Wordpress" transform="translate(-1220.000000, -35.000000)">
            <g id="nav" transform="translate(1220.000000, 35.000000)">
                <g id="prestashop">
                    <g id="Group">
                        <path d="M14.5861523,33.759 C14.9454492,33.6025937 15.3094922,33.4587344 15.676875,33.3238125 C16.0917187,33.1713594 16.5099023,33.0280156 16.9337109,32.9032344 C17.4612305,32.7478594 17.9931445,32.6072656 18.5322656,32.495375 C19.2591211,32.3444688 19.9945898,32.23275 20.7355078,32.1624531 C20.3199609,33.44 19.8606445,34.7103281 19.3630078,35.9725781 C19.3842773,36.2169844 19.3957031,36.4629375 19.4023828,36.7095781 C20.4046875,36.5162188 21.4396875,36.41275 22.5,36.41275 C23.5601367,36.41275 24.5953125,36.5162188 25.5976172,36.7095781 C25.6042969,36.4629375 25.6157227,36.2169844 25.6369922,35.9725781 C25.1391797,34.7103281 24.6800391,33.44 24.2644922,32.1624531 C25.0054102,32.23275 25.7408789,32.3444688 26.4677344,32.495375 C27.0066797,32.6072656 27.5385937,32.7478594 28.0661133,32.9032344 C28.4900977,33.0280156 28.9082812,33.1713594 29.323125,33.3238125 C29.6906836,33.4589062 30.0549023,33.6027656 30.4141992,33.7591719 C32.9637305,34.8693125 35.2879102,36.515875 37.194082,38.652625 C41.9718164,34.6185469 45,28.6568906 45,22 C45,9.8498125 34.9263281,0 22.5,0 C10.0736719,0 0,9.8498125 0,22 C0,28.6568906 3.02818359,34.618375 7.80591797,38.652625 C9.71208984,36.515875 12.0366211,34.8691406 14.5861523,33.759" id="Shape" fill="#A5DBE8"></path>
                        <path d="M30.4141992,33.7591719 L31.810957,38.4553125 L32.207168,38.4735313 C32.4643359,38.4735313 32.6452148,38.5397031 32.6452148,38.7911563 C32.6452148,39.2091563 32.6673633,39.6788906 32.7083203,40.0889844 C33.0563672,40.3779063 33.4801758,40.7037813 33.8015039,41.020375 C35.0085937,40.3332188 36.1432617,39.5398438 37.194082,38.652625 C35.2879102,36.515875 32.9637305,34.8693125 30.4141992,33.7591719" id="Shape" fill="#525353"></path>
                        <path d="M27.6830859,33.71225 L29.323125,33.3238125 C28.9082812,33.1713594 28.4900977,33.0280156 28.0661133,32.9032344 C27.5385937,32.7478594 27.0066797,32.6072656 26.4677344,32.495375 C25.7408789,32.3444687 25.0054102,32.23275 24.2644922,32.1624531 C24.6800391,33.44 25.1391797,34.7103281 25.6369922,35.9725781 C25.6157227,36.2169844 25.6042969,36.4629375 25.5976172,36.7095781 C26.759707,36.9337031 27.9022852,37.3231719 28.9587305,37.7800156 L27.6830859,33.71225" id="Shape" fill="#525353"></path>
                        <path d="M11.1984961,41.020375 C11.459707,41.1692187 11.7235547,41.3144531 11.9917969,41.4531562 C12.0856641,41.0122969 12.2357813,40.4014531 12.2811328,39.947875 C11.9330859,40.2367969 11.5198242,40.7037812 11.1984961,41.020375" id="Shape" fill="#000000"></path>
                        <path d="M28.9313086,37.7394531 C27.8750391,37.2826094 26.759707,36.9337031 25.5976172,36.7095781 C24.5953125,36.5162188 23.5601367,36.41275 22.5,36.41275 C21.4396875,36.41275 20.4046875,36.5162188 19.4023828,36.7095781 C18.2404688,36.9335313 17.0281055,37.2733281 15.9720117,37.73 L15.8596875,38.4142344 L29.1406641,38.4142344 L28.9313086,37.7394531" id="Shape" fill="#000000"></path>
                        <path d="M12.24,40.0781562 C12.2811328,39.6680625 12.3108398,39.3024844 12.3108398,38.8843125 C12.3108398,38.6330312 12.4871484,38.4719844 12.7443164,38.4719844 L13.1660156,38.4575469 L14.5861523,33.759 C12.0366211,34.8691406 9.71208984,36.515875 7.80591797,38.652625 C8.85673828,39.5398437 9.99140625,40.3332187 11.1984961,41.020375 C11.5198242,40.7037812 11.8545117,40.4000781 12.2025586,40.1111562" id="Shape" fill="#525353"></path>
                        <path d="M32.8800586,40.9139844 C32.9711133,41.3608594 32.9916797,41.4498906 33.0082031,41.4531562 C33.2764453,41.3144531 33.5401172,41.1692187 33.8015039,41.020375 C33.4801758,40.7037812 33.1351172,40.3899375 32.7868945,40.1010156 L32.8800586,40.9139844" id="Shape" fill="#000000"></path>
                        <path d="M28.9313086,37.7394531 L29.1406641,38.4142344 L31.8571875,38.4142344 L30.4141992,33.7591719 C30.0549023,33.6027656 29.6906836,33.4589062 29.323125,33.3238125 L27.6830859,33.71225 L28.9313086,37.7394531" id="Shape" fill="#AA9678"></path>
                        <path id="Shape" fill="#C4B6A1"></path>
                        <path id="Shape" fill="#AA9678"></path>
                        <path d="M31.7608594,39.2569375 L22.4806641,39.26725 L22.5,44 C25.95375,44 29.2246875,43.2370469 32.1491602,41.8771719 C31.9582617,41.0569844 31.9391016,40.1735469 31.9079883,39.3138281 C31.8939258,39.3038594 31.7608594,39.2569375 31.7608594,39.2569375" id="Shape" fill="#AA9678"></path>
                        <path d="M22.4850586,39.2868437 C22.4850586,39.2868437 13.1537109,39.2753281 13.1394727,39.285125 C13.1085352,40.1450156 12.9271289,41.1652656 12.8508398,41.8771719 C15.7753125,43.2370469 19.04625,44 22.5,44 L22.5052734,39.3021406 L22.4850586,39.2868437" id="Shape" fill="#C4B6A1"></path>
                        <polygon id="Shape" fill="#786453" points="22.5 38.8695313 22.501 38.8695313 22.501 39.3695313 22.5 39.3695313"></polygon>
                        <path id="Shape" fill="#525353"></path>
                        <path d="M29.4598828,35.7775 C29.4598828,35.7775 29.4614648,35.7824844 29.4646289,35.7917656 C29.4614648,35.7824844 29.4598828,35.7775 29.4598828,35.7775 C29.4598828,35.7775 29.2317187,35.6006406 28.942207,35.2749375 C29.2317187,35.6006406 29.4598828,35.7775 29.4598828,35.7775" id="Shape" fill="#AA9678"></path>
                        <polyline id="Shape" fill="#FFFFFF" points="36.3174609 15.8723125 36.3174609 15.8783125 36.3174609 15.8723125"></polyline>
                        <path id="Shape" fill="#FFFFFF"></path>
                        <path id="Shape" fill="#BBBCBD"></path>
                        <path d="M37.2153516,21.8571719 C37.2160547,21.8630156 37.2178125,21.8681719 37.2185156,21.8740156 C37.219043,21.877625 37.2200977,21.8808906 37.220625,21.8843281 L37.220625,21.8857031 C37.2313477,21.96975 37.2353906,22.0575781 37.2373242,22.1460937 C37.2376758,22.1624219 37.2404883,22.1777187 37.2404883,22.193875 C37.2404883,22.1961094 37.2406641,22.1978281 37.2406641,22.1998906 C37.2406641,22.202125 37.2404883,22.2041875 37.2404883,22.2064219 C37.2403125,22.2239531 37.2373242,22.2402812 37.2371484,22.2576406 C37.2350391,22.3444375 37.2311719,22.4305469 37.2208008,22.5130469 L37.2208008,22.51425 C37.2200977,22.5185469 37.219043,22.5225 37.2183398,22.5267969 C37.2176367,22.5335 37.2155273,22.5395156 37.2146484,22.5460469 C37.2019922,22.6361094 37.1858203,22.7234219 37.1641992,22.8064375 C37.1640234,22.8069531 37.1640234,22.8072969 37.1638477,22.8076406 L37.1638477,22.8078125 L37.1670117,22.804375 C37.1673633,22.803 37.1678906,22.8017969 37.1682422,22.8004219 L37.1682422,22.8005937 L37.7571094,22.1978281 L37.1634961,21.59025 C37.1634961,21.5905937 37.1634961,21.5911094 37.1636719,21.5914531 C37.1858203,21.6761875 37.2026953,21.7652187 37.2153516,21.8571719" id="Shape" fill="#676A6A"></path>
                        <path d="M37.2146484,22.5460469 C37.2162305,22.5347031 37.2192187,22.5245625 37.2208008,22.5130469 C37.2311719,22.4305469 37.2350391,22.3444375 37.2371484,22.2576406 C37.2373242,22.2380469 37.2404883,22.2196562 37.2404883,22.1998906 C37.2404883,22.1815 37.2376758,22.1643125 37.2373242,22.1460937 C37.2353906,22.0575781 37.2313477,21.96975 37.220625,21.8857031 C37.2192187,21.8757344 37.216582,21.8669687 37.2153516,21.8571719 C37.2026953,21.7652187 37.1858203,21.6761875 37.1636719,21.5914531 C37.1559375,21.5618906 37.1452148,21.5355938 37.13625,21.5070625 C37.0829883,21.3348437 37.0103906,21.1827344 36.9242578,21.0564063 C36.9126562,21.0395625 36.9008789,21.0232344 36.8889258,21.0074219 C36.8651953,20.9763125 36.8414648,20.9460625 36.8163281,20.9189062 C36.7790625,20.8795469 36.7405664,20.8432813 36.6999609,20.8132031 C36.6844922,20.8016875 36.6681445,20.7936094 36.6523242,20.7836406 C36.617168,20.7614687 36.5813086,20.7420469 36.5442187,20.7272656 C36.5283984,20.7210781 36.5124023,20.7148906 36.4962305,20.7099062 C36.4438477,20.6940938 36.3902344,20.68275 36.3350391,20.68275 C36.2798437,20.68275 36.2264062,20.6940938 36.1738477,20.7099062 C36.1576758,20.7148906 36.1416797,20.7210781 36.1258594,20.7274375 C36.0887695,20.7420469 36.0529102,20.7614687 36.0175781,20.7836406 C36.0021094,20.7936094 35.9855859,20.8015156 35.970293,20.8130312 C35.9296875,20.8432813 35.8910156,20.8795469 35.85375,20.9189062 C35.8286133,20.9460625 35.8048828,20.9763125 35.7815039,21.0070781 C35.7691992,21.0232344 35.7574219,21.0395625 35.7458203,21.0565781 C35.6596875,21.1829062 35.5869141,21.3350156 35.5338281,21.5072344 C35.5317187,21.5141094 35.5292578,21.5208125 35.5271484,21.5278594 C35.5035937,21.6069219 35.4853125,21.6901094 35.4700195,21.7755313 C35.4654492,21.8016563 35.4592969,21.82675 35.4556055,21.8535625 C35.441543,21.949125 35.4343359,22.0488125 35.4325781,22.1509062 C35.4324023,22.165 35.4301172,22.1784063 35.4301172,22.1925 L35.4336328,22.1925 C35.4336328,23.0305625 35.8391602,23.7098125 36.3392578,23.7098125 C36.4253906,23.7098125 36.5081836,23.6878125 36.5871094,23.6501719 C36.5997656,23.6439844 36.6122461,23.637625 36.6247266,23.6305781 C36.6574219,23.6121875 36.6895898,23.5920781 36.7203516,23.5678438 C36.7374023,23.5544375 36.7533984,23.5382812 36.7697461,23.5231562 C36.8096484,23.4867187 36.8476172,23.4454687 36.8836523,23.3995781 C36.9086133,23.3674375 36.9332227,23.3352969 36.9560742,23.299375 C36.9706641,23.2765156 36.9840234,23.2517656 36.9975586,23.2273594 C37.0228711,23.1816406 37.0467773,23.1340312 37.0683984,23.0835 C37.0764844,23.0652812 37.0847461,23.0475781 37.0921289,23.0288437 C37.1197266,22.9585469 37.1438086,22.8842969 37.1641992,22.8064375 C37.1858203,22.7234219 37.2019922,22.6361094 37.2146484,22.5460469 L37.2146484,22.5460469 L37.2146484,22.5460469 Z M36.3675586,21.9979375 C36.18,21.9979375 36.0279492,21.7430469 36.0279492,21.4288594 C36.0279492,21.1148437 36.18,20.8599531 36.3675586,20.8599531 C36.5551172,20.8599531 36.7069922,21.1148437 36.7069922,21.4288594 C36.7069922,21.7430469 36.5551172,21.9979375 36.3675586,21.9979375 L36.3675586,21.9979375 L36.3675586,21.9979375 Z" id="Shape" fill="#000000"></path>
                        <path d="M36.3675586,20.8599531 C36.18,20.8599531 36.0279492,21.1148438 36.0279492,21.4288594 C36.0279492,21.7430469 36.18,21.9979375 36.3675586,21.9979375 C36.5551172,21.9979375 36.7069922,21.7430469 36.7069922,21.4288594 C36.7069922,21.1148438 36.5551172,20.8599531 36.3675586,20.8599531" id="Shape" fill="#FFFFFF"></path>
                        <path d="M35.5338281,21.5072344 L35.5338281,21.5072344 C35.5869141,21.3350156 35.6596875,21.1829062 35.7458203,21.0565781 C35.7574219,21.0393906 35.7691992,21.0234062 35.7815039,21.0070781 C35.8048828,20.9763125 35.8286133,20.9460625 35.85375,20.9189062 C35.8910156,20.8792031 35.9296875,20.8434531 35.970293,20.8130312 C35.9855859,20.8015156 36.0021094,20.7936094 36.0175781,20.7836406 C36.0527344,20.761125 36.0887695,20.7423906 36.1258594,20.7274375 C36.1416797,20.7210781 36.1576758,20.7148906 36.1738477,20.7099062 C36.2262305,20.69375 36.2798437,20.68275 36.3350391,20.68275 C36.3902344,20.68275 36.4438477,20.69375 36.4962305,20.7099062 C36.5124023,20.7148906 36.5283984,20.7210781 36.5442187,20.7272656 C36.5813086,20.7423906 36.617168,20.761125 36.6523242,20.7836406 C36.6681445,20.7936094 36.6844922,20.8016875 36.6999609,20.8132031 C36.7403906,20.8434531 36.7790625,20.8792031 36.8163281,20.9189062 C36.8414648,20.9460625 36.8651953,20.9763125 36.8889258,21.0074219 C36.9008789,21.0234062 36.9126562,21.0393906 36.9242578,21.0564062 C37.0103906,21.1827344 37.0829883,21.3348437 37.13625,21.5070625 L37.13625,21.5074062 L36.3350391,17.9191719 L35.5336523,21.5072344 L35.5338281,21.5072344" id="Shape" fill="#909393"></path>
                        <path d="M25.7166211,22.166375 C25.7155664,22.0941875 25.7108203,22.0228594 25.7025586,21.9527344 C25.7023828,21.951875 25.7020313,21.9508437 25.7020313,21.9498125 C25.6935938,21.8807187 25.6818164,21.8124844 25.6666992,21.745625 C25.6661719,21.7439062 25.6656445,21.7423594 25.665293,21.7404687 C25.6501758,21.6742969 25.6317188,21.6093281 25.6102734,21.5455625 C25.6097461,21.5441875 25.609043,21.5428125 25.6085156,21.5412656 C25.5868945,21.4775 25.5622852,21.4151094 25.5343359,21.3542656 C25.5339844,21.3530625 25.5331055,21.3518594 25.5325781,21.3504844 C25.5046289,21.2894687 25.4736914,21.2298281 25.4399414,21.1720781 C25.3369336,20.9955625 25.2084375,20.8355469 25.0590234,20.6963281 C24.8693555,20.5198125 24.6462891,20.3769844 24.4003711,20.2779844 C24.3984375,20.2772969 24.3961523,20.2766094 24.3942188,20.27575 C24.2729297,20.2274531 24.1461914,20.1896406 24.0148828,20.1638594 C24.011543,20.1633437 24.0083789,20.1631719 24.0050391,20.1624844 C23.8733789,20.1372187 23.7376758,20.1234687 23.598457,20.1234687 C23.4615234,20.1234687 23.328457,20.1372187 23.1989063,20.1614531 C23.1943359,20.1623125 23.1897656,20.1626562 23.1851953,20.1635156 C23.0563477,20.1886094 22.9320703,20.2253906 22.8127148,20.2721406 C22.8097266,20.2733437 22.8063867,20.274375 22.8032227,20.27575 C22.6822852,20.323875 22.5667969,20.3824844 22.4583398,20.4507188 C22.4578125,20.4510625 22.4574609,20.4512344 22.4571094,20.4512344 C22.3475977,20.5203281 22.2447656,20.598875 22.1501953,20.6856719 L22.1479102,20.6927188 L22.14,20.6944375 C21.9890039,20.8348594 21.8591016,20.9967656 21.7552148,21.1746562 C21.7541602,21.1767187 21.7527539,21.1787812 21.7513477,21.1810156 C21.719707,21.2355 21.6910547,21.2922187 21.6646875,21.3499687 C21.661875,21.3561562 21.6583594,21.362 21.6557227,21.3681875 C21.6316406,21.4216406 21.6108984,21.4769844 21.5915625,21.5326719 C21.5878711,21.5436719 21.5829492,21.5539844 21.5794336,21.5648125 C21.5625586,21.6168906 21.5488477,21.6703437 21.5358398,21.7237969 C21.5325,21.7392656 21.5274023,21.7540469 21.5240625,21.7693437 C21.5128125,21.8222812 21.5050781,21.8764219 21.4978711,21.9307344 C21.4957617,21.9474063 21.4920703,21.9633906 21.4903125,21.9800625 C21.4827539,22.0510469 21.4785352,22.1230625 21.4785352,22.1962812 C21.4785352,22.3334375 21.4929492,22.4671562 21.5191406,22.59675 C21.5194922,22.5993281 21.519668,22.60225 21.5203711,22.605 C21.5469141,22.7344219 21.5859375,22.8592031 21.6360352,22.9786562 C21.6367383,22.980375 21.6370898,22.9820938 21.6379688,22.9836406 C21.7399219,23.2252969 21.8874023,23.4440937 22.0696875,23.6298906 C22.2138281,23.7768437 22.3797656,23.9028281 22.5622266,24.0035469 C22.5631055,24.0040625 22.5639844,24.0045781 22.5648633,24.0050938 C22.6218164,24.036375 22.6807031,24.0645625 22.7406445,24.0906875 C22.7455664,24.09275 22.7503125,24.0955 22.7554102,24.0975625 C22.810957,24.1212813 22.8684375,24.1417344 22.9262695,24.1608125 C22.9361133,24.1640781 22.9456055,24.1682031 22.9554492,24.1712969 C23.0088867,24.1879687 23.064082,24.201375 23.1192773,24.21375 C23.1342188,24.2171875 23.1486328,24.222 23.16375,24.2250937 C23.2173633,24.2359219 23.2725586,24.2433125 23.3281055,24.2503594 C23.3448047,24.25225 23.3613281,24.2560312 23.3783789,24.25775 C23.450625,24.2651406 23.5241016,24.2690937 23.598457,24.2690937 C23.8911328,24.2690937 24.1699219,24.211 24.4235742,24.1059844 C24.5503125,24.0537344 24.6708984,23.989625 24.7835742,23.9150312 C25.0092773,23.7660156 25.2038672,23.5755781 25.3562695,23.3552344 C25.4323828,23.2448906 25.498125,23.1271562 25.5517383,23.0030625 C25.6589648,22.7550469 25.7183789,22.4824531 25.7183789,22.1962812 C25.7183789,22.1912969 25.7176758,22.1866563 25.7176758,22.1820156 C25.7175,22.1766875 25.7167969,22.1717031 25.7166211,22.166375 L25.7166211,22.166375 L25.7166211,22.166375 Z M23.598457,21.9235156 C23.1586523,21.9235156 22.802168,21.5747812 22.802168,21.14475 C22.802168,20.7147187 23.1586523,20.3661562 23.598457,20.3661562 C24.0382617,20.3661562 24.3947461,20.7147187 24.3947461,21.14475 C24.3947461,21.5747812 24.0382617,21.9235156 23.598457,21.9235156 L23.598457,21.9235156 L23.598457,21.9235156 Z" id="Shape" fill="#000000"></path>
                        <path d="M23.598457,20.3661562 C23.1586523,20.3661562 22.802168,20.7147187 22.802168,21.14475 C22.802168,21.5747812 23.1586523,21.9235156 23.598457,21.9235156 C24.0382617,21.9235156 24.3947461,21.5747812 24.3947461,21.14475 C24.3947461,20.7147187 24.0382617,20.3661562 23.598457,20.3661562" id="Shape" fill="#FFFFFF"></path>
                        <path d="M22.14,20.6944375 L22.14,20.6944375 L22.1479102,20.6927187 L22.1501953,20.6856719 L23.6102344,16.3197031 L23.6102344,15.2979062 C23.6102344,15.2903437 23.6100586,15.2863906 23.6100586,15.2863906 C22.7968945,15.1232812 21.9608789,15.0337344 21.1051758,15.0337344 C20.8195312,15.0337344 20.5361719,15.0455937 20.2545703,15.0643281 C20.2136133,15.0670781 20.1724805,15.0694844 20.1313477,15.0725781 C18.6658594,15.181375 17.2226953,15.5548594 15.8864062,16.1512656 C14.7404883,16.6629375 13.6757812,17.3368594 12.7186523,18.1359062 L12.7186523,18.1360781 C12.7183008,18.1365937 12.7175977,18.1369375 12.7170703,18.1374531 C12.4600781,18.3509219 12.2138086,18.57625 11.9733398,18.80725 C11.9283398,18.8502187 11.8826367,18.8928437 11.8381641,18.9365 C11.6117578,19.1595937 11.3929102,19.3900781 11.1812695,19.6272656 C11.1353906,19.679 11.0902148,19.7317656 11.0448633,19.7840156 C10.8323437,20.0292812 10.625625,20.2791875 10.4292773,20.5373437 C10.4129297,20.559 10.3976367,20.5816875 10.3814648,20.6033437 C10.1942578,20.8523906 10.0160156,21.1079687 9.84427734,21.3678437 C9.81070312,21.4185469 9.77625,21.4685625 9.74337891,21.5197812 C9.60451172,21.7351406 9.4753125,21.9563437 9.34699219,22.1780625 L15.9980273,22.1780625 L22.14,20.6944375" id="Shape" fill="#BBBCBD"></path>
                        <path d="M27.7549805,20.2032188 C27.7685156,20.0328906 27.7795898,19.8627344 27.7885547,19.6922344 C27.8006836,19.4615781 27.8089453,19.2305781 27.8135156,18.99975 C27.8170312,18.8204844 27.8165039,18.6410469 27.815625,18.4617813 C27.815625,18.4100469 27.8168555,18.3583125 27.8163281,18.3064063 C27.8114063,17.8444063 27.7929492,17.3818906 27.7641211,16.9188594 C27.7627148,16.918 27.7614844,16.9171406 27.7600781,16.9162813 C27.7595508,16.9150781 27.7588477,16.9140469 27.7583203,16.9130156 C27.7565625,16.9118125 27.749707,16.9080313 27.7433789,16.9045938 C27.7377539,16.9013281 27.732832,16.8985781 27.7222852,16.8927344 C27.6354492,16.8439219 27.4220508,16.7244687 27.2304492,16.6180781 C27.2262305,16.6158438 27.2221875,16.6134375 27.2181445,16.6112031 C27.1696289,16.5843906 27.1228711,16.5584375 27.0805078,16.5350625 C27.0796289,16.5345469 27.07875,16.5342031 27.0780469,16.5336875 C27.0414844,16.5135781 27.0108984,16.4969063 26.9825977,16.4814375 C26.9769727,16.4783438 26.9690625,16.4740469 26.9637891,16.471125 C26.9326758,16.4542813 26.9085938,16.4415625 26.8943555,16.4341719 C26.5886719,16.2791406 26.2766602,16.135625 25.959375,16.0046563 C25.2029883,15.6923594 24.1841602,15.4185625 23.6102344,15.2863906 L23.6102344,16.3197031 L25.0574414,20.6927188 L25.0590234,20.6963281 C25.2084375,20.8355469 25.3369336,20.9955625 25.4399414,21.1719063 L25.4399414,21.1720781 C25.4736914,21.2298281 25.5046289,21.2894688 25.5325781,21.3504844 C25.5332812,21.3518594 25.5339844,21.3530625 25.5343359,21.3542656 C25.5622852,21.4151094 25.5868945,21.4775 25.6085156,21.5412656 C25.609043,21.5428125 25.6097461,21.5441875 25.6102734,21.5455625 C25.6317187,21.6093281 25.6501758,21.6742969 25.665293,21.7404688 C25.6656445,21.7423594 25.6661719,21.7439063 25.6666992,21.745625 C25.6818164,21.8124844 25.6935937,21.8807188 25.7020312,21.9498125 C25.7020312,21.9508438 25.7023828,21.951875 25.7025586,21.9527344 C25.7108203,22.0228594 25.7155664,22.0941875 25.7166211,22.166375 L25.7220703,22.1780625 L27.4941211,22.1780625 C27.6138281,21.5440156 27.6973242,20.9015469 27.7502344,20.2563281 C27.7514648,20.238625 27.7535742,20.2209219 27.7549805,20.2032188" id="Shape" fill="#E3DDDB"></path>
                        <path id="Shape" fill="#FCB03F"></path>
                        <path d="M22.1501953,20.6856719 L22.1501953,20.6856719 C22.2447656,20.598875 22.3475977,20.5203281 22.4571094,20.4512344 C22.4574609,20.4512344 22.4578125,20.4510625 22.4583398,20.4507188 C22.5667969,20.3824844 22.6822852,20.323875 22.8032227,20.27575 C22.8063867,20.274375 22.8097266,20.2735156 22.8127148,20.2721406 C22.9320703,20.2253906 23.0563477,20.1886094 23.1851953,20.1635156 C23.1897656,20.1626563 23.1941602,20.1623125 23.1989063,20.1614531 C23.328457,20.1372188 23.4615234,20.1234687 23.598457,20.1234687 C23.7376758,20.1234687 23.8733789,20.1372188 24.0050391,20.1624844 C24.0083789,20.1631719 24.011543,20.1633437 24.0148828,20.1638594 C24.1461914,20.1896406 24.2729297,20.2274531 24.3942188,20.27575 C24.3961523,20.2766094 24.3982617,20.2772969 24.4003711,20.2779844 C24.6462891,20.3769844 24.8693555,20.5198125 25.0590234,20.6963281 L25.0574414,20.6927188 L23.6102344,16.3197031 L22.1501953,20.6856719" id="Shape" fill="#909393"></path>
                        <path d="M21.6360352,22.9786563 C21.5859375,22.8592031 21.5469141,22.7344219 21.5203711,22.605 C21.519668,22.60225 21.5194922,22.5993281 21.5191406,22.59675 C21.4929492,22.4671562 21.4785352,22.3334375 21.4785352,22.1962812 C21.4785352,22.1230625 21.4827539,22.0510469 21.4903125,21.9800625 C21.4920703,21.9633906 21.4957617,21.9474063 21.4978711,21.9307344 C21.5050781,21.8764219 21.5128125,21.8222812 21.5240625,21.7693438 C21.5274023,21.7540469 21.5325,21.7392656 21.5358398,21.7237969 C21.5488477,21.6703438 21.5625586,21.6168906 21.5794336,21.5648125 C21.583125,21.5539844 21.5876953,21.5436719 21.5915625,21.5326719 C21.6108984,21.4769844 21.6316406,21.4216406 21.6557227,21.3681875 C21.6583594,21.362 21.661875,21.3561563 21.6646875,21.3499688 C21.6910547,21.2922187 21.719707,21.2355 21.7513477,21.1810156 C21.7527539,21.1787813 21.7541602,21.1767187 21.7552148,21.1746562 C21.8591016,20.9967656 21.9890039,20.8348594 22.14,20.6944375 L15.9980273,22.1780625 L15.98625,22.1780625 L22.0696875,23.6298906 C21.8874023,23.4440938 21.7399219,23.2252969 21.6379688,22.9836406 C21.6370898,22.9820938 21.6367383,22.980375 21.6360352,22.9786563" id="Shape" fill="#676A6A"></path>
                        <path d="M35.4556055,21.8535625 C35.4594727,21.82675 35.4652734,21.8016562 35.4700195,21.7755312 C35.4853125,21.6901094 35.5035938,21.6069219 35.5271484,21.5278594 C35.5297852,21.5189219 35.5308398,21.5087812 35.5336523,21.5000156 L36.3350391,17.9119531 L36.3348633,15.866125 C35.6800781,15.3372656 34.9788867,15.0481719 34.2488672,15.0481719 C33.3263672,15.0481719 32.4662695,15.5462656 31.8230859,16.1614062 C31.1192578,16.8346406 30.5753906,17.6816406 30.1355859,18.536375 C30.1153711,18.5757344 30.0946289,18.6135469 30.0745898,18.6530781 C30.2101172,18.7678906 30.3442383,18.88425 30.4766016,19.0026719 C30.7761328,19.270625 31.0691602,19.545625 31.3583203,19.8244062 C31.4929687,19.9543437 31.6251562,20.0870312 31.7576953,20.2192031 C31.8983203,20.3592812 32.0391211,20.4990156 32.1776367,20.6413281 C32.3557031,20.824375 32.5321875,21.0089687 32.7069141,21.1954531 C32.7805664,21.2738281 32.854043,21.3525469 32.9268164,21.4316094 C33.1375781,21.6596875 33.3472852,21.8887969 33.5534766,22.121 L33.5538281,22.1213437 C33.588457,22.15675 33.6127148,22.1821875 33.6220312,22.1925 L35.4294141,22.1925 C35.4294141,22.1782344 35.4324023,22.1651719 35.4325781,22.1509062 C35.4343359,22.0488125 35.441543,21.949125 35.4556055,21.8535625" id="Shape" fill="#E3DDDB"></path>
                        <path id="Shape" fill="#E3DDDB"></path>
                        <path d="M8.25732422,24.4359844 C8.26259766,24.42275 8.26822266,24.4096875 8.27349609,24.3964531 C8.38986328,24.0989375 8.51730469,23.805375 8.65107422,23.5145625 C8.68851562,23.4336094 8.72701172,23.3533438 8.76568359,23.2729063 C8.87537109,23.0446563 8.99138672,22.8195 9.11162109,22.5964063 C9.16048828,22.5056563 9.20830078,22.4145625 9.25892578,22.3246719 C9.286875,22.275 9.31851562,22.2275625 9.34699219,22.1780625 C9.4753125,21.9563438 9.60451172,21.7351406 9.74337891,21.5197813 C9.77625,21.4683906 9.81070312,21.4185469 9.84427734,21.3678438 C10.0160156,21.1079688 10.1942578,20.8523906 10.3814648,20.6033438 C10.3976367,20.5816875 10.4129297,20.559 10.4292773,20.5373438 C10.625625,20.2791875 10.8323437,20.0292813 11.0448633,19.7840156 C11.0902148,19.7317656 11.1352148,19.6791719 11.1812695,19.6272656 C11.3929102,19.3900781 11.6117578,19.1595938 11.8381641,18.9365 C11.8828125,18.8928438 11.9283398,18.8502188 11.9733398,18.80725 C12.2138086,18.57625 12.4600781,18.3509219 12.7170703,18.1374531 C12.7175977,18.1369375 12.7183008,18.1364219 12.7186523,18.1359063 C13.7295703,14.8249063 16.9938281,12.79025 20.6537695,12.79025 C22.1268164,12.79025 23.5917773,13.2053281 24.847207,13.95625 C26.1349805,14.7264219 27.0130078,15.4788906 27.6946875,16.79425 C27.6980273,16.8009531 27.701543,16.8074844 27.7048828,16.8140156 C27.7221094,16.8473594 27.7414453,16.8793281 27.7583203,16.9130156 C27.7588477,16.9140469 27.7595508,16.9150781 27.7600781,16.9162813 C27.7614844,16.9171406 27.7627148,16.918 27.7641211,16.9188594 C28.3343555,17.2622656 28.8783984,17.6515625 29.3955469,18.0781563 C29.5679883,18.2204688 29.7374414,18.3667344 29.9039062,18.517125 C29.95875,18.5662813 30.0151758,18.6130313 30.0693164,18.6630469 C30.0703711,18.6609844 30.07125,18.6589219 30.0724805,18.6570313 C30.0730078,18.6556563 30.0737109,18.6541094 30.0744141,18.6529063 C30.0930469,18.6156094 30.1113281,18.577625 30.1301367,18.5408438 C30.6458789,15.3582344 32.2845117,13.6228125 33.9779883,13.6228125 C35.2545117,13.6228125 36.1824609,14.3670313 36.8833008,16.3704063 L36.8905078,16.3918906 C36.8910352,16.3925781 36.8917383,16.3934375 36.8922656,16.3942969 C37.0901953,16.6045 37.2830273,16.8361875 37.4700586,17.0900469 L37.469707,17.089875 C37.4733984,17.0946875 37.4772656,17.0991563 37.480957,17.1041406 L37.4807812,17.1039688 L37.480957,17.1041406 C37.4909766,17.1331875 37.4995898,17.1630938 37.5092578,17.1921406 L37.5092578,17.1919688 L37.4828906,17.0876406 C35.3761523,10.9891719 29.4769336,6.59845313 22.5286523,6.59845313 C13.813418,6.59845313 6.74841797,13.5064531 6.74841797,22.0280156 C6.74841797,23.7079219 7.02298828,25.3252656 7.53275391,26.8302031 C7.53328125,26.8274531 7.53416016,26.8245313 7.53486328,26.8214375 C7.63505859,26.3675156 7.75511719,25.9163438 7.89486328,25.4699844 C8.00384766,25.1221094 8.12496094,24.7769844 8.25732422,24.4359844" id="Shape" fill="#525353"></path>
                        <path d="M37.7186133,22.1985156 L37.1682422,22.8005938 L37.1682422,22.8004219 C37.1678906,22.8017969 37.1673633,22.803 37.1670117,22.804375 C37.1460937,22.8836094 37.1204297,22.9575156 37.0921289,23.0288438 C37.0847461,23.0475781 37.0764844,23.0652813 37.0683984,23.0835 C37.0466016,23.1340313 37.0230469,23.1818125 36.9975586,23.2273594 C36.9840234,23.2517656 36.9706641,23.2765156 36.9560742,23.299375 C36.9332227,23.335125 36.9086133,23.3676094 36.8836523,23.3995781 C36.8476172,23.4454688 36.8096484,23.4867188 36.7697461,23.5231562 C36.7533984,23.5381094 36.7375781,23.5544375 36.7203516,23.5678438 C36.6895898,23.5920781 36.6574219,23.6121875 36.6247266,23.6305781 C36.6120703,23.6374531 36.5997656,23.6439844 36.5871094,23.6501719 C36.5081836,23.6878125 36.4253906,23.7098125 36.3392578,23.7098125 C35.8391602,23.7098125 35.4336328,23.0305625 35.4336328,22.1925 L33.616582,22.1925 C33.6171094,22.1930156 33.6172852,22.1935313 33.6176367,22.193875 C33.9551367,22.57475 34.2866602,22.9607813 34.6137891,23.3505938 C34.6176563,23.3554063 34.6215234,23.3600469 34.6255664,23.3646875 C34.9435547,23.7441875 35.2567969,24.127125 35.5666992,24.5126406 C35.5819922,24.5315469 35.5971094,24.5502813 35.6124023,24.5691875 C35.9063086,24.935625 36.196875,25.3044688 36.4849805,25.6743437 C36.5129297,25.7099219 36.5410547,25.7456719 36.5690039,25.7815938 C36.8736328,26.1734688 37.1754492,26.566375 37.4751563,26.9597969 C37.4772656,26.9627187 37.4791992,26.9652969 37.4814844,26.9680469 C38.0005664,25.4662031 38.290957,23.86175 38.3090625,22.1925 L37.7982422,22.1735938 L37.7186133,22.1985156" id="Shape" fill="#FFFFFF"></path>
                        <path d="M20.1313477,15.0725781 C20.1724805,15.0694844 20.2136133,15.0670781 20.2545703,15.0643281 C20.5361719,15.0455937 20.8195313,15.0337344 21.1051758,15.0337344 C21.9608789,15.0337344 22.7968945,15.1232812 23.6100586,15.2863906 L23.6102344,15.2863906 C24.1841602,15.4185625 25.2029883,15.6923594 25.959375,16.0046562 C26.2766602,16.135625 26.5886719,16.2791406 26.8943555,16.4341719 C26.9085937,16.4415625 26.9326758,16.4544531 26.9637891,16.471125 C26.9690625,16.4740469 26.9769727,16.4783437 26.9825977,16.4814375 C27.0108984,16.4969062 27.0418359,16.5135781 27.0780469,16.5336875 C27.07875,16.5342031 27.0796289,16.5345469 27.0805078,16.5350625 C27.1230469,16.5586094 27.1694531,16.5843906 27.2181445,16.6112031 C27.2221875,16.6134375 27.2262305,16.6158437 27.2304492,16.6180781 C27.4248633,16.7258437 27.6400195,16.8466719 27.7222852,16.8927344 C27.732832,16.8985781 27.7377539,16.9013281 27.7433789,16.9045937 C27.7475977,16.907 27.7567383,16.9119844 27.7583203,16.9130156 C27.7414453,16.8793281 27.7221094,16.8473594 27.7048828,16.8140156 C27.701543,16.8074844 27.6980273,16.8009531 27.6946875,16.79425 C27.0130078,15.4788906 25.9635937,14.3507031 24.6758203,13.5805312 C23.4203906,12.8296094 21.9554297,12.4145312 20.482207,12.4145312 C16.8224414,12.4145312 13.7295703,14.8249062 12.7186523,18.1359062 C13.6757813,17.3368594 14.7404883,16.6629375 15.8864063,16.1512656 C17.2226953,15.5548594 18.6658594,15.181375 20.1313477,15.0725781" id="Shape" fill="#000000"></path>
                        <path d="M37.480957,17.1041406 L37.4807812,17.1039687 L37.480957,17.1041406 C37.4772656,17.0991563 37.4733984,17.0946875 37.469707,17.089875 L37.4700586,17.0900469 C37.2830273,16.8361875 37.0901953,16.6045 36.8922656,16.3942969 C36.8919141,16.3936094 36.8912109,16.39275 36.8906836,16.3922344 C36.8912109,16.39275 36.8919141,16.3936094 36.8922656,16.3942969 C36.8906836,16.3924062 36.8889258,16.3901719 36.887168,16.3882812 C36.797168,16.2930625 36.7066406,16.2021406 36.6145312,16.1158594 C36.5799023,16.083375 36.544043,16.0550156 36.5090625,16.0239062 C36.4512305,15.9725156 36.39375,15.9194062 36.3350391,15.8723125 L36.3350391,17.9191719 L37.1364258,21.5075781 L37.1364258,21.5074063 C37.1452148,21.53525 37.1557617,21.561375 37.1634961,21.59025 L37.7186133,22.1985156 L37.7240625,22.1925 L38.3050195,22.1925 C38.3057227,22.1399062 38.3090625,22.088 38.3090625,22.0352344 L38.3090625,22.034375 C38.3088867,20.3419219 38.0244727,18.7156406 37.5092578,17.1919687 L37.5092578,17.1921406 C37.4995898,17.1630937 37.4909766,17.1331875 37.480957,17.1041406" id="Shape" fill="#BBBCBD"></path>
                        <path d="M31.8230859,16.1614062 C32.4662695,15.5462656 33.3263672,15.0481719 34.2488672,15.0481719 C34.9788867,15.0481719 35.6800781,15.3372656 36.3348633,15.866125 C36.3348633,15.866125 36.3350391,15.8707656 36.3350391,15.8723125 L36.3350391,15.8733438 L36.3350391,15.8723125 C36.39375,15.9194062 36.4512305,15.9725156 36.5090625,16.0239062 C36.544043,16.0550156 36.5799023,16.083375 36.6145312,16.1158594 C36.7066406,16.2021406 36.797168,16.2930625 36.887168,16.3882812 C36.8889258,16.3901719 36.8906836,16.3924063 36.8922656,16.3942969 C36.8919141,16.3936094 36.8912109,16.39275 36.8906836,16.3922344 L36.8905078,16.3920625 L36.8833008,16.3704062 C36.1824609,14.3670313 35.0516602,13.0654219 33.7754883,13.0654219 C32.0818359,13.0654219 30.6458789,15.3582344 30.1301367,18.5408438 L30.1355859,18.536375 C30.5753906,17.6816406 31.1192578,16.8346406 31.8230859,16.1614062" id="Shape" fill="#000000"></path>
                        <path d="M29.5345898,35.7218125 C29.5345898,35.7218125 29.3066016,35.545125 29.0170898,35.2194219 C28.9492383,35.1431094 28.8792773,35.0614688 28.8065039,34.9684844 C28.7518359,34.898875 28.6964648,34.8244531 28.6410938,34.7455625 C28.6041797,34.6929688 28.5676172,34.6383125 28.5312305,34.5819375 C28.4217188,34.4126406 28.3343555,34.2065625 28.2380273,34.0028906 C28.126582,33.7670781 28.1262305,33.6101563 28.0622461,33.3905 C28.016543,33.2334063 27.9785742,33.0692656 27.9502734,32.8984219 C27.9079102,32.6423281 27.8876953,32.3711094 27.8970117,32.0857969 C27.9019336,31.928875 27.918457,31.7664531 27.9425391,31.6011094 C27.9657422,31.442125 27.9977344,31.2793594 28.0404492,31.1131563 C28.1680664,30.6142031 28.3886719,30.0827656 28.7328516,29.5217656 C28.7337305,29.5202188 28.8195117,29.3311563 28.8203906,29.3296094 C28.9328906,29.1463906 28.9578516,29.1544688 29.0647266,28.9779531 C30.5701172,26.4938437 31.3822266,24.6154219 30.9849609,21.7231094 C30.9564844,21.5166875 30.8789648,21.0541719 30.8366016,20.8369219 C30.8141016,20.9871406 30.7291992,21.4658125 30.7267383,21.476125 C30.7117969,21.542125 30.6708398,21.6137969 30.6553711,21.6586562 C30.0014648,23.551 28.9720898,24.9430156 27.490957,26.5148125 C27.2902148,26.7277656 27.0799805,26.9438125 26.8648242,27.1619219 C26.5027148,27.528875 26.1230273,27.9037344 25.7213672,28.2945781 C25.5610547,28.4504688 25.3975781,28.6085938 25.2312891,28.7698125 C25.0785352,28.917625 24.8885156,29.2337031 24.6617578,29.4665938 C24.5218359,29.8497031 24.3627539,30.2817969 24.2282813,30.7362344 C24.1676367,30.7137188 24.1098047,30.6936094 24.0481055,30.6702344 C21.170918,29.5820938 19.2445313,28.1282031 19.2445313,28.1282031 C19.2445313,28.1282031 20.7267187,30.0152188 23.2238672,31.7865625 C23.4655664,31.9580938 23.7039258,32.1065938 23.9373633,32.23825 C23.8343555,33.8325625 24.5536523,35.3631094 27.8005078,35.8196094 C28.3494727,35.8967813 28.9116211,35.8931719 29.4778125,35.8307813 C29.4721875,35.8142813 29.5094531,35.814625 29.5064648,35.8055156 C29.5033008,35.7962344 29.5366992,35.7718281 29.5366992,35.7718281" id="Shape" fill="#000000"></path>
                        <path d="M27.7978711,31.6179531 C30.680332,32.0727344 34.9463672,31.9981406 39.375,29.9707031 C39.4816992,29.9218906 39.5992969,30.0504531 39.7059961,29.9992344 C39.7059961,29.9992344 36.6792188,33.022 33.0644531,34.7309531 C32.9588086,34.7807969 32.8545703,34.8339062 32.7478711,34.8813437 C32.3985938,35.0374062 32.0433398,35.1733594 31.6866797,35.2988281 C30.9872461,35.5446094 30.2784961,35.7310937 29.5748438,35.8172031 C29.5425,35.8213281 29.5101563,35.8273437 29.4778125,35.8307812 C29.4721875,35.8142812 29.4676172,35.800875 29.4646289,35.7917656 C29.4614648,35.7824844 29.4598828,35.7775 29.4598828,35.7775 C29.4598828,35.7775 29.2317188,35.6006406 28.942207,35.2749375 C28.8743555,35.198625 28.8043945,35.1169844 28.7317969,35.024 C28.6771289,34.9543906 28.6217578,34.8799687 28.5663867,34.8010781 C28.5294727,34.7484844 28.4927344,34.6938281 28.4563477,34.6374531 C28.3470117,34.4681562 28.2406641,34.2809844 28.1443359,34.0774844 C28.0481836,33.8739844 27.9620508,33.6538125 27.8934961,33.418 C27.8476172,33.2609062 27.8096484,33.0967656 27.7813477,32.9259219 C27.7389844,32.6696562 27.7189453,32.3986094 27.7280859,32.1132969 C27.7330078,31.9562031 27.7495313,31.7939531 27.7736133,31.6286094 L27.7978711,31.6179531" id="Shape" fill="#9F2254"></path>
                        <path d="M25.7319141,28.4092187 C26.13375,28.018375 26.5134375,27.6435156 26.8755469,27.2765625 C27.0905273,27.0584531 27.3009375,26.8424062 27.5016797,26.6294531 C28.9826367,25.0576562 30.0698438,23.58675 30.7239258,21.6944063 C30.7392188,21.6495469 30.7546875,21.5904219 30.7696289,21.5239062 C30.7720898,21.5135937 30.774375,21.5037969 30.7766602,21.4931406 C30.7919531,21.4225 30.8068945,21.3439531 30.8218359,21.2554375 C30.8278125,21.1944219 31.023457,21.0713594 31.0289063,21.014125 C30.8649023,20.1901563 30.4869727,19.3239063 30.0744141,18.6625312 C30.0754688,18.6652812 30.0763477,18.6678594 30.0772266,18.6706094 C30.0756445,18.6692344 30.0703711,18.6640781 30.0693164,18.6630469 C30.0151758,18.6130312 29.95875,18.5662812 29.9039063,18.517125 C29.7374414,18.3667344 29.5679883,18.2204688 29.3955469,18.0781562 C28.8782227,17.6515625 28.3343555,17.2622656 27.7641211,16.9188594 C27.7929492,17.3818906 27.8114063,17.8444062 27.8163281,18.3064063 C27.8170312,18.3583125 27.815625,18.4100469 27.815625,18.4617813 C27.8165039,18.6410469 27.8170312,18.8204844 27.8135156,18.99975 C27.8089453,19.2305781 27.8006836,19.4615781 27.7885547,19.6922344 C27.7795898,19.8627344 27.7685156,20.0328906 27.7549805,20.2032188 C27.7535742,20.2209219 27.7514648,20.238625 27.7502344,20.2563281 C27.6973242,20.9015469 27.6138281,21.5440156 27.4941211,22.1780625 L27.2859961,23.1403906 C26.8512891,24.8636094 25.9683398,26.4266406 25.2423633,28.0405469 C25.0498828,28.4685156 24.8672461,28.9012969 24.7071094,29.3421562 C24.6925195,29.3825469 24.676875,29.425 24.6617578,29.4665938 C24.8885156,29.2337031 25.0892578,29.0322656 25.2418359,28.8844531 C25.4083008,28.7234062 25.5717773,28.5651094 25.7319141,28.4092187" id="Shape" fill="#FCB03F"></path>
                        <path d="M16.2066797,37.6772344 C17.2629492,37.2203906 18.2404687,36.9335312 19.4023828,36.7095781 C19.3957031,36.4629375 19.3842773,36.2169844 19.3630078,35.9725781 C19.8606445,34.7103281 20.3199609,33.44 20.7355078,32.1624531 C19.9945898,32.23275 19.2591211,32.3444687 18.5322656,32.495375 C17.9931445,32.6072656 17.4612305,32.7478594 16.9337109,32.9032344 C16.5099023,33.0280156 16.0917187,33.1713594 15.676875,33.3238125 L17.3170898,33.71225 L15.9973242,37.7626562 L16.2066797,37.6772344" id="Shape" fill="#525353"></path>
                        <path d="M36.4849805,25.6743437 C36.196875,25.3044688 35.9063086,24.935625 35.6124023,24.5691875 C35.5972852,24.5502813 35.5818164,24.5315469 35.5666992,24.5126406 C35.2567969,24.127125 34.9435547,23.7441875 34.6255664,23.3646875 C34.6215234,23.3600469 34.6176563,23.3554063 34.6137891,23.3505938 C34.2866602,22.9607813 33.9551367,22.57475 33.6176367,22.193875 C33.5963672,22.1696406 33.5750977,22.1450625 33.5534766,22.121 C33.3472852,21.8887969 33.1375781,21.6596875 32.9268164,21.4316094 C32.8538672,21.3527188 32.7805664,21.2738281 32.7069141,21.1954531 C32.5321875,21.0089688 32.3557031,20.824375 32.1776367,20.6413281 C32.0389453,20.4991875 31.8984961,20.3591094 31.7576953,20.2192031 C31.6251562,20.0870313 31.4929687,19.9543438 31.3583203,19.8244063 C31.0689844,19.5457969 30.7761328,19.270625 30.4766016,19.0026719 C30.3440625,18.88425 30.2099414,18.7677188 30.0744141,18.6529063 C30.0737109,18.6541094 30.0730078,18.6556563 30.0724805,18.6570313 C30.3575977,19.4583125 30.6829688,20.2695625 30.845918,21.1052188 C30.8882812,21.3226406 30.9232617,21.5340469 30.9517383,21.7406406 C31.3490039,24.6327813 30.4011914,26.5211719 28.8959766,29.0052813 C28.7878711,29.1833438 28.6773047,29.3645 28.5639258,29.5490938 C28.2197461,30.1104375 27.9993164,30.6417031 27.8715234,31.1406562 C27.8289844,31.3068594 27.7968164,31.469625 27.7736133,31.6286094 C30.7255078,32.0943906 35.1643359,32.1811875 39.7059961,29.9992344 C39.7059961,29.9992344 38.8153125,28.7192813 37.4751563,26.9597969 C37.1754492,26.566375 36.8736328,26.1734688 36.5690039,25.7815938 C36.5412305,25.7456719 36.5129297,25.7099219 36.4849805,25.6743437" id="Shape" fill="#DF0067"></path>
                        <path d="M15.8405273,38.4865938 L17.3170898,33.71225 L15.676875,33.3238125 C15.3094922,33.4587344 14.9454492,33.6025938 14.5861523,33.759 L13.1238281,38.4865938 L14.7563086,38.5115156 L15.8405273,38.4865938" id="Shape" fill="#AA9678"></path>
                        <path d="M16.8785156,36.421 C17.0226563,36.4751406 17.1692578,36.5239531 17.3155078,36.5739688 C18.9476367,37.1334219 20.7008789,37.4414219 22.5288281,37.4414219 C24.6130664,37.4414219 26.6009766,37.0423281 28.4224219,36.3245781 C28.51875,36.2867656 28.6131445,36.2451719 28.708418,36.2054688 C28.8631055,36.1410156 29.0167383,36.0748437 29.1687891,36.0059219 C29.3048437,35.9440469 29.4408984,35.8826875 29.5748437,35.8172031 C29.5425,35.8213281 29.5101562,35.8273437 29.4778125,35.8307813 C28.9116211,35.8931719 28.3494727,35.8967813 27.8005078,35.8196094 C24.5536523,35.3631094 23.8343555,33.8325625 23.9373633,32.23825 C23.7039258,32.1065938 23.4655664,31.9580937 23.2238672,31.7865625 C20.7267187,30.0152187 19.2445313,28.1282031 19.2445313,28.1282031 C19.2445313,28.1282031 21.170918,29.5820938 24.0481055,30.6702344 C24.1098047,30.6936094 24.1676367,30.7137188 24.2282812,30.7362344 C24.3627539,30.2817969 24.5218359,29.8497031 24.6617578,29.4665938 C24.676875,29.425 24.6925195,29.3825469 24.7071094,29.3421563 C24.8672461,28.9012969 25.0498828,28.4685156 25.2423633,28.0405469 C25.9683398,26.4266406 26.8512891,24.8636094 27.2859961,23.1403906 L27.4941211,22.1780625 L25.7183789,22.1780625 L25.7182031,22.1782344 C25.7182031,22.1792656 25.7183789,22.1804688 25.7183789,22.1816719 L25.7176758,22.1820156 C25.7176758,22.1866563 25.7183789,22.1912969 25.7183789,22.1962813 C25.7183789,22.4824531 25.6589648,22.7550469 25.5517383,23.0030625 C25.498125,23.1271563 25.4323828,23.2448906 25.3562695,23.3552344 C25.2038672,23.5755781 25.0092773,23.7660156 24.7835742,23.9150313 C24.6708984,23.989625 24.5503125,24.0537344 24.4235742,24.1059844 C24.1699219,24.211 23.8911328,24.2690938 23.598457,24.2690938 C23.5241016,24.2690938 23.450625,24.2651406 23.3783789,24.25775 C23.3613281,24.2560313 23.3449805,24.2524219 23.3281055,24.2503594 C23.2725586,24.2433125 23.2173633,24.2359219 23.16375,24.2250938 C23.1486328,24.2218281 23.1342187,24.2171875 23.1192773,24.21375 C23.064082,24.201375 23.0088867,24.1879687 22.9554492,24.1712969 C22.9456055,24.1680313 22.9361133,24.1640781 22.9262695,24.1608125 C22.8684375,24.1417344 22.810957,24.1212813 22.7554102,24.0975625 C22.7503125,24.0955 22.7455664,24.0929219 22.7406445,24.0906875 C22.6807031,24.0645625 22.6218164,24.036375 22.5648633,24.0050938 L22.5622266,24.0035469 C22.3797656,23.9028281 22.2138281,23.7768438 22.0696875,23.6298906 L15.98625,22.1780625 L9.34699219,22.1780625 C9.31851563,22.2275625 9.286875,22.275 9.25892578,22.3246719 C9.20830078,22.4145625 9.16048828,22.5058281 9.11162109,22.5964063 C8.99138672,22.8195 8.87537109,23.0446563 8.76568359,23.2729063 C8.72701172,23.3531719 8.68851563,23.4336094 8.65107422,23.5145625 C8.51730469,23.805375 8.38986328,24.0989375 8.27349609,24.3964531 C8.26822266,24.4096875 8.26259766,24.42275 8.25732422,24.4359844 C8.12496094,24.7769844 8.00384766,25.1221094 7.89486328,25.4699844 C7.75511719,25.9163438 7.63505859,26.3675156 7.53486328,26.8214375 C8.58005859,29.9385625 10.6136719,32.6170625 13.2720117,34.5049375 C13.3493555,34.5597656 13.430918,34.6085781 13.5093164,34.6622031 C13.9589648,34.9695156 14.4235547,35.2570625 14.9055469,35.5179688 C15.5383594,35.8608594 16.1961328,36.1649063 16.8785156,36.421" id="Shape" fill="#FFFFFF"></path>
                        <path d="M32.7972656,40.1111562 C32.7564844,39.7010625 32.7311719,39.2875312 32.7311719,38.8695312 C32.7311719,38.61825 32.5228711,38.4142344 32.2657031,38.4142344 L12.7342969,38.4142344 C12.4771289,38.4142344 12.2686523,38.61825 12.2686523,38.8695312 C12.2686523,39.2875312 12.2435156,39.7010625 12.2025586,40.1111562 C12.157207,40.5647344 12.0856641,41.0122969 11.9917969,41.4531562 C12.2749805,41.5995937 12.5604492,41.7420781 12.8508398,41.8771719 C13.0417383,41.0569844 13.1595117,40.2142812 13.1904492,39.3543906 C13.1909766,39.3445937 13.1920312,39.334625 13.1923828,39.3248281 L31.8076172,39.3248281 C31.8079687,39.334625 31.8090234,39.3445937 31.809375,39.3543906 C31.8404883,40.2142812 31.9582617,41.0569844 32.1491602,41.8771719 C32.4395508,41.7420781 32.7250195,41.5995937 33.0082031,41.4531562 C32.9143359,41.0122969 32.842793,40.5647344 32.7972656,40.1111562" id="Shape" fill="#8B7460"></path>
                    </g>
                </g>
            </g>
        </g>
    </g>
</svg>