<?xml version="1.0" encoding="UTF-8" standalone="no"?>
<svg width="199px" height="45px" viewBox="0 0 199 45" version="1.1" xmlns="http://www.w3.org/2000/svg" xmlns:xlink="http://www.w3.org/1999/xlink">
    <!-- Generator: Sketch 3.8.3 (29802) - http://www.bohemiancoding.com/sketch -->
    <title>wordpress-logo</title>
    <desc>Created with Sketch.</desc>
    <defs></defs>
    <g id="Page-1" stroke="none" stroke-width="1" fill="none" fill-rule="evenodd">
        <g id="Wordpress" transform="translate(-36.000000, -35.000000)">
            <g id="wordpress-logo" transform="translate(36.000000, 35.000000)">
                <path d="M115.279741,31.5445078 L114.972487,31.5445078 C113.393731,31.5445078 113.17456,31.1496891 113.17456,29.1325907 L113.17456,19.6165285 L115.279741,19.6165285 C119.840363,19.6165285 120.673523,22.9486528 120.673523,25.5362176 C120.673523,28.2113472 119.840363,31.5445078 115.279741,31.5445078 L115.279741,31.5445078 Z M96.7735233,25.4481347 L96.7735233,19.6165285 L98.5714508,19.6165285 C100.545026,19.6165285 101.422228,20.9755959 101.422228,22.5538342 C101.422228,24.0890674 100.545026,25.4481347 98.5714508,25.4481347 L96.7735233,25.4481347 Z M115.148135,18.3004663 L107.298394,18.3004663 L107.298394,19.1336269 C109.753834,19.1336269 110.148653,19.6595337 110.148653,22.7735233 L110.148653,28.3869948 C110.148653,31.5004663 109.753834,32.0709326 107.298394,32.0709326 C105.412902,31.8077202 104.140881,30.7989119 102.386477,28.8693782 L100.369896,26.6766321 C103.088549,26.1942487 104.535699,24.483886 104.535699,22.5538342 C104.535699,20.1424352 102.47456,18.3004663 98.6154922,18.3004663 L90.8968394,18.3004663 L90.8968394,19.1336269 C93.3527979,19.1336269 93.7470984,19.6595337 93.7470984,22.7735233 L93.7470984,28.3869948 C93.7470984,31.5004663 93.3527979,32.0709326 90.8968394,32.0709326 L90.8968394,32.9035751 L99.6237824,32.9035751 L99.6237824,32.0709326 C97.168342,32.0709326 96.7735233,31.5004663 96.7735233,28.3869948 L96.7735233,26.8082383 L97.5191192,26.8082383 L102.386477,32.9035751 L115.148135,32.9035751 C121.419637,32.9035751 124.13829,29.5709326 124.13829,25.5797409 C124.13829,21.5895855 121.419637,18.3004663 115.148135,18.3004663 L115.148135,18.3004663 Z" id="Fill-1" fill="#006B8A"></path>
                <path d="M66.4713472,27.0715026 L69.4972539,18.1243523 C70.374456,15.5373057 69.9796373,14.792228 67.1729016,14.792228 L67.1729016,13.9145078 L75.4179793,13.9145078 L75.4179793,14.792228 C72.655285,14.792228 71.9972539,15.4497409 70.9008808,18.6512953 L65.9008808,33.6492228 L65.3314508,33.6492228 L60.8578756,19.9227979 L56.2972539,33.6492228 L55.7273057,33.6492228 L50.8594301,18.6512953 C49.8070984,15.4497409 49.1050259,14.792228 46.5615026,14.792228 L46.5615026,13.9145078 L56.2972539,13.9145078 L56.2972539,14.792228 C53.7096891,14.792228 53.0081347,15.4056995 53.9293782,18.1243523 L56.8672021,27.0715026 L61.2967358,13.9145078 L62.1298964,13.9145078 L66.4713472,27.0715026 Z" id="Fill-3" fill="#006B8A"></path>
                <path d="M81.3808808,19.09 C77.3466839,19.09 75.943057,22.7293782 75.943057,25.5796373 C75.943057,28.474456 77.3466839,32.070829 81.3808808,32.070829 C85.4596373,32.070829 86.8627461,28.474456 86.8627461,25.5796373 C86.8627461,22.7293782 85.4596373,19.09 81.3808808,19.09 M81.3808808,33.4739378 C76.5570466,33.4739378 72.6098964,29.9216062 72.6098964,25.5796373 C72.6098964,21.282228 76.5570466,17.7298964 81.3808808,17.7298964 C86.2052332,17.7298964 90.1518653,21.282228 90.1518653,25.5796373 C90.1518653,29.9216062 86.2052332,33.4739378 81.3808808,33.4739378" id="Fill-5" fill="#006B8A"></path>
                <path d="M134.004456,15.4934197 L131.504974,15.4934197 L131.504974,23.1245078 L134.004456,23.1245078 C136.460415,23.1245078 137.600311,21.4141451 137.600311,19.3530052 C137.600311,17.248342 136.460415,15.4934197 134.004456,15.4934197 M134.969223,32.0265803 L134.969223,32.9037824 L124.926736,32.9037824 L124.926736,32.0265803 C127.865078,32.0265803 128.391503,31.2815026 128.391503,26.8954922 L128.391503,19.8794301 C128.391503,15.4934197 127.865078,14.7918653 124.926736,14.7918653 L124.926736,13.9146632 L134.004456,13.9146632 C138.521554,13.9146632 141.021554,16.2390155 141.021554,19.3530052 C141.021554,22.3789119 138.521554,24.7467876 134.004456,24.7467876 L131.504974,24.7467876 L131.504974,26.8954922 C131.504974,31.2815026 132.030881,32.0265803 134.969223,32.0265803" id="Fill-7" fill="#FFFFFF"></path>
                <path d="M147.906528,25.4482902 L147.906528,19.6161658 L149.704456,19.6161658 C151.677513,19.6161658 152.555233,20.9752332 152.555233,22.5539896 C152.555233,24.0892228 151.677513,25.4482902 149.704456,25.4482902 L147.906528,25.4482902 Z M171.147979,28.7819689 L170.929326,29.5710881 C170.534508,31.0182383 170.051606,31.5446632 166.938135,31.5446632 L166.324145,31.5446632 C164.044352,31.5446632 163.649534,31.0182383 163.649534,27.9042487 L163.649534,25.8876684 C167.069741,25.8876684 167.332953,26.193886 167.332953,28.474715 L168.166632,28.474715 L168.166632,21.94 L167.332953,21.94 C167.332953,24.220829 167.069741,24.5275648 163.649534,24.5275648 L163.649534,19.6161658 L166.060933,19.6161658 C169.174922,19.6161658 169.657306,20.1425907 170.051606,21.5897409 L170.271295,22.4223834 L170.97285,22.4223834 L170.666114,18.3006218 L157.77285,18.3006218 L157.77285,19.1332642 C160.22829,19.1332642 160.623109,19.6596891 160.623109,22.7736788 L160.623109,28.3871503 C160.623109,31.2353368 160.287876,31.9529534 158.351606,32.0550259 C156.511192,31.7741969 155.247979,30.7700518 153.519482,28.8695337 L151.501865,26.6767876 C154.221554,26.193886 155.668187,24.4840415 155.668187,22.5539896 C155.668187,20.1425907 153.607565,18.3006218 149.748497,18.3006218 L142.029845,18.3006218 L142.029845,19.1332642 C144.485285,19.1332642 144.880104,19.6596891 144.880104,22.7736788 L144.880104,28.3871503 C144.880104,31.5006218 144.485285,32.0705699 142.029845,32.0705699 L142.029845,32.9037306 L150.756788,32.9037306 L150.756788,32.0705699 C148.301347,32.0705699 147.906528,31.5006218 147.906528,28.3871503 L147.906528,26.8083938 L148.651606,26.8083938 L153.519482,32.9037306 L171.542798,32.9037306 L171.80601,28.7819689 L171.147979,28.7819689 Z" id="Fill-9" fill="#FFFFFF"></path>
                <path d="M180.050622,33.4738342 C178.296218,33.4738342 176.760984,32.5531088 176.103472,31.9826425 C175.884301,32.2023316 175.489482,32.8598446 175.401917,33.4738342 L174.568756,33.4738342 L174.568756,27.4220207 L175.44544,27.4220207 C175.796736,30.3163212 177.813834,32.0266839 180.401399,32.0266839 C181.804508,32.0266839 182.944922,31.2375648 182.944922,29.9220207 C182.944922,28.7816062 181.936114,27.9044041 180.138187,27.0717617 L177.638705,25.8873057 C175.884301,25.0536269 174.568756,23.6064767 174.568756,21.676943 C174.568756,19.5722798 176.542332,17.7743523 179.261503,17.7743523 C180.708653,17.7743523 181.936114,18.3007772 182.68171,18.9142487 C182.900881,18.7391192 183.120052,18.2562176 183.252176,17.7297927 L184.084819,17.7297927 L184.084819,22.9054404 L183.164093,22.9054404 C182.856839,20.8437824 181.716943,19.1334197 179.392591,19.1334197 C178.164611,19.1334197 177.024197,19.8354922 177.024197,20.9318653 C177.024197,22.0717617 177.94544,22.6857513 180.050622,23.6505181 L182.462021,24.834456 C184.56772,25.8427461 185.400363,27.4660622 185.400363,28.7816062 C185.400363,31.5443005 182.988446,33.4738342 180.050622,33.4738342" id="Fill-11" fill="#FFFFFF"></path>
                <path d="M193.557047,33.4738342 C191.802642,33.4738342 190.267409,32.5531088 189.609896,31.9826425 C189.390725,32.2023316 188.995907,32.8598446 188.908342,33.4738342 L188.075181,33.4738342 L188.075181,27.4220207 L188.951865,27.4220207 C189.303161,30.3163212 191.320259,32.0266839 193.907824,32.0266839 C195.310933,32.0266839 196.451347,31.2375648 196.451347,29.9220207 C196.451347,28.7816062 195.442539,27.9044041 193.644611,27.0717617 L191.14513,25.8873057 C189.390725,25.0536269 188.075181,23.6064767 188.075181,21.676943 C188.075181,19.5722798 190.048756,17.7743523 192.767927,17.7743523 C194.215078,17.7743523 195.442539,18.3007772 196.188135,18.9142487 C196.407306,18.7391192 196.626477,18.2562176 196.758083,17.7297927 L197.591244,17.7297927 L197.591244,22.9054404 L196.670518,22.9054404 C196.363264,20.8437824 195.223368,19.1334197 192.899016,19.1334197 C191.671036,19.1334197 190.530622,19.8354922 190.530622,20.9318653 C190.530622,22.0717617 191.451865,22.6857513 193.557047,23.6505181 L195.968446,24.834456 C198.074145,25.8427461 198.906788,27.4660622 198.906788,28.7816062 C198.906788,31.5443005 196.49487,33.4738342 193.557047,33.4738342" id="Fill-13" fill="#FFFFFF"></path>
                <g id="Group" fill="#FFFFFF">
                    <path d="M3.61612921,22.5553146 C3.61612921,30.0516067 7.97253371,36.5300899 14.2897247,39.6002022 L5.25584831,14.8476742 C4.20517416,17.2028427 3.61612921,19.8093034 3.61612921,22.5553146" id="Fill-15"></path>
                    <path d="M35.3401685,21.5993427 C35.3401685,19.2588371 34.4993258,17.6378258 33.7783146,16.376309 C32.8186517,14.8164775 31.9181461,13.4952978 31.9181461,11.9354663 C31.9181461,10.194118 33.2388202,8.57361236 35.0984831,8.57361236 C35.1824157,8.57361236 35.2623034,8.58423034 35.3442135,8.5887809 C31.9747753,5.50147753 27.4858989,3.61703933 22.5551124,3.61703933 C15.9385955,3.61703933 10.1174157,7.01125281 6.73129213,12.152882 C7.17573034,12.1665337 7.59438202,12.1756348 7.94983146,12.1756348 C9.9308427,12.1756348 12.9974157,11.9354663 12.9974157,11.9354663 C14.0182584,11.8752978 14.1385955,13.3744551 13.118764,13.4952978 C13.118764,13.4952978 12.0923596,13.6161404 10.9511798,13.6758034 L17.847809,34.1902416 L21.9928652,21.7601292 L19.0420787,13.6758034 C18.0222472,13.6161404 17.0560112,13.4952978 17.0560112,13.4952978 C16.0351685,13.4356348 16.155,11.8752978 17.1753371,11.9354663 C17.1753371,11.9354663 20.3030899,12.1756348 22.163764,12.1756348 C24.1442697,12.1756348 27.2113483,11.9354663 27.2113483,11.9354663 C28.2326966,11.8752978 28.3530337,13.3744551 27.3326966,13.4952978 C27.3326966,13.4952978 26.3047753,13.6161404 25.1651124,13.6758034 L32.0091573,34.0345112 L33.8981461,27.7218708 C34.7172472,25.102264 35.3401685,23.2208596 35.3401685,21.5993427" id="Fill-17"></path>
                    <path d="M22.8873539,24.2118708 L17.2052191,40.7238371 C18.9015674,41.222882 20.6960056,41.4954101 22.5551629,41.4954101 C24.7601629,41.4954101 26.8756685,41.1141742 28.8440393,40.4219831 C28.7934775,40.3405787 28.7474663,40.2546236 28.7095449,40.1610843 L22.8873539,24.2118708 Z" id="Fill-19"></path>
                    <path d="M39.173309,13.4690056 C39.2547135,14.0722079 39.3007247,14.7199045 39.3007247,15.4166461 C39.3007247,17.3379944 38.941736,19.4985 37.8607247,22.2000169 L32.0759494,38.9258596 C37.7065112,35.6423764 41.4935899,29.5420955 41.4935899,22.5554663 C41.4935899,19.262882 40.6527472,16.1664775 39.173309,13.4690056" id="Fill-21"></path>
                    <path d="M22.5550618,43.6204213 C10.9400056,43.6204213 1.49051124,34.170927 1.49051124,22.5553652 C1.49051124,10.940309 10.9400056,1.49132022 22.5550618,1.49132022 C34.1696124,1.49132022 43.6186011,10.940309 43.6186011,22.5553652 C43.6186011,34.170927 34.1696124,43.6204213 22.5550618,43.6204213 M22.5550618,0.479073034 C10.382309,0.479073034 0.478264045,10.3826124 0.478264045,22.5553652 C0.478264045,34.7296348 10.382309,44.6326685 22.5550618,44.6326685 C34.727309,44.6326685 44.6328708,34.7296348 44.6328708,22.5553652 C44.6328708,10.3826124 34.727309,0.479073034 22.5550618,0.479073034" id="Fill-23"></path>
                </g>
            </g>
        </g>
    </g>
</svg>