<?xml version="1.0" encoding="UTF-8" standalone="no"?>
<svg width="45px" height="45px" viewBox="0 0 45 45" version="1.1" xmlns="http://www.w3.org/2000/svg" xmlns:xlink="http://www.w3.org/1999/xlink">
    <!-- Generator: Sketch 3.8.3 (29802) - http://www.bohemiancoding.com/sketch -->
    <title>Group</title>
    <desc>Created with Sketch.</desc>
    <defs></defs>
    <g id="Page-1" stroke="none" stroke-width="1" fill="none" fill-rule="evenodd">
        <g id="Joomla" transform="translate(-1220.000000, -26.000000)" fill="#FFFFFF">
            <g id="nav" transform="translate(1220.000000, 26.000000)">
                <g id="Group">
                    <path d="M3.61612921,22.5553146 C3.61612921,30.0516067 7.97253371,36.5300899 14.2897247,39.6002022 L5.25584831,14.8476742 C4.20517416,17.2028427 3.61612921,19.8093034 3.61612921,22.5553146" id="Fill-15"></path>
                    <path d="M35.3401685,21.5993427 C35.3401685,19.2588371 34.4993258,17.6378258 33.7783146,16.376309 C32.8186517,14.8164775 31.9181461,13.4952978 31.9181461,11.9354663 C31.9181461,10.194118 33.2388202,8.57361236 35.0984831,8.57361236 C35.1824157,8.57361236 35.2623034,8.58423034 35.3442135,8.5887809 C31.9747753,5.50147753 27.4858989,3.61703933 22.5551124,3.61703933 C15.9385955,3.61703933 10.1174157,7.01125281 6.73129213,12.152882 C7.17573034,12.1665337 7.59438202,12.1756348 7.94983146,12.1756348 C9.9308427,12.1756348 12.9974157,11.9354663 12.9974157,11.9354663 C14.0182584,11.8752978 14.1385955,13.3744551 13.118764,13.4952978 C13.118764,13.4952978 12.0923596,13.6161404 10.9511798,13.6758034 L17.847809,34.1902416 L21.9928652,21.7601292 L19.0420787,13.6758034 C18.0222472,13.6161404 17.0560112,13.4952978 17.0560112,13.4952978 C16.0351685,13.4356348 16.155,11.8752978 17.1753371,11.9354663 C17.1753371,11.9354663 20.3030899,12.1756348 22.163764,12.1756348 C24.1442697,12.1756348 27.2113483,11.9354663 27.2113483,11.9354663 C28.2326966,11.8752978 28.3530337,13.3744551 27.3326966,13.4952978 C27.3326966,13.4952978 26.3047753,13.6161404 25.1651124,13.6758034 L32.0091573,34.0345112 L33.8981461,27.7218708 C34.7172472,25.102264 35.3401685,23.2208596 35.3401685,21.5993427" id="Fill-17"></path>
                    <path d="M22.8873539,24.2118708 L17.2052191,40.7238371 C18.9015674,41.222882 20.6960056,41.4954101 22.5551629,41.4954101 C24.7601629,41.4954101 26.8756685,41.1141742 28.8440393,40.4219831 C28.7934775,40.3405787 28.7474663,40.2546236 28.7095449,40.1610843 L22.8873539,24.2118708 Z" id="Fill-19"></path>
                    <path d="M39.173309,13.4690056 C39.2547135,14.0722079 39.3007247,14.7199045 39.3007247,15.4166461 C39.3007247,17.3379944 38.941736,19.4985 37.8607247,22.2000169 L32.0759494,38.9258596 C37.7065112,35.6423764 41.4935899,29.5420955 41.4935899,22.5554663 C41.4935899,19.262882 40.6527472,16.1664775 39.173309,13.4690056" id="Fill-21"></path>
                    <path d="M22.5550618,43.6204213 C10.9400056,43.6204213 1.49051124,34.170927 1.49051124,22.5553652 C1.49051124,10.940309 10.9400056,1.49132022 22.5550618,1.49132022 C34.1696124,1.49132022 43.6186011,10.940309 43.6186011,22.5553652 C43.6186011,34.170927 34.1696124,43.6204213 22.5550618,43.6204213 M22.5550618,0.479073034 C10.382309,0.479073034 0.478264045,10.3826124 0.478264045,22.5553652 C0.478264045,34.7296348 10.382309,44.6326685 22.5550618,44.6326685 C34.727309,44.6326685 44.6328708,34.7296348 44.6328708,22.5553652 C44.6328708,10.3826124 34.727309,0.479073034 22.5550618,0.479073034" id="Fill-23"></path>
                </g>
            </g>
        </g>
    </g>
</svg>